{"glyphs":{"0":{"ha":772,"x_min":41,"x_max":731,"o":"m 731 485 q 717 344 731 410 q 677 225 703 279 q 617 129 652 171 q 542 57 583 86 q 458 13 502 28 q 369 -2 414 -2 q 298 8 336 -2 q 224 41 261 19 q 155 98 188 63 q 96 180 121 132 q 56 290 71 228 q 41 429 41 351 q 57 591 41 512 q 106 739 73 670 q 192 866 140 808 q 317 964 244 923 q 325 967 322 966 q 330 968 327 968 q 340 960 340 968 q 335 949 340 954 q 317 932 331 945 q 283 895 302 919 q 242 836 263 871 q 202 750 220 800 q 172 634 184 700 q 160 484 160 568 q 177 306 160 381 q 224 182 194 231 q 294 110 254 133 q 381 86 334 86 q 425 95 401 86 q 473 123 449 103 q 521 176 498 143 q 563 256 545 208 q 592 368 581 304 q 603 516 603 432 q 585 693 603 623 q 540 806 566 764 q 487 866 514 848 q 441 884 459 884 q 415 881 427 884 q 391 870 403 878 q 367 849 379 863 q 338 812 354 835 q 317 795 325 795 q 308 812 308 795 q 321 864 308 839 q 357 907 335 888 q 405 937 378 926 q 458 948 432 948 q 515 937 485 948 q 576 903 546 926 q 635 843 607 880 q 684 755 663 806 q 718 636 705 704 q 731 485 731 569 z "},"1":{"ha":420,"x_min":14,"x_max":319,"o":"m 289 59 q 283 33 288 41 q 258 19 277 24 q 244 15 250 17 q 232 12 238 14 q 217 6 225 9 q 198 -1 210 3 q 184 -5 190 -5 q 172 11 174 -5 q 175 151 172 53 q 178 250 176 192 q 183 385 180 308 q 190 561 186 463 q 199 783 194 660 q 200 792 199 787 q 200 804 200 798 q 126 738 168 770 q 41 688 83 707 q 27 685 34 685 q 17 688 20 685 q 14 696 14 692 q 20 708 14 703 q 100 784 69 745 q 150 853 131 822 q 177 907 168 885 q 191 936 186 930 q 207 949 198 944 q 225 955 215 955 q 237 952 232 955 q 252 946 243 949 q 277 936 264 941 q 301 925 290 931 q 315 909 311 920 q 318 881 319 899 q 317 853 318 877 q 315 792 317 830 q 312 706 314 755 q 309 601 311 656 q 304 487 307 546 q 300 372 302 429 q 296 263 298 315 q 293 169 294 211 q 291 99 292 127 q 289 59 290 70 z "},"2":{"ha":707,"x_min":32,"x_max":657,"o":"m 656 663 q 643 545 657 596 q 601 452 629 494 q 532 372 572 409 q 442 296 492 335 q 331 214 391 258 q 203 116 271 171 q 277 125 240 123 q 350 128 314 128 q 408 126 380 128 q 462 125 436 125 q 557 135 517 125 q 621 165 598 146 q 643 180 637 180 q 648 171 648 180 q 647 160 648 165 q 644 150 646 155 q 635 129 642 143 q 617 98 629 115 q 588 63 606 81 q 548 30 571 45 q 494 5 524 15 q 425 -4 463 -4 q 367 2 397 -4 q 304 14 336 7 q 241 27 273 21 q 182 33 210 33 q 134 30 156 33 q 95 22 112 26 q 67 3 80 9 q 46 -3 55 -3 q 32 14 32 -3 q 41 39 32 25 q 64 65 51 52 q 93 89 78 78 q 117 107 107 100 q 166 142 138 121 q 226 187 195 162 q 291 240 258 212 q 354 298 323 268 q 411 359 385 328 q 456 421 437 391 q 501 526 486 473 q 516 634 516 580 q 506 726 516 678 q 473 815 496 774 q 415 881 451 855 q 328 907 380 907 q 269 895 298 907 q 217 854 239 882 q 180 785 194 827 q 167 685 167 743 q 186 576 167 633 q 254 467 205 520 q 261 452 261 458 q 247 441 261 441 q 243 441 245 441 q 239 441 241 441 q 216 447 233 442 q 178 460 199 451 q 134 486 157 470 q 92 527 111 502 q 61 587 73 552 q 48 669 48 621 q 62 767 48 724 q 100 844 76 810 q 154 901 123 877 q 219 939 185 924 q 288 961 253 954 q 353 968 322 968 q 415 963 381 968 q 482 945 448 958 q 546 910 515 932 q 602 854 577 888 q 641 773 626 820 q 656 663 656 726 z "},"3":{"ha":620,"x_min":14,"x_max":586,"o":"m 586 249 q 559 131 586 180 q 489 51 532 82 q 389 5 445 20 q 274 -9 332 -9 q 169 4 217 -9 q 87 43 121 18 q 33 103 52 68 q 14 180 14 138 q 27 237 14 212 q 60 280 41 262 q 99 307 79 298 q 134 316 119 316 q 148 302 148 316 q 144 289 148 296 q 137 271 141 281 q 130 245 134 260 q 127 209 127 230 q 134 158 127 185 q 159 108 142 131 q 205 71 176 85 q 276 56 233 56 q 352 68 317 56 q 410 105 386 81 q 448 162 435 129 q 461 235 461 195 q 448 322 461 286 q 415 383 435 358 q 368 422 394 408 q 315 446 342 437 q 264 456 289 454 q 223 460 240 459 q 191 467 200 461 q 181 481 181 472 q 188 498 181 491 q 205 513 195 505 q 253 555 228 529 q 304 611 279 581 q 351 676 329 642 q 391 743 374 711 q 401 766 396 754 q 411 790 406 777 q 420 817 416 803 q 397 817 409 817 q 372 817 385 817 q 356 817 370 817 q 327 818 343 817 q 297 819 311 819 q 277 819 282 819 q 223 819 246 819 q 181 817 199 818 q 150 816 163 817 q 127 815 137 815 q 76 831 76 815 q 77 842 76 836 q 79 852 79 847 q 82 866 79 861 q 89 878 85 872 q 95 888 92 883 q 98 901 98 894 l 98 904 q 122 942 98 930 q 193 954 146 954 q 229 951 208 954 q 275 947 250 949 q 327 943 300 945 q 384 941 355 941 q 502 947 458 941 q 553 954 546 954 q 572 937 572 954 q 569 918 572 930 q 559 890 567 913 q 536 832 551 867 q 497 755 520 798 q 441 669 473 713 q 368 585 410 626 q 274 513 326 544 q 288 514 281 513 q 304 514 296 514 q 414 495 363 514 q 504 442 465 477 q 564 358 542 408 q 586 249 586 309 z "},"4":{"ha":718,"x_min":27,"x_max":694,"o":"m 636 372 q 619 361 632 369 q 585 344 606 353 q 584 235 584 293 q 584 110 584 177 q 583 89 584 100 q 576 66 581 77 q 563 47 572 56 q 537 35 553 38 q 515 25 525 32 q 497 11 505 18 q 483 -1 489 4 q 471 -7 476 -7 q 466 -3 467 -7 q 465 12 465 1 q 465 42 465 16 q 466 111 465 69 q 469 205 467 153 q 471 315 470 258 q 452 313 462 313 q 433 311 443 312 q 385 309 410 310 q 334 309 360 309 q 269 309 302 309 q 207 311 237 310 q 150 312 176 311 q 105 313 124 313 q 75 311 85 313 q 60 310 66 310 q 36 319 44 310 q 27 339 27 328 q 30 351 27 346 q 46 373 33 357 q 78 418 60 390 q 118 486 97 446 q 156 576 138 525 q 186 688 174 627 q 197 823 197 750 q 194 891 197 867 q 191 931 191 915 q 196 957 191 951 q 207 964 201 964 q 217 962 212 964 q 229 961 222 961 q 241 958 235 961 q 252 951 247 955 q 262 945 257 948 q 273 942 267 942 l 279 942 q 317 918 306 942 q 328 848 328 893 q 320 732 328 806 q 294 616 313 669 q 250 520 275 563 q 199 444 225 477 q 154 391 174 412 q 219 382 182 387 q 295 375 256 378 q 371 370 334 372 q 437 368 408 368 q 455 368 446 368 q 473 369 464 368 q 476 471 475 421 q 479 563 477 521 q 482 634 481 604 q 484 676 483 664 q 496 740 486 703 q 526 817 505 777 q 582 896 547 857 q 670 964 616 934 q 685 968 679 968 q 694 961 694 968 q 687 947 694 955 q 648 896 663 922 q 622 838 632 869 q 607 766 612 806 q 596 673 601 726 q 588 550 591 620 q 585 382 586 479 q 631 393 618 389 q 639 395 637 395 q 647 388 647 395 q 636 372 647 381 z "},"5":{"ha":657,"x_min":20,"x_max":616,"o":"m 616 310 q 590 173 616 232 q 516 73 563 113 q 407 12 469 33 q 273 -8 345 -8 q 167 5 214 -8 q 87 42 120 18 q 38 101 55 66 q 20 180 20 136 q 34 237 20 212 q 66 280 47 262 q 106 307 85 298 q 140 316 126 316 q 155 302 155 316 q 151 289 155 296 q 144 271 148 281 q 136 245 140 260 q 133 210 133 231 q 140 156 133 184 q 165 105 148 128 q 211 66 182 81 q 283 52 240 52 q 368 74 332 52 q 427 132 404 96 q 462 213 450 168 q 473 306 473 259 q 453 423 473 376 q 401 498 433 470 q 334 538 370 526 q 264 550 297 550 q 226 547 243 550 q 192 540 208 545 q 160 528 176 535 q 126 513 144 521 q 94 504 106 504 q 66 514 77 504 q 56 540 56 524 q 58 553 56 545 q 66 590 60 562 q 80 655 73 618 q 97 733 88 692 q 112 810 105 774 q 124 871 119 846 q 130 901 130 897 q 138 928 133 918 q 155 944 144 939 q 185 951 166 949 q 233 954 203 954 q 279 952 255 954 q 316 951 303 951 q 371 952 347 951 q 412 953 395 953 q 443 954 430 954 q 466 955 456 955 q 503 952 492 955 q 518 944 514 949 q 522 932 522 939 q 524 918 522 926 q 525 913 525 916 q 526 909 526 911 q 522 893 526 900 q 518 879 518 886 q 520 867 518 873 q 523 854 523 861 q 501 825 523 833 q 438 817 479 817 q 393 817 414 817 q 344 820 371 818 q 280 827 317 823 q 189 840 243 832 l 125 582 q 189 612 159 601 q 243 628 218 623 q 287 634 267 633 q 320 635 306 635 q 425 617 380 633 q 503 576 470 602 q 558 518 536 551 q 593 449 580 485 q 611 378 606 414 q 616 310 616 342 z "},"6":{"ha":677,"x_min":34,"x_max":644,"o":"m 644 316 q 622 185 644 245 q 561 81 600 125 q 468 12 522 37 q 351 -13 414 -13 q 228 9 286 -13 q 127 80 170 32 q 59 203 84 127 q 34 386 34 279 q 55 533 35 464 q 110 663 75 603 q 190 771 144 722 q 286 858 235 821 q 388 921 336 896 q 490 960 441 947 q 496 961 493 960 q 502 961 498 961 q 513 957 509 961 q 517 948 517 954 q 515 940 517 944 q 506 932 513 935 q 483 920 500 929 q 440 893 465 910 q 386 851 416 876 q 325 791 355 825 q 266 713 294 757 q 215 615 237 669 q 180 496 193 562 q 166 355 166 431 q 185 205 166 266 q 232 109 203 145 q 295 56 260 72 q 362 40 330 40 q 417 53 389 40 q 467 92 445 65 q 503 162 489 119 q 517 265 517 205 q 503 386 517 339 q 469 460 490 433 q 422 496 448 486 q 373 506 397 506 q 320 492 340 506 q 287 463 300 479 q 267 433 274 447 q 252 420 259 420 q 245 424 248 420 q 242 439 242 429 q 246 460 242 446 q 258 491 250 474 q 280 527 267 509 q 315 561 294 546 q 363 586 336 576 q 426 596 390 596 q 511 576 471 596 q 580 518 551 555 q 627 429 610 481 q 644 316 644 378 z "},"7":{"ha":532,"x_min":14,"x_max":545,"o":"m 544 937 q 506 785 530 853 q 455 658 483 717 q 397 547 427 599 q 340 441 367 494 q 308 368 323 408 q 281 287 294 328 q 260 205 269 245 q 244 132 251 165 q 235 75 238 98 q 231 43 231 51 q 229 -6 230 11 q 217 -22 229 -22 q 208 -21 214 -22 q 194 -15 201 -19 q 178 -8 185 -13 q 169 3 172 -3 l 155 1 q 145 3 148 1 q 141 6 142 4 q 136 9 139 7 q 126 12 134 11 q 115 15 120 13 q 107 21 111 17 q 102 34 104 26 q 100 54 100 41 q 102 87 100 64 q 112 142 105 111 q 129 213 118 174 q 156 293 140 252 q 195 377 172 334 q 247 458 217 419 q 263 481 248 461 q 301 534 279 502 q 349 607 323 566 q 398 688 375 647 q 437 768 420 729 q 459 838 454 808 q 403 834 431 835 q 349 833 375 833 q 297 834 326 833 q 241 835 269 835 q 176 834 204 835 q 126 831 148 833 q 86 828 104 829 q 55 827 69 827 q 22 832 30 827 q 14 844 14 836 q 15 854 14 848 q 16 865 16 859 q 19 878 16 872 q 25 888 22 883 q 32 898 29 893 q 35 909 35 903 l 35 916 q 43 941 35 931 q 68 958 51 951 q 113 966 85 964 q 180 968 141 968 q 268 963 222 968 q 361 958 314 958 q 425 960 396 958 q 474 965 453 962 q 509 970 495 968 q 526 972 522 972 q 542 966 538 972 q 545 951 545 960 q 545 944 545 948 q 544 937 545 941 z "},"8":{"ha":667,"x_min":27,"x_max":629,"o":"m 629 229 q 594 121 623 167 q 519 46 564 76 q 418 2 474 16 q 303 -13 361 -13 q 192 4 243 -13 q 105 54 142 22 q 48 130 68 85 q 27 231 27 175 q 46 327 27 285 q 97 402 66 369 q 167 463 128 436 q 245 512 206 490 q 171 573 202 545 q 121 631 140 602 q 93 689 102 659 q 84 753 84 719 q 103 848 84 805 q 153 923 122 892 q 222 971 183 954 q 301 989 261 989 q 328 974 328 989 q 323 965 328 969 q 305 956 319 961 q 263 932 283 946 q 226 897 242 918 q 201 849 210 876 q 191 789 191 823 q 203 724 191 754 q 235 666 214 693 q 283 615 255 640 q 345 570 311 591 q 435 657 408 611 q 463 746 463 704 q 455 799 463 777 q 432 835 446 821 q 402 856 418 849 q 369 863 385 863 q 322 849 345 863 q 281 812 299 835 q 267 804 275 804 q 253 810 259 804 q 248 824 248 815 q 250 833 248 828 q 275 878 259 857 q 310 914 290 899 q 354 939 330 930 q 406 948 378 948 q 475 933 445 948 q 526 895 505 919 q 557 840 547 871 q 568 777 568 809 q 553 702 568 735 q 514 640 538 668 q 457 588 489 612 q 391 541 425 564 q 472 493 429 518 q 549 434 514 467 q 607 357 584 401 q 629 252 629 313 q 629 240 629 246 q 629 229 629 235 m 296 476 q 243 431 268 454 q 199 378 218 407 q 170 316 180 350 q 159 241 159 282 q 172 167 159 201 q 207 106 184 132 q 260 66 229 81 q 326 52 290 52 q 393 65 361 52 q 448 100 425 78 q 486 153 472 123 q 500 216 500 182 q 486 296 500 262 q 447 359 473 330 q 385 415 422 388 q 300 474 347 441 l 296 476 z "},"9":{"ha":677,"x_min":34,"x_max":644,"o":"m 644 567 q 623 419 644 489 q 569 290 603 350 q 489 181 534 230 q 392 94 443 132 q 289 31 342 56 q 188 -7 237 5 q 175 -9 180 -9 q 165 -5 168 -9 q 161 3 161 -2 q 164 13 161 9 q 173 20 167 16 q 208 40 180 24 q 273 85 235 56 q 353 161 311 115 q 431 269 395 206 q 489 412 466 331 q 513 595 513 494 q 494 745 513 684 q 447 842 476 805 q 384 895 418 879 q 316 911 349 911 q 261 899 289 911 q 212 859 234 886 q 176 787 190 831 q 162 678 162 743 q 170 574 162 618 q 189 499 177 530 q 218 449 201 469 q 252 419 234 430 q 287 404 269 408 q 320 400 304 400 q 364 410 345 400 q 398 431 383 419 q 421 456 412 444 q 434 475 431 469 q 440 485 437 481 q 448 490 443 490 q 455 485 452 490 q 458 469 458 481 q 454 448 458 463 q 441 416 450 434 q 417 380 432 399 q 380 345 402 361 q 330 320 359 330 q 262 310 300 310 q 182 327 222 310 q 108 382 141 345 q 55 477 75 419 q 34 616 34 535 q 55 752 34 689 q 115 863 76 816 q 208 937 153 910 q 330 964 262 964 q 451 942 394 964 q 551 872 509 920 q 619 749 594 824 q 644 567 644 673 z "}," ":{"ha":250,"x_min":0,"x_max":0,"o":""},"D":{"ha":882,"x_min":20,"x_max":841,"o":"m 841 456 q 825 286 841 362 q 781 149 808 209 q 716 45 753 89 q 641 -28 680 1 q 560 -71 601 -57 q 483 -85 519 -85 q 430 -75 455 -85 q 385 -47 404 -65 q 355 -2 366 -28 q 344 57 344 24 q 347 76 344 71 q 355 81 350 81 q 368 68 363 81 q 408 7 381 28 q 474 -14 435 -14 q 567 20 526 -14 q 638 119 609 54 q 684 279 668 184 q 701 496 701 374 q 683 643 701 576 q 630 758 666 709 q 537 833 593 806 q 404 861 481 861 q 306 848 355 861 q 217 811 257 836 q 153 747 178 786 q 127 654 127 707 q 136 596 127 624 q 155 545 144 568 q 176 506 165 522 q 191 484 186 490 q 198 467 198 475 q 194 457 198 461 q 178 453 189 453 q 171 453 174 453 q 163 454 168 453 q 126 469 150 456 q 78 504 102 481 q 38 561 55 527 q 20 642 20 595 q 32 710 20 673 q 65 784 43 747 q 120 854 87 821 q 197 915 153 888 q 295 956 241 941 q 415 972 350 972 q 578 944 510 972 q 694 872 646 917 q 770 772 741 828 q 815 658 799 715 q 836 548 831 601 q 841 456 841 494 m 329 750 q 348 774 336 765 q 376 783 360 783 q 390 780 381 783 q 399 769 399 777 q 398 759 399 764 q 395 747 397 755 q 374 630 383 690 q 358 513 365 570 q 347 402 351 455 q 340 303 342 349 q 337 223 338 258 q 336 167 336 188 q 335 59 336 99 q 334 -1 334 20 q 334 -9 334 -4 q 333 -18 334 -14 q 329 -26 332 -22 q 320 -29 326 -29 q 304 -26 311 -29 q 290 -18 296 -22 q 276 -10 283 -14 q 264 -7 270 -7 q 252 -12 256 -7 q 240 -16 247 -16 q 227 -12 232 -16 q 220 -2 222 -8 q 218 11 218 4 q 218 23 218 18 q 219 99 218 49 q 224 216 221 149 q 230 301 227 256 q 237 391 233 346 q 245 478 241 435 q 253 555 250 520 q 260 614 257 590 q 264 648 263 639 q 274 699 269 678 q 286 728 279 720 q 297 739 290 734 q 311 746 302 743 q 329 750 319 750 z "},"E":{"ha":703,"x_min":41,"x_max":707,"o":"m 434 966 q 550 950 501 966 q 631 911 598 933 q 681 867 663 889 q 703 832 699 844 q 706 822 706 826 q 707 814 707 817 q 703 802 707 806 q 694 790 699 799 q 685 781 690 783 q 674 776 680 778 q 663 771 668 774 q 654 761 658 768 q 624 741 644 741 q 602 748 612 741 q 577 766 591 755 q 546 789 564 777 q 502 813 528 802 q 439 831 475 824 q 354 838 404 838 q 259 822 300 838 q 182 772 218 805 q 137 712 152 744 q 121 650 121 680 q 144 587 121 616 q 192 547 160 567 q 261 510 224 528 q 334 478 298 492 q 392 453 370 463 q 418 435 412 444 q 425 417 425 427 q 421 396 425 407 q 417 373 417 385 q 418 363 417 368 q 420 353 420 358 q 413 335 420 342 q 396 321 407 327 q 372 310 386 315 q 345 301 359 305 q 295 283 326 295 q 236 253 264 272 q 187 205 208 233 q 167 136 167 176 q 178 85 167 109 q 211 43 190 61 q 262 15 233 25 q 328 5 292 5 q 477 41 410 5 q 586 139 543 77 q 609 178 595 153 q 637 240 622 203 q 646 253 640 248 q 656 257 651 257 q 664 254 661 257 q 667 245 667 251 q 661 223 667 240 q 644 182 654 205 q 617 132 633 159 q 585 79 602 104 q 528 15 560 45 q 458 -38 496 -16 q 378 -73 420 -60 q 288 -85 335 -85 q 203 -74 246 -85 q 126 -38 161 -62 q 69 22 91 -14 q 47 109 47 59 q 66 194 47 158 q 113 254 85 229 q 174 294 141 278 q 235 319 207 309 q 282 335 263 329 q 301 347 301 341 q 291 357 301 352 q 266 369 281 362 q 229 383 250 375 q 188 403 209 391 q 127 441 154 421 q 80 486 100 462 q 51 539 61 510 q 41 603 41 568 q 55 695 41 650 q 96 781 70 741 q 159 855 123 821 q 239 914 195 889 q 332 952 283 939 q 434 966 382 966 z "},"F":{"ha":728,"x_min":20,"x_max":829,"o":"m 425 782 q 424 761 425 779 q 422 714 423 743 q 419 647 420 685 q 415 567 417 610 q 410 477 412 524 q 406 383 408 430 q 477 379 444 382 q 536 371 510 375 q 572 363 558 367 q 594 357 586 360 q 607 350 603 354 q 615 342 612 347 q 623 335 618 338 q 633 329 628 332 q 641 322 637 326 q 644 314 644 319 q 641 304 644 309 q 631 298 637 300 q 603 295 625 296 q 534 292 581 294 q 474 290 509 290 q 401 288 439 289 q 396 209 399 246 q 392 141 394 172 q 389 90 391 111 q 387 60 388 69 q 375 -4 385 33 q 344 -80 366 -41 q 288 -159 323 -120 q 201 -227 254 -197 q 186 -232 191 -232 q 176 -224 176 -232 q 184 -210 176 -218 q 223 -160 208 -184 q 249 -106 239 -136 q 263 -35 258 -75 q 272 62 269 5 q 274 109 273 79 q 277 177 275 134 q 283 285 279 219 q 214 280 236 283 q 187 275 192 277 q 183 271 183 274 q 182 265 182 268 q 179 259 181 262 q 170 257 177 257 q 158 259 165 257 q 145 265 151 261 q 134 274 138 269 q 129 285 129 279 q 143 312 129 296 q 156 323 146 315 q 182 341 165 332 q 224 359 199 350 q 288 374 250 368 l 305 701 q 307 722 306 710 q 313 745 309 734 q 327 765 317 756 q 352 778 336 774 q 374 787 364 781 q 391 800 383 793 q 405 812 399 807 q 417 818 412 818 q 421 814 420 818 q 424 806 423 811 q 425 794 425 800 q 425 782 425 787 m 823 924 q 818 911 822 916 q 808 902 813 907 q 799 892 804 897 q 794 880 795 888 q 778 855 792 865 q 745 845 764 845 q 690 847 728 845 q 604 849 652 849 q 492 845 549 849 q 380 832 435 841 q 278 809 326 823 q 195 774 231 795 q 138 726 159 753 q 117 665 117 699 q 133 578 117 616 q 169 515 149 541 q 205 473 189 488 q 222 452 222 457 q 213 441 222 446 q 187 436 204 436 q 119 453 149 436 q 66 497 88 469 q 32 559 44 524 q 20 633 20 595 q 48 743 20 691 q 124 836 75 795 q 237 907 172 878 q 378 951 302 937 q 541 974 467 968 q 675 979 616 979 q 760 975 729 979 q 807 966 791 971 q 826 954 822 960 q 829 942 829 947 q 827 934 829 938 q 823 924 825 930 z "},"G":{"ha":792,"x_min":44,"x_max":779,"o":"m 779 724 q 769 652 779 688 q 741 582 760 616 q 696 526 722 550 q 643 486 670 502 q 590 462 616 470 q 547 454 565 454 q 519 458 532 454 q 507 473 507 462 q 510 481 507 477 q 524 490 514 485 q 556 509 535 495 q 599 549 578 524 q 637 613 621 575 q 653 704 653 651 q 638 786 653 752 q 598 842 623 821 q 543 873 574 863 q 482 883 513 883 q 402 864 441 883 q 328 809 363 844 q 265 724 294 773 q 216 613 237 674 q 184 481 196 552 q 173 334 173 411 q 192 188 173 248 q 241 90 211 127 q 309 36 271 53 q 383 20 347 20 q 444 32 415 20 q 497 64 473 44 q 537 111 520 85 q 562 167 554 138 q 566 189 564 175 q 570 220 568 203 q 575 254 572 237 q 581 287 578 272 q 587 313 584 302 q 592 328 589 324 q 600 333 595 330 q 612 337 605 335 q 631 339 620 339 q 636 339 634 339 q 642 338 639 338 q 645 340 643 338 q 648 345 646 342 q 652 353 650 348 q 658 361 654 357 q 668 368 663 365 q 680 374 674 372 q 692 376 686 376 q 702 373 698 376 q 706 363 706 370 q 706 358 706 361 q 705 353 705 356 q 697 302 702 336 q 688 225 692 267 q 680 140 683 184 q 675 60 676 96 q 667 -4 675 33 q 639 -81 659 -41 q 585 -159 619 -121 q 499 -228 551 -198 q 485 -232 491 -232 q 475 -223 475 -232 q 477 -217 475 -220 q 482 -210 479 -214 q 519 -159 505 -183 q 544 -105 534 -135 q 556 -35 553 -75 q 560 62 560 5 l 560 72 q 517 7 542 36 q 463 -42 492 -22 q 399 -73 433 -62 q 328 -84 365 -84 q 220 -60 271 -84 q 130 12 169 -37 q 67 135 90 61 q 44 311 44 210 q 61 469 44 390 q 109 620 77 548 q 184 754 140 692 q 283 862 228 817 q 402 933 338 907 q 540 960 467 960 q 639 941 595 960 q 714 891 683 923 q 762 816 745 859 q 779 724 779 773 z "},"H":{"ha":981,"x_min":14,"x_max":946,"o":"m 475 929 q 473 901 475 926 q 469 836 471 876 q 462 742 466 795 q 455 628 458 688 q 447 502 451 567 q 439 373 443 437 l 480 343 q 621 378 549 359 q 755 415 693 397 l 791 924 q 792 941 791 934 q 796 952 793 947 q 803 960 798 957 q 814 964 807 962 q 826 969 822 965 q 832 977 829 972 q 837 984 834 981 q 846 990 840 988 q 860 996 852 992 q 873 1005 867 1000 q 886 1013 880 1009 q 898 1016 892 1016 q 911 1010 905 1016 q 917 994 917 1004 q 915 965 917 989 q 911 902 913 941 q 904 811 908 863 q 896 701 901 760 q 887 578 892 642 q 877 451 882 515 q 905 460 894 456 q 921 467 916 465 q 935 471 932 471 q 943 468 941 471 q 946 459 946 465 q 943 447 946 454 q 934 436 941 440 q 915 427 930 433 q 874 412 899 421 q 863 261 868 333 q 853 133 857 189 q 846 43 848 77 q 842 5 843 9 q 832 -19 840 -12 q 808 -26 823 -26 q 791 -20 800 -26 q 770 -3 782 -14 q 743 25 758 9 q 705 64 727 42 q 633 131 665 102 q 573 184 602 160 q 518 231 545 209 q 460 277 492 252 q 446 272 453 274 q 431 268 439 270 q 425 166 428 214 q 419 80 421 118 q 414 17 416 43 q 412 -17 412 -8 q 401 -76 409 -43 q 374 -145 393 -110 q 320 -216 355 -181 q 229 -279 286 -250 q 222 -281 225 -280 q 214 -283 218 -283 q 204 -279 208 -283 q 201 -269 201 -275 q 204 -258 201 -264 q 213 -249 207 -253 q 232 -234 220 -243 q 255 -208 243 -224 q 275 -165 267 -191 q 286 -103 284 -140 q 291 -43 288 -85 q 298 60 294 -7 q 309 239 302 127 q 273 235 290 236 q 239 234 256 234 q 142 247 184 234 q 72 281 100 260 q 29 331 43 303 q 14 391 14 359 q 24 443 14 421 q 50 479 33 465 q 89 500 66 494 q 136 507 111 507 q 224 492 177 507 q 321 451 271 477 l 345 893 q 360 924 346 915 q 395 934 374 934 q 401 933 401 934 q 404 932 402 932 q 413 936 409 932 q 422 943 418 939 q 430 950 427 947 q 438 953 434 953 q 452 958 445 953 q 467 964 460 964 q 477 951 477 964 q 475 929 477 943 m 538 300 q 638 222 589 262 q 736 132 686 182 l 752 370 q 651 337 705 354 q 538 300 597 319 m 287 312 q 299 312 293 312 q 313 313 306 312 l 317 382 q 248 415 278 405 q 197 425 218 425 q 161 414 174 425 q 148 385 148 404 q 156 359 148 372 q 180 335 163 346 q 223 318 197 325 q 287 312 250 312 z "},"I":{"ha":500,"x_min":20,"x_max":431,"o":"m 431 940 q 431 920 431 936 q 429 884 430 905 q 427 840 428 863 q 425 796 425 817 q 423 767 425 791 q 420 704 422 742 q 415 618 418 666 q 410 519 412 570 q 404 417 407 468 q 399 325 401 367 q 395 251 397 282 q 391 205 393 219 q 379 142 389 179 q 349 65 370 105 q 293 -13 328 26 q 205 -81 258 -52 q 198 -85 202 -83 q 190 -87 193 -87 q 181 -79 181 -87 q 189 -65 181 -73 q 228 -14 212 -40 q 253 43 243 12 q 267 114 262 74 q 275 208 272 154 q 284 328 279 256 q 294 481 288 389 q 305 701 299 574 q 307 736 306 718 q 309 771 308 754 q 310 800 309 787 q 311 819 311 813 q 303 826 311 826 q 274 823 292 826 q 236 812 256 820 q 194 792 215 804 q 157 761 174 780 q 129 718 140 743 q 119 661 119 693 q 126 602 119 629 q 145 554 134 576 q 170 515 157 532 q 195 485 184 498 q 214 464 206 473 q 222 452 222 456 q 215 441 222 446 q 191 437 208 437 q 125 453 156 437 q 71 495 94 469 q 34 557 47 522 q 20 631 20 593 q 39 727 20 682 q 89 809 58 772 q 159 876 119 846 q 241 926 199 905 q 325 958 283 947 q 399 968 366 968 q 424 962 417 968 q 431 940 431 956 z "},"J":{"ha":631,"x_min":-68,"x_max":562,"o":"m 562 940 q 560 906 562 937 q 556 823 559 875 q 551 701 554 770 q 543 550 547 631 q 533 381 538 469 q 522 205 528 294 q 516 148 520 175 q 505 94 511 120 l 517 90 q 530 76 530 85 q 526 68 530 71 q 515 64 522 64 q 509 65 513 64 q 497 67 505 66 q 445 -45 477 4 q 370 -132 412 -95 q 279 -194 328 -170 q 176 -233 229 -219 q 102 -242 138 -242 q 35 -228 66 -242 q -19 -189 3 -213 q -55 -133 -42 -164 q -68 -67 -68 -101 q -46 14 -68 -26 q 26 82 -24 54 q 148 131 88 117 q 262 144 207 144 q 331 140 298 144 q 396 128 365 136 q 403 166 400 146 q 407 208 406 186 q 412 313 409 245 q 420 464 415 370 q 435 701 426 559 q 437 734 435 716 q 439 769 438 753 q 441 799 440 786 q 442 817 442 812 q 439 824 442 822 q 433 826 436 826 q 337 806 381 826 q 260 750 292 786 q 209 666 227 715 q 190 557 190 616 q 200 479 190 513 q 226 419 210 446 q 261 375 242 393 q 298 343 280 356 q 329 321 315 330 q 349 307 343 313 q 353 299 353 303 q 345 289 353 293 q 321 284 337 284 q 272 288 300 284 q 216 302 245 292 q 160 330 187 313 q 111 375 132 348 q 76 440 90 402 q 63 530 63 478 q 86 647 63 591 q 147 753 109 704 q 234 841 185 802 q 335 909 283 881 q 438 953 387 937 q 530 968 488 968 q 555 962 548 968 q 562 940 562 956 m 81 -161 q 160 -148 117 -161 q 246 -106 203 -135 q 326 -31 289 -77 q 385 83 363 16 q 367 84 376 83 q 349 84 358 84 q 289 81 320 84 q 225 71 258 78 q 142 41 182 61 q 70 -4 101 21 q 19 -57 38 -29 q 0 -108 0 -84 q 20 -146 0 -132 q 81 -161 39 -161 z "},"K":{"ha":883,"x_min":20,"x_max":1005,"o":"m 431 940 q 431 920 431 936 q 429 884 430 905 q 427 840 428 863 q 425 796 425 817 q 423 769 424 792 q 420 711 422 747 q 415 632 418 676 q 410 539 413 587 q 405 442 408 491 q 400 351 402 393 l 401 351 q 544 450 481 389 q 650 586 606 511 q 715 745 693 661 q 738 916 738 830 q 737 933 738 924 q 736 952 736 943 q 735 969 735 962 q 734 982 734 977 q 741 1006 735 995 q 755 1017 746 1017 q 773 1013 763 1017 q 789 1007 783 1008 q 802 1004 796 1005 q 812 1003 808 1004 q 822 1000 817 1002 q 830 994 827 998 q 835 985 833 990 q 840 976 838 981 q 847 966 842 971 q 858 960 852 962 q 869 958 864 959 q 879 954 875 957 q 883 943 883 951 q 879 896 883 932 q 864 809 876 860 q 831 699 852 759 q 774 578 810 638 q 688 462 739 517 q 566 367 637 407 q 528 346 547 355 q 492 328 510 336 q 537 296 513 316 q 588 245 562 276 q 643 172 614 215 q 701 74 671 130 q 753 -19 726 28 q 813 -107 780 -66 q 889 -180 847 -149 q 985 -227 931 -212 q 1005 -240 1005 -232 q 995 -250 1005 -248 q 971 -252 984 -252 q 899 -246 937 -252 q 821 -227 861 -241 q 742 -189 781 -213 q 669 -127 703 -165 q 614 -52 637 -92 q 575 29 592 -12 q 542 109 557 70 q 508 183 527 149 q 463 244 488 217 q 399 287 437 271 q 397 286 397 287 l 391 205 q 379 142 389 179 q 349 65 370 105 q 293 -13 328 26 q 205 -81 258 -52 q 198 -85 202 -83 q 190 -87 193 -87 q 181 -79 181 -87 q 189 -65 181 -73 q 228 -14 212 -40 q 253 43 243 12 q 267 114 262 74 q 275 208 272 154 q 276 220 275 213 q 277 236 277 227 q 279 258 278 245 l 266 258 q 220 267 234 258 q 205 283 205 275 q 228 315 205 299 q 286 341 250 331 q 295 492 290 403 q 305 701 300 581 q 307 736 306 718 q 309 771 308 754 q 310 800 309 787 q 311 819 311 813 q 303 826 311 826 q 274 823 292 826 q 236 812 256 820 q 194 792 215 804 q 157 761 174 780 q 129 718 140 743 q 119 661 119 693 q 126 602 119 629 q 145 554 134 576 q 170 515 157 532 q 195 485 184 498 q 214 464 206 473 q 222 452 222 456 q 215 441 222 446 q 191 437 208 437 q 125 453 156 437 q 71 495 94 469 q 34 557 47 522 q 20 631 20 593 q 39 727 20 682 q 89 809 58 772 q 159 876 119 846 q 241 926 199 905 q 325 958 283 947 q 399 968 366 968 q 424 962 417 968 q 431 940 431 956 z "},"L":{"ha":802,"x_min":-20,"x_max":748,"o":"m 381 833 q 341 830 362 833 q 304 814 321 826 q 276 782 287 803 q 265 726 265 761 q 277 643 265 690 q 304 540 290 597 q 330 417 318 484 q 342 277 342 351 q 327 150 342 206 q 287 54 312 94 q 349 38 317 46 q 418 24 380 30 q 462 18 439 20 q 508 16 485 16 q 584 23 547 16 q 649 47 621 31 q 694 90 677 63 q 711 157 711 117 q 710 169 711 163 q 709 183 709 176 q 720 199 709 199 q 728 195 724 199 q 738 182 733 191 q 745 157 742 172 q 748 120 748 142 q 744 81 748 103 q 730 36 740 60 q 704 -10 720 13 q 662 -51 687 -33 q 602 -79 637 -68 q 521 -90 567 -90 q 441 -84 482 -90 q 360 -67 401 -77 q 282 -44 320 -57 q 213 -19 245 -31 q 146 -51 182 -39 q 74 -64 110 -64 q 4 -44 28 -64 q -20 5 -20 -25 q 12 60 -20 38 q 114 83 43 83 q 147 81 131 83 q 178 78 163 80 q 206 175 197 121 q 216 286 216 229 q 209 376 216 332 q 195 464 203 420 q 181 552 188 508 q 175 642 175 596 q 193 772 175 712 q 243 874 210 831 q 323 942 277 918 q 429 966 370 966 q 527 950 483 966 q 604 911 572 933 q 656 866 637 888 q 679 832 675 844 q 682 821 680 825 q 683 813 683 817 q 679 802 683 806 q 671 790 675 798 q 661 780 667 783 q 650 775 656 777 q 640 770 645 773 q 632 761 635 768 q 619 746 627 751 q 602 741 611 741 q 583 745 590 741 q 560 763 577 749 q 516 793 543 777 q 455 821 490 808 q 381 833 420 833 m 56 -29 q 100 -18 80 -29 q 138 12 121 -7 q 89 28 108 23 q 55 34 69 34 q 33 30 41 34 q 20 21 24 26 q 15 11 16 16 q 14 1 14 5 q 25 -20 14 -10 q 56 -29 35 -29 z "},"M":{"ha":1018,"x_min":27,"x_max":1079,"o":"m 802 785 q 864 773 840 785 q 902 739 888 761 q 922 686 916 717 q 927 619 927 656 q 924 554 927 589 q 918 484 921 520 q 903 318 909 399 q 897 159 897 237 q 906 1 897 71 q 933 -126 914 -69 q 985 -228 953 -183 q 1063 -310 1017 -273 q 1075 -320 1071 -316 q 1079 -329 1079 -323 q 1067 -338 1079 -338 q 1052 -335 1060 -338 q 955 -283 1005 -317 q 863 -195 905 -250 q 795 -63 822 -141 q 768 120 768 14 q 773 262 768 192 q 784 396 778 333 q 794 511 789 458 q 799 601 799 564 q 795 633 799 621 q 787 650 792 644 q 775 657 782 656 q 762 659 768 659 q 746 653 754 659 q 730 633 738 648 q 714 592 722 618 q 699 526 706 567 q 689 466 694 501 q 676 391 683 431 q 662 309 669 351 q 648 230 654 267 q 636 162 642 193 q 626 115 630 132 q 582 10 609 43 q 515 -23 555 -23 q 468 -9 485 -23 q 441 24 450 4 q 431 69 433 45 q 429 114 429 93 q 432 381 429 250 q 435 644 435 512 q 433 731 435 692 q 421 797 430 770 q 397 838 412 823 q 356 852 381 852 q 315 825 332 852 q 286 750 298 798 q 269 638 275 703 q 260 500 262 574 q 258 396 259 449 q 255 293 257 343 q 250 199 253 243 q 241 119 246 155 q 230 19 237 58 q 219 -41 224 -21 q 205 -66 215 -59 q 182 -75 195 -73 q 157 -77 170 -77 q 134 -81 144 -77 q 111 -85 123 -85 q 91 -80 99 -85 q 83 -61 83 -75 q 84 -53 83 -56 q 90 -18 85 -45 q 100 48 94 9 q 112 132 106 86 q 123 225 118 178 q 131 316 127 272 q 134 394 134 360 q 131 493 134 450 q 121 570 127 536 q 106 630 115 604 q 88 681 98 657 q 69 729 79 705 q 50 782 59 753 q 32 854 37 819 q 27 923 27 890 q 32 986 27 957 q 43 1038 36 1016 q 58 1072 50 1059 q 74 1084 66 1084 q 87 1074 83 1084 q 92 1047 92 1063 q 92 1034 92 1042 q 92 1017 92 1027 q 94 976 92 1000 q 103 920 96 951 q 125 850 111 888 q 163 765 139 811 q 183 725 174 745 q 199 685 192 705 q 232 791 212 747 q 275 867 252 836 q 322 918 298 899 q 369 948 347 938 q 409 963 391 959 q 437 966 427 966 q 486 951 465 966 q 520 908 506 935 q 544 843 535 880 q 558 764 553 806 q 565 676 564 722 q 567 585 567 630 q 564 425 567 492 q 557 308 561 357 q 550 222 553 258 q 547 157 547 186 q 550 146 547 150 q 557 142 553 142 q 569 148 564 142 q 579 175 574 154 q 590 235 584 195 q 608 343 597 275 q 624 454 616 399 q 641 557 631 508 q 662 648 650 606 q 693 720 674 690 q 738 767 711 750 q 802 785 764 785 z "},"N":{"ha":836,"x_min":58,"x_max":894,"o":"m 583 123 q 587 255 583 193 q 596 375 591 317 q 606 490 602 434 q 610 603 610 546 q 604 700 610 654 q 583 780 598 745 q 539 835 567 814 q 469 856 511 856 q 395 835 428 856 q 335 779 361 814 q 290 697 309 743 q 258 601 271 651 q 238 500 245 551 q 231 406 231 450 q 229 341 230 372 q 227 282 229 311 q 214 71 224 149 q 195 -40 203 -8 q 179 -65 190 -58 q 156 -73 169 -72 q 131 -74 144 -75 q 110 -78 119 -74 q 85 -83 98 -83 q 66 -78 74 -83 q 58 -58 58 -72 q 58 -50 58 -54 q 65 -17 60 -43 q 75 44 69 8 q 87 125 81 81 q 99 214 94 169 q 107 302 104 259 q 111 379 111 345 q 110 433 111 397 q 109 516 110 469 q 107 618 109 564 q 102 726 105 672 q 94 830 98 780 q 82 921 89 881 q 90 935 81 928 q 106 950 98 943 q 114 960 111 955 q 119 970 117 966 q 123 978 121 975 q 129 982 125 981 q 147 987 141 986 q 156 990 153 989 q 162 992 159 991 q 171 996 165 993 q 181 1000 176 998 q 189 1002 186 1002 q 208 964 208 1002 q 212 897 210 934 q 217 819 214 864 q 221 716 219 774 q 276 822 245 779 q 337 892 306 865 q 399 935 369 920 q 453 957 429 950 q 490 965 476 964 q 505 966 505 966 q 593 952 555 966 q 657 915 630 939 q 701 858 684 890 q 728 788 718 825 q 742 710 738 751 q 746 629 746 669 q 743 552 746 589 q 737 484 741 515 q 728 398 732 439 q 721 318 724 357 q 716 240 718 279 q 714 159 714 201 q 722 2 714 72 q 749 -125 730 -68 q 800 -228 768 -182 q 878 -309 831 -273 q 890 -319 886 -315 q 894 -328 894 -323 q 882 -337 894 -337 q 867 -334 875 -337 q 770 -282 820 -317 q 678 -193 720 -248 q 610 -60 637 -138 q 583 123 583 18 z "},"O":{"ha":840,"x_min":44,"x_max":796,"o":"m 796 444 q 780 291 796 362 q 737 161 764 220 q 671 57 709 102 q 590 -21 633 11 q 497 -69 546 -52 q 400 -85 449 -85 q 324 -74 364 -85 q 244 -38 283 -62 q 168 23 204 -14 q 104 113 132 61 q 60 233 77 165 q 44 386 44 301 q 59 553 44 470 q 107 713 75 637 q 191 853 140 789 q 314 965 242 918 q 328 969 321 969 q 338 960 338 969 q 334 949 338 954 q 316 931 330 945 q 286 891 303 917 q 248 826 268 865 q 212 731 229 787 q 184 604 195 676 q 174 441 174 532 q 192 249 174 330 q 243 115 211 168 q 320 36 276 62 q 414 11 363 11 q 463 20 436 11 q 516 52 490 30 q 568 109 543 73 q 613 197 593 144 q 644 320 632 250 q 656 483 656 391 q 647 619 656 559 q 625 722 639 678 q 594 795 612 766 q 559 844 577 825 q 524 870 541 862 q 494 878 507 878 q 438 842 459 878 q 418 732 418 806 q 428 616 418 680 q 456 489 437 553 q 501 367 474 425 q 562 269 528 309 q 567 258 567 262 q 545 248 567 248 q 500 260 526 248 q 446 296 474 273 q 390 355 418 320 q 341 435 363 390 q 305 534 319 479 q 292 651 292 588 q 311 776 292 721 q 361 870 330 831 q 432 928 393 908 q 512 948 472 948 q 573 936 541 948 q 637 899 606 924 q 697 834 669 874 q 748 739 726 795 q 783 610 770 683 q 796 444 796 536 z "},"P":{"ha":839,"x_min":14,"x_max":825,"o":"m 322 750 q 341 774 329 765 q 369 783 353 783 q 383 780 374 783 q 392 769 392 777 q 391 759 392 764 q 389 747 390 755 q 367 630 376 690 q 351 513 358 570 q 340 402 345 455 q 333 303 336 349 q 330 223 331 258 q 329 167 329 188 q 329 98 329 133 q 328 32 328 62 q 328 -23 328 1 q 328 -57 328 -47 q 328 -64 328 -60 q 326 -74 328 -69 q 322 -81 325 -78 q 313 -85 319 -85 q 297 -81 304 -85 q 283 -74 290 -78 q 270 -66 276 -69 q 257 -62 263 -62 q 245 -67 250 -62 q 233 -72 240 -72 q 220 -68 225 -72 q 214 -58 216 -64 q 211 -45 212 -52 q 211 -33 211 -38 q 211 8 211 -20 q 213 71 212 36 q 215 144 214 106 q 218 216 216 182 q 223 301 220 256 q 230 391 226 346 q 238 478 234 435 q 247 555 243 520 q 253 614 250 590 q 258 648 256 639 q 268 699 262 678 q 279 728 273 720 q 290 739 283 734 q 304 746 296 743 q 322 750 312 750 m 416 858 q 313 847 366 858 q 218 813 261 837 q 148 750 176 789 q 121 654 121 711 q 128 597 121 624 q 146 547 136 570 q 166 509 156 525 q 182 486 176 493 q 189 476 186 481 q 191 467 191 471 q 187 457 191 461 q 171 453 182 453 q 128 464 155 453 q 76 498 101 475 q 32 557 50 522 q 14 642 14 593 q 27 714 14 677 q 67 788 41 751 q 131 857 93 824 q 219 913 170 889 q 327 952 268 938 q 456 967 387 967 q 617 938 548 967 q 732 859 686 908 q 802 747 779 810 q 825 614 825 683 q 797 460 825 529 q 713 344 768 392 q 581 270 659 296 q 405 243 503 243 q 389 243 397 243 q 373 244 380 243 q 362 250 366 246 q 357 262 357 254 q 361 276 357 269 q 373 283 366 283 q 520 315 460 290 q 616 379 580 340 q 668 470 652 418 q 684 580 684 521 q 663 707 684 654 q 606 794 642 760 q 520 843 569 827 q 416 858 471 858 z "},"Q":{"ha":840,"x_min":44,"x_max":796,"o":"m 174 441 q 191 253 174 333 q 240 120 209 173 q 312 40 271 67 q 402 11 354 14 q 340 108 369 55 q 291 224 312 161 q 257 362 269 288 q 245 523 245 436 q 257 655 245 596 q 291 758 270 713 q 340 836 313 803 q 397 888 368 868 q 457 919 427 909 q 514 928 488 928 q 575 917 543 928 q 638 882 607 906 q 699 820 670 858 q 749 728 727 781 q 783 604 770 674 q 796 444 796 533 q 779 283 796 357 q 730 149 761 209 q 659 42 700 88 q 570 -34 617 -4 q 673 -146 621 -100 q 774 -226 726 -193 q 785 -245 785 -234 q 781 -256 785 -252 q 768 -261 776 -261 q 755 -259 760 -261 q 747 -256 750 -257 q 700 -232 729 -246 q 635 -195 671 -217 q 558 -144 599 -174 q 478 -75 518 -114 q 439 -83 458 -80 q 400 -85 420 -85 q 324 -74 364 -85 q 244 -38 283 -62 q 168 23 204 -14 q 104 113 132 61 q 60 233 77 165 q 44 386 44 301 q 59 553 44 470 q 107 713 75 637 q 191 853 140 789 q 314 965 242 918 q 328 969 321 969 q 338 960 338 969 q 334 949 338 954 q 316 931 330 945 q 286 891 303 917 q 248 826 268 865 q 212 731 229 787 q 184 604 195 676 q 174 441 174 532 m 495 859 q 452 847 475 859 q 409 807 429 836 q 375 730 389 779 q 362 610 362 682 q 368 512 362 564 q 383 406 373 460 q 408 299 393 353 q 441 198 423 246 q 475 119 457 156 q 513 49 494 83 q 566 105 541 70 q 612 194 592 141 q 644 318 631 247 q 656 483 656 389 q 638 665 656 593 q 595 781 621 738 q 542 842 570 824 q 495 859 515 859 z "},"R":{"ha":857,"x_min":20,"x_max":970,"o":"m 329 750 q 348 774 336 765 q 376 783 360 783 q 390 780 381 783 q 399 769 399 777 q 398 759 399 764 q 395 747 397 755 q 376 646 385 697 q 362 544 368 595 q 351 446 355 494 q 343 355 346 397 q 395 351 367 355 q 456 330 423 347 q 567 367 522 342 q 640 427 612 392 q 680 506 668 462 q 692 603 692 551 q 673 718 692 669 q 620 798 654 766 q 538 845 585 830 q 437 861 492 861 q 324 850 380 861 q 225 814 269 839 q 154 751 181 790 q 127 654 127 711 q 135 597 127 624 q 153 547 142 570 q 173 509 163 525 q 189 486 183 493 q 195 477 193 481 q 198 467 198 473 q 194 457 198 461 q 178 453 189 453 q 135 464 161 453 q 82 498 108 475 q 39 557 57 522 q 20 642 20 593 q 33 714 20 677 q 72 787 46 751 q 136 856 98 823 q 225 913 174 888 q 339 952 276 937 q 477 966 401 966 q 632 939 566 966 q 744 867 699 912 q 811 763 789 822 q 833 639 833 703 q 806 500 833 559 q 734 398 779 441 q 635 327 690 355 q 523 281 579 298 q 592 201 555 251 q 669 77 628 152 q 720 -16 693 31 q 779 -105 746 -64 q 854 -178 812 -146 q 949 -224 895 -210 q 965 -231 961 -227 q 970 -237 970 -234 q 959 -247 970 -245 q 935 -248 949 -248 q 881 -245 913 -248 q 808 -231 848 -243 q 725 -195 768 -220 q 640 -128 682 -171 q 587 -62 609 -97 q 549 8 566 -27 q 518 79 532 44 q 489 147 504 115 q 456 208 474 180 q 413 257 438 236 q 373 252 392 254 q 338 250 354 251 q 336 202 336 224 q 336 167 336 181 q 335 98 336 133 q 335 32 335 62 q 335 -23 335 1 q 334 -57 334 -47 q 334 -64 334 -60 q 333 -74 334 -69 q 329 -81 332 -78 q 320 -85 326 -85 q 304 -81 311 -85 q 290 -74 296 -78 q 276 -66 283 -69 q 264 -62 270 -62 q 252 -67 256 -62 q 240 -72 247 -72 q 227 -68 232 -72 q 220 -58 222 -64 q 218 -45 218 -52 q 218 -33 218 -38 q 218 8 218 -20 q 219 71 218 36 q 222 144 220 106 q 224 216 223 182 l 227 258 q 185 271 200 263 q 171 289 171 279 q 187 314 171 300 q 232 337 203 327 q 241 440 236 389 q 251 534 246 491 q 259 607 255 576 q 264 648 262 637 q 274 699 269 678 q 286 728 279 720 q 297 739 290 734 q 311 746 302 743 q 329 750 319 750 z "},"S":{"ha":722,"x_min":58,"x_max":708,"o":"m 703 852 q 708 833 708 839 q 704 822 708 825 q 696 810 701 819 q 688 799 693 802 q 678 793 683 796 q 668 788 673 791 q 661 778 663 785 q 647 761 656 766 q 627 755 637 755 q 605 761 616 755 q 582 776 595 767 q 554 795 570 785 q 515 814 538 806 q 460 829 492 823 q 387 835 429 835 q 278 818 326 835 q 189 757 229 800 q 149 697 161 728 q 136 637 136 666 q 148 591 136 612 q 180 554 159 571 q 228 524 200 538 q 287 497 255 510 q 352 471 318 484 q 420 443 387 458 q 511 394 471 420 q 578 334 551 367 q 621 264 606 302 q 636 182 636 226 q 616 76 636 125 q 556 -12 597 26 q 454 -71 515 -49 q 309 -93 393 -93 q 207 -79 251 -93 q 133 -45 163 -64 q 85 -6 102 -26 q 63 24 68 13 q 59 36 60 31 q 58 45 58 41 q 61 56 58 52 q 71 71 64 59 q 79 78 74 75 q 89 82 83 80 q 98 88 94 85 q 106 98 103 92 q 138 121 117 121 q 161 113 150 121 q 186 94 172 105 q 217 68 199 82 q 258 43 234 54 q 312 23 281 31 q 385 16 343 16 q 471 26 436 16 q 528 54 507 36 q 559 96 549 72 q 568 149 568 121 q 555 210 568 184 q 518 256 542 236 q 463 291 495 275 q 391 321 430 306 q 308 352 352 336 q 219 389 264 368 q 153 425 183 405 q 102 470 123 445 q 69 527 81 495 q 58 598 58 558 q 72 693 58 646 q 113 780 87 739 q 177 856 140 821 q 258 916 214 890 q 352 955 302 941 q 456 969 402 969 q 559 955 515 969 q 635 921 604 940 q 682 882 665 901 q 703 852 699 863 z "},"T":{"ha":718,"x_min":17,"x_max":826,"o":"m 820 924 q 814 911 819 916 q 805 902 810 907 q 796 892 800 897 q 791 880 791 888 q 774 855 789 865 q 741 845 760 845 q 687 847 725 845 q 600 849 649 849 q 489 845 546 849 q 378 833 432 842 q 275 810 323 824 q 191 774 227 795 q 134 725 155 753 q 113 661 113 697 q 125 596 113 627 q 153 538 137 564 q 185 492 169 512 q 212 464 202 473 q 218 451 218 458 q 184 437 218 437 q 159 441 175 437 q 125 452 143 444 q 87 475 106 460 q 52 511 68 489 q 27 562 37 532 q 17 633 17 592 q 46 746 17 691 q 126 844 76 800 q 245 917 177 888 q 389 956 313 947 q 463 966 425 962 q 537 973 500 970 q 608 977 574 976 q 671 979 642 979 q 757 975 726 979 q 803 966 788 971 q 822 954 819 960 q 826 942 826 947 q 824 934 826 938 q 820 924 821 930 m 521 806 q 519 766 521 801 q 516 678 518 732 q 510 557 513 625 q 504 417 507 489 q 498 276 501 346 q 493 148 495 206 q 489 48 490 90 q 488 -6 488 7 q 486 -21 488 -14 q 479 -36 484 -29 q 466 -49 475 -43 q 444 -57 458 -54 q 421 -64 431 -59 q 404 -75 412 -69 q 390 -84 396 -80 q 378 -88 384 -88 q 374 -85 375 -88 q 372 -78 372 -82 q 371 -69 371 -73 q 371 -61 371 -64 q 375 80 372 -19 q 379 181 376 122 q 385 318 381 239 q 393 498 389 397 q 404 725 398 599 q 415 776 406 755 q 449 802 425 796 q 471 811 461 804 q 489 824 481 817 q 503 836 497 831 q 513 842 509 842 q 520 831 519 842 q 521 806 521 821 z "},"U":{"ha":1042,"x_min":20,"x_max":998,"o":"m 872 102 q 877 62 872 78 q 889 36 882 45 q 907 22 897 26 q 927 18 917 18 q 947 22 938 18 q 965 32 957 26 q 979 41 972 37 q 989 45 985 45 q 998 35 998 45 q 994 22 998 29 q 974 -3 985 12 q 946 -31 962 -18 q 911 -53 930 -44 q 869 -62 892 -62 q 816 -46 837 -62 q 783 -5 795 -30 q 766 48 771 20 q 762 102 762 77 l 762 113 q 721 34 743 66 q 676 -21 699 1 q 632 -55 654 -43 q 590 -74 610 -67 q 556 -81 571 -80 q 532 -83 541 -83 q 445 -64 486 -83 q 371 -8 403 -45 q 320 85 339 29 q 301 216 301 141 q 310 333 301 271 q 331 460 319 395 q 351 594 342 526 q 360 732 360 663 q 352 807 360 776 q 330 858 344 838 q 300 887 317 878 q 264 896 283 896 q 218 884 241 896 q 177 847 195 872 q 146 785 158 823 q 135 694 135 747 q 147 609 135 646 q 174 546 159 572 q 203 505 189 519 q 222 488 217 490 q 228 482 225 485 q 231 475 231 479 q 210 467 231 467 q 186 469 203 467 q 149 480 170 472 q 105 504 127 489 q 63 543 82 519 q 33 602 45 567 q 20 684 20 636 q 42 790 20 739 q 100 880 64 841 q 184 941 136 918 q 283 964 231 964 q 358 951 322 964 q 423 909 395 938 q 468 836 451 881 q 484 726 484 791 q 476 602 484 663 q 458 479 468 540 q 439 357 448 418 q 431 235 431 296 q 442 129 431 171 q 470 62 452 87 q 512 27 488 37 q 563 17 536 17 q 636 33 604 17 q 693 77 669 50 q 736 142 718 105 q 766 221 754 179 q 771 257 767 227 q 780 331 774 286 q 791 430 785 375 q 803 543 797 486 q 816 654 810 600 q 828 753 823 709 q 839 825 834 796 q 846 857 843 853 q 855 865 847 860 q 885 869 863 869 q 890 869 887 869 q 895 869 892 869 q 902 874 899 869 q 911 887 906 880 q 925 900 917 895 q 945 906 933 906 q 956 903 951 906 q 960 894 960 901 l 958 882 q 952 840 957 873 q 941 755 947 806 q 927 641 935 705 q 912 511 920 578 q 897 379 905 445 q 884 258 890 313 q 876 161 879 202 q 872 102 872 119 z "},"V":{"ha":992,"x_min":20,"x_max":972,"o":"m 971 897 q 971 887 971 895 q 972 865 972 878 q 969 781 972 834 q 954 659 966 727 q 919 513 942 591 q 854 357 895 435 q 805 262 832 313 q 739 160 777 212 q 649 56 701 108 q 525 -43 597 4 q 458 -77 486 -68 q 410 -86 431 -86 q 383 -82 394 -86 q 365 -71 372 -77 q 355 -56 358 -64 q 351 -41 351 -48 q 355 55 351 -13 q 359 221 359 122 q 349 491 359 339 q 310 817 339 642 q 308 825 309 823 q 302 827 307 827 l 295 827 q 212 801 245 818 q 158 761 178 784 q 130 712 138 739 q 122 659 122 686 q 132 592 122 623 q 156 537 142 562 q 187 493 171 512 q 215 463 203 475 q 222 452 222 456 q 191 438 222 438 q 169 440 184 438 q 135 449 153 442 q 96 469 116 456 q 59 504 75 482 q 31 557 42 526 q 20 632 20 588 q 48 748 20 692 q 125 849 77 804 q 238 925 174 894 q 375 966 302 956 q 397 968 388 968 q 422 961 414 968 q 432 939 430 954 q 465 595 456 753 q 473 315 473 437 q 472 207 473 256 q 469 120 471 157 q 466 58 467 83 q 465 22 465 33 q 469 12 465 16 q 481 7 473 7 q 532 27 505 7 q 588 82 559 47 q 646 168 616 118 q 702 279 675 218 q 752 408 728 339 q 793 550 776 477 q 810 635 802 589 q 821 727 816 675 q 826 838 826 779 q 823 899 826 875 q 821 935 821 923 q 841 968 823 968 q 849 967 844 968 q 859 962 853 965 q 876 957 869 958 q 889 954 883 955 q 900 952 895 954 q 910 949 905 951 q 918 943 915 947 q 922 935 920 939 q 927 925 924 930 q 934 916 929 920 q 944 909 939 911 q 956 907 950 908 q 965 904 961 906 q 971 897 970 902 z "},"W":{"ha":1286,"x_min":20,"x_max":1259,"o":"m 465 17 q 475 5 465 5 q 507 18 486 5 q 554 61 528 31 q 644 200 609 125 q 699 357 679 276 q 726 520 719 437 q 733 680 733 602 q 728 804 733 737 q 705 935 722 871 q 705 944 703 938 q 708 955 706 949 q 715 964 711 960 q 724 968 719 968 q 732 966 728 968 q 742 962 736 964 q 780 955 764 955 q 807 949 796 954 q 821 934 817 943 q 832 915 825 924 q 841 910 835 911 q 852 907 846 909 q 863 904 859 906 q 868 896 867 901 q 870 863 869 884 q 871 802 871 842 q 867 677 871 748 q 847 526 863 606 q 838 424 842 478 q 830 315 833 369 q 825 210 827 260 q 822 118 823 159 q 820 51 821 78 q 819 17 819 24 q 829 5 819 5 q 866 18 841 5 q 920 61 891 31 q 1016 203 978 125 q 1075 364 1053 281 q 1105 528 1097 446 q 1114 680 1114 610 q 1114 740 1114 709 q 1112 805 1114 772 q 1107 870 1111 838 q 1096 935 1103 903 q 1097 946 1095 940 q 1104 957 1100 951 q 1115 965 1109 962 q 1126 968 1120 968 q 1134 967 1129 968 q 1143 963 1138 965 q 1162 958 1154 960 q 1176 955 1170 956 q 1188 952 1183 954 q 1199 949 1194 951 q 1212 934 1208 943 q 1223 915 1216 924 q 1232 910 1226 911 q 1242 907 1237 909 q 1252 904 1248 906 q 1257 896 1256 901 q 1259 863 1258 884 q 1259 802 1259 842 q 1256 720 1259 770 q 1242 609 1252 669 q 1217 484 1233 549 q 1177 356 1201 418 q 1142 273 1163 321 q 1089 171 1122 224 q 1009 64 1057 118 q 893 -36 961 10 q 861 -56 878 -46 q 829 -72 845 -65 q 797 -83 812 -79 q 769 -87 782 -87 q 744 -82 754 -87 q 728 -71 734 -77 q 719 -56 722 -64 q 716 -41 716 -48 q 717 -13 716 -33 q 719 38 718 7 q 722 105 720 68 q 726 185 724 143 q 648 73 695 130 q 528 -36 601 16 q 497 -56 514 -46 q 464 -72 481 -65 q 432 -83 448 -79 q 404 -87 416 -87 q 379 -82 389 -87 q 363 -71 369 -77 q 354 -56 357 -64 q 351 -41 351 -48 q 355 55 351 -13 q 359 221 359 122 q 349 491 359 339 q 310 817 339 642 q 308 825 309 823 q 302 827 307 827 l 295 827 q 212 801 245 818 q 158 761 178 784 q 130 712 138 739 q 122 659 122 686 q 132 592 122 623 q 156 537 142 562 q 187 493 171 512 q 215 463 203 475 q 222 452 222 456 q 191 438 222 438 q 169 440 184 438 q 135 449 153 442 q 96 469 116 456 q 59 504 75 482 q 31 557 42 526 q 20 632 20 588 q 48 748 20 692 q 125 849 77 804 q 238 925 174 894 q 375 966 302 956 q 397 968 388 968 q 422 961 414 968 q 432 939 430 954 q 465 595 456 753 q 473 315 473 437 q 472 206 473 256 q 469 118 471 156 q 466 54 467 79 q 465 17 465 28 z "},"X":{"ha":1019,"x_min":20,"x_max":1087,"o":"m 1075 -207 q 1087 -224 1087 -215 q 1074 -235 1087 -235 q 1060 -232 1067 -235 q 919 -159 982 -205 q 804 -50 857 -113 q 705 96 751 14 q 617 276 660 177 q 508 149 561 208 q 410 42 454 89 q 335 -35 366 -4 q 290 -75 303 -65 q 267 -88 279 -84 q 245 -92 254 -92 q 225 -87 233 -92 q 218 -74 218 -82 q 228 -54 218 -66 q 273 -8 239 -42 q 355 81 307 26 q 461 208 403 135 q 578 368 519 280 q 535 480 557 422 q 490 600 513 538 q 441 734 462 676 q 400 829 420 791 q 357 887 380 867 q 300 906 334 906 q 232 890 262 906 q 180 846 201 874 q 148 780 159 818 q 136 696 136 741 q 145 614 136 650 q 169 550 155 578 q 199 502 182 522 q 232 468 216 481 q 260 446 248 454 q 278 433 273 437 q 291 416 291 424 q 278 408 291 408 q 176 427 223 408 q 94 478 129 445 q 40 558 60 511 q 20 661 20 604 q 42 790 20 733 q 103 886 64 847 q 194 945 142 925 q 306 966 246 966 q 386 956 349 966 q 456 922 423 947 q 517 856 488 898 q 574 747 547 813 q 617 640 593 701 q 667 509 641 578 q 741 642 710 582 q 795 752 772 703 q 834 842 818 802 q 865 916 851 882 q 885 952 876 941 q 904 964 895 964 q 914 961 908 964 q 923 959 920 959 q 928 961 926 959 q 939 964 930 964 q 952 960 948 964 q 959 951 957 956 q 963 943 962 947 q 968 939 965 939 q 977 941 972 939 q 984 946 981 943 q 992 952 988 949 q 1001 955 996 955 q 1017 947 1011 955 q 1023 928 1023 940 q 1021 916 1023 922 q 1010 889 1021 913 q 980 825 999 865 q 932 733 960 785 q 870 625 905 682 q 796 508 836 568 q 711 393 755 448 q 754 279 732 334 q 795 178 776 224 q 847 67 819 118 q 906 -25 876 16 q 964 -99 935 -66 q 1015 -154 992 -131 q 1054 -190 1038 -177 q 1075 -207 1070 -203 z "},"Y":{"ha":1034,"x_min":20,"x_max":959,"o":"m 876 27 q 861 -72 871 -24 q 892 -82 878 -77 q 921 -92 907 -87 q 934 -106 934 -98 q 930 -115 934 -111 q 920 -118 926 -118 q 898 -115 916 -118 q 852 -107 880 -111 q 803 -221 834 -171 q 731 -308 772 -271 q 639 -370 690 -345 q 529 -410 588 -395 q 456 -420 491 -420 q 388 -405 419 -420 q 334 -366 357 -391 q 298 -311 311 -342 q 286 -245 286 -279 q 307 -165 286 -205 q 380 -96 329 -126 q 506 -47 441 -60 q 630 -35 571 -35 q 749 -45 693 -35 q 756 -9 753 -27 q 760 29 759 9 q 764 75 762 49 q 769 128 766 96 q 776 201 772 160 q 726 112 755 149 q 666 53 698 76 q 602 20 635 31 q 540 10 569 10 q 452 30 494 10 q 379 90 411 50 q 330 187 348 129 q 311 321 311 245 q 319 421 311 366 q 336 534 327 477 q 354 644 346 591 q 361 737 361 697 q 354 810 361 780 q 334 859 347 840 q 303 887 321 878 q 264 896 286 896 q 218 884 241 896 q 177 847 195 872 q 146 785 158 823 q 135 694 135 747 q 148 609 136 646 q 175 547 159 572 q 204 506 190 521 q 222 488 218 492 q 231 475 231 481 q 227 468 231 470 q 212 465 222 465 q 189 468 205 465 q 152 479 173 471 q 107 503 130 488 q 65 543 84 518 q 33 602 45 567 q 20 684 20 636 q 42 790 20 739 q 100 880 64 841 q 184 941 136 918 q 283 964 231 964 q 358 951 323 964 q 421 910 394 938 q 464 841 448 883 q 479 743 479 800 q 473 643 479 694 q 458 537 467 591 q 444 427 450 484 q 437 312 437 371 q 446 217 437 256 q 470 154 454 178 q 509 119 486 130 q 561 108 532 108 q 628 118 595 108 q 688 153 661 129 q 737 217 716 178 q 770 314 758 256 q 774 346 771 320 q 782 411 777 372 q 792 497 787 450 q 803 593 798 545 q 815 689 809 642 q 826 772 821 735 q 836 832 831 809 q 842 859 840 856 q 850 864 844 861 q 863 868 855 866 q 884 869 871 869 q 889 869 886 869 q 895 869 892 869 q 902 874 899 869 q 911 887 906 880 q 925 900 917 895 q 945 906 933 906 q 959 890 959 906 l 958 882 q 953 844 957 873 q 945 771 949 815 q 934 669 940 726 q 921 547 928 611 q 908 413 915 482 q 896 277 902 345 q 885 145 890 209 q 876 27 880 81 m 435 -340 q 513 -327 470 -340 q 597 -285 555 -314 q 676 -210 640 -256 q 735 -96 713 -163 q 719 -96 727 -96 q 702 -96 710 -96 q 642 -98 673 -96 q 578 -108 611 -100 q 495 -137 536 -117 q 423 -182 454 -157 q 372 -235 391 -208 q 353 -286 353 -262 q 373 -325 353 -310 q 435 -340 393 -340 z "},"Z":{"ha":781,"x_min":31,"x_max":743,"o":"m 428 967 q 544 950 487 967 q 645 892 600 932 q 716 784 689 851 q 743 618 743 718 q 725 483 743 544 q 677 374 707 422 q 607 287 647 325 q 523 220 567 249 q 433 170 479 191 q 347 134 388 149 q 407 130 376 134 q 466 116 437 125 q 521 91 495 106 q 566 52 547 75 q 597 -1 586 29 q 608 -71 608 -32 q 642 -82 627 -77 q 668 -94 656 -88 q 680 -107 680 -100 q 676 -115 680 -112 q 665 -119 673 -119 q 652 -117 662 -119 q 635 -113 643 -115 l 604 -107 q 574 -190 596 -150 q 519 -264 551 -229 q 447 -327 487 -298 q 365 -377 408 -356 q 279 -409 323 -397 q 197 -420 236 -420 q 133 -405 163 -420 q 80 -366 103 -391 q 44 -311 58 -342 q 31 -246 31 -279 q 52 -165 31 -205 q 125 -97 74 -126 q 249 -49 185 -62 q 376 -35 313 -35 q 434 -38 406 -35 q 489 -44 462 -40 q 474 24 487 -3 q 441 66 462 51 q 395 88 421 82 q 338 94 368 94 q 292 92 315 94 q 247 86 268 89 q 209 80 225 83 q 186 78 193 78 q 167 82 176 78 q 159 96 159 86 q 164 108 159 103 q 182 118 169 113 q 243 140 204 127 q 329 176 283 153 q 422 235 375 199 q 509 322 470 270 q 572 445 547 374 q 596 611 596 515 q 578 749 596 694 q 533 836 561 804 q 470 880 505 867 q 402 892 435 892 q 327 874 366 892 q 254 817 287 857 q 199 712 220 777 q 177 555 177 648 q 182 479 177 513 q 193 418 186 445 q 208 371 200 391 q 222 340 216 352 q 228 331 226 335 q 230 323 230 326 q 216 312 230 312 q 201 315 212 312 q 182 326 195 317 q 151 350 168 334 q 116 387 134 365 q 83 439 98 410 q 58 507 68 469 q 49 591 49 545 q 66 706 49 654 q 113 801 83 759 q 181 873 142 842 q 261 926 219 905 q 346 957 303 947 q 428 967 389 967 m 159 -332 q 216 -325 184 -332 q 281 -303 248 -317 q 348 -270 315 -290 q 409 -223 381 -250 q 457 -165 437 -197 q 485 -96 477 -134 q 466 -96 475 -96 q 448 -96 457 -96 q 385 -98 416 -96 q 323 -107 353 -101 q 240 -137 281 -117 q 168 -182 199 -157 q 117 -235 136 -208 q 98 -286 98 -262 q 111 -318 98 -304 q 159 -332 123 -332 z "},"a":{"ha":356,"x_min":-28,"x_max":379,"o":"m 378 236 q 340 129 357 175 q 304 53 322 83 q 267 6 287 22 q 222 -9 247 -9 q 194 1 205 -9 q 176 26 183 12 q 164 52 168 39 q 159 68 161 64 q 158 73 159 70 q 156 75 157 75 q 154 73 155 75 q 151 69 153 71 q 140 52 149 64 q 118 25 132 39 q 88 1 105 12 q 52 -9 71 -9 q 21 1 36 -9 q -4 28 7 11 q -21 69 -15 45 q -28 120 -28 93 q -9 231 -28 179 q 52 335 9 283 q 95 380 72 360 q 139 413 117 399 q 181 433 161 426 q 215 439 201 439 q 234 436 224 439 q 251 425 243 433 q 263 403 258 416 q 267 371 267 390 q 261 327 267 351 q 242 282 254 303 q 211 248 229 262 q 170 235 193 235 q 155 245 155 235 q 159 270 155 253 q 163 302 163 287 q 162 317 163 309 q 159 334 161 326 q 151 347 156 342 q 138 353 146 353 q 106 336 120 353 q 84 294 93 319 q 70 243 75 270 q 65 198 65 217 q 69 155 65 172 q 80 127 73 138 q 96 112 87 117 q 114 108 104 108 q 154 123 136 108 q 184 157 172 138 q 206 191 197 176 q 220 206 214 206 q 228 192 226 206 q 237 142 232 161 q 246 111 241 122 q 256 95 251 100 q 267 91 261 91 q 287 103 277 91 q 307 135 297 115 q 328 182 317 155 q 351 240 339 210 q 369 257 359 257 q 379 245 379 257 q 378 236 379 240 z "},"b":{"ha":387,"x_min":0,"x_max":410,"o":"m 400 257 q 407 254 404 257 q 410 245 410 252 q 408 234 410 240 q 361 173 392 193 q 294 153 330 153 l 292 153 q 265 90 281 119 q 228 38 249 60 q 179 3 206 16 q 121 -10 153 -10 q 72 1 92 -10 q 38 33 52 13 q 17 77 25 52 q 6 130 9 102 q 1 184 2 157 q 0 235 0 211 q 2 296 0 256 q 6 386 3 336 q 15 492 9 436 q 26 600 20 547 q 39 690 33 653 q 49 752 44 726 q 60 797 54 779 q 72 831 65 814 q 81 847 76 841 q 93 859 86 853 q 107 870 100 864 q 125 885 115 876 q 153 908 142 902 q 172 914 165 914 q 184 894 184 914 q 184 883 184 888 q 182 873 183 878 q 169 815 177 853 q 152 728 161 778 q 134 616 143 677 q 116 488 124 555 q 104 349 109 420 q 99 206 99 277 q 103 134 99 163 q 113 85 106 104 q 129 58 119 66 q 149 50 138 50 q 176 60 165 50 q 196 88 188 71 q 210 129 204 106 q 218 178 215 152 q 181 210 198 191 q 153 251 165 229 q 135 296 141 273 q 128 340 128 319 q 134 381 128 361 q 152 415 140 400 q 182 438 164 430 q 223 447 199 447 q 260 438 243 447 q 291 413 277 430 q 311 371 304 396 q 319 311 319 345 q 315 249 319 281 q 302 184 311 217 q 349 201 328 186 q 380 240 370 216 q 400 257 387 257 m 207 240 q 214 230 210 235 q 220 220 217 225 q 221 233 221 227 q 221 245 221 239 q 218 302 221 279 q 209 340 214 326 q 196 362 203 355 q 180 371 189 369 q 171 339 171 359 q 182 289 171 315 q 207 240 193 262 z "},"c":{"ha":319,"x_min":-23,"x_max":342,"o":"m 333 257 q 342 245 342 257 q 340 234 342 241 q 318 180 330 205 q 296 136 307 155 q 273 95 284 114 q 241 51 259 71 q 203 17 224 31 q 160 -6 183 2 q 110 -15 136 -15 q 67 -8 90 -15 q 24 17 44 -1 q -9 67 4 35 q -23 151 -23 100 q -7 240 -23 191 q 46 335 9 288 q 94 386 70 366 q 140 418 118 406 q 181 435 162 430 q 214 439 200 439 q 233 436 224 439 q 250 424 243 432 q 262 402 258 416 q 267 371 267 389 q 261 329 267 351 q 243 288 256 308 q 223 262 234 272 q 201 245 212 252 q 182 237 191 239 q 169 235 174 235 q 155 246 155 235 q 159 269 155 254 q 163 306 163 285 q 162 318 163 311 q 160 334 162 326 q 153 347 157 341 q 140 353 148 353 q 119 343 130 353 q 98 315 108 334 q 77 257 82 288 q 72 202 72 227 q 76 156 72 181 q 91 109 81 131 q 117 72 100 87 q 157 58 133 58 q 211 78 187 58 q 255 126 235 98 q 289 186 274 155 q 315 240 304 218 q 333 257 323 257 z "},"d":{"ha":418,"x_min":-28,"x_max":442,"o":"m 432 257 q 439 254 436 257 q 442 245 442 252 q 440 236 442 243 q 406 141 422 183 q 374 68 390 99 q 335 11 357 33 q 277 -11 313 -11 q 249 -6 263 -11 q 224 13 235 -1 q 203 49 212 26 q 189 107 193 72 q 164 64 178 85 q 135 25 151 42 q 99 -2 119 8 q 56 -13 79 -13 q 23 -2 38 -13 q -4 30 7 9 q -21 77 -15 50 q -28 139 -28 105 q -21 210 -28 175 q -3 276 -15 244 q 25 334 8 307 q 61 380 41 361 q 127 430 95 414 q 183 446 159 446 q 189 446 186 446 q 195 446 191 446 q 200 516 197 479 q 208 595 203 553 q 220 684 215 648 q 231 747 226 721 q 242 792 236 773 q 256 827 248 810 q 266 844 260 837 q 278 856 272 850 q 293 868 285 861 q 310 884 300 874 q 339 908 327 901 q 357 915 351 915 q 370 911 365 915 q 375 897 375 907 q 374 889 375 893 q 372 880 374 885 q 363 845 370 871 q 350 782 357 819 q 334 699 342 745 q 319 603 326 652 q 306 489 312 546 q 297 380 300 433 q 291 281 293 328 q 289 199 289 235 q 291 156 289 176 q 296 121 292 136 q 308 98 300 106 q 325 90 315 90 q 346 99 336 90 q 366 129 356 109 q 388 176 376 148 q 414 240 399 204 q 432 257 420 257 m 189 363 q 163 392 189 392 q 126 378 144 392 q 95 340 109 365 q 73 282 81 316 q 65 208 65 248 q 79 135 65 163 q 122 106 93 106 q 150 115 138 106 q 169 140 161 125 q 179 172 176 155 q 184 205 183 189 q 185 251 184 228 q 186 294 185 273 q 187 333 186 315 q 189 363 188 351 z "},"e":{"ha":319,"x_min":-23,"x_max":343,"o":"m 333 257 q 340 254 337 257 q 343 246 343 252 q 341 236 343 241 q 319 182 331 208 q 297 138 307 157 q 273 96 285 115 q 242 53 259 73 q 204 18 224 33 q 160 -6 184 3 q 110 -15 136 -15 q 67 -8 90 -15 q 23 17 43 -1 q -10 67 3 35 q -23 149 -23 99 q -19 196 -23 172 q -6 241 -14 220 q 11 282 1 263 q 31 315 21 301 q 68 361 49 340 q 108 398 88 382 q 147 423 128 414 q 182 432 166 432 q 228 412 208 432 q 247 356 247 393 q 231 290 247 324 q 190 223 214 256 q 138 163 165 191 q 87 117 110 135 q 118 72 99 86 q 157 58 137 58 q 211 77 187 58 q 255 125 235 97 q 289 185 274 154 q 315 240 303 216 q 323 253 319 248 q 333 257 327 257 m 69 224 q 75 154 69 184 q 103 185 89 168 q 128 220 117 202 q 146 258 139 239 q 153 294 153 277 q 142 336 153 321 q 119 351 130 351 q 103 343 112 351 q 87 318 95 334 q 74 278 79 302 q 69 224 69 255 z "},"f":{"ha":269,"x_min":-37,"x_max":298,"o":"m 291 236 q 240 117 266 166 q 189 41 215 68 q 209 -9 201 22 q 219 -70 216 -40 q 222 -122 222 -100 q 223 -149 223 -145 q 215 -261 222 -214 q 194 -342 208 -309 q 163 -397 181 -375 q 123 -433 145 -418 q 93 -451 110 -443 q 63 -458 77 -458 q 29 -448 47 -458 q -3 -417 12 -437 q -27 -366 -18 -396 q -37 -297 -37 -336 q -33 -209 -36 -260 q -26 -95 -31 -157 q -16 35 -22 -33 q -3 172 -9 103 q 10 306 3 240 q 23 428 17 372 q 36 529 30 485 q 45 600 41 574 q 68 714 57 669 q 91 788 79 760 q 114 831 102 817 q 137 853 125 846 q 162 866 149 861 q 187 878 174 870 q 221 896 206 889 q 248 902 235 902 q 266 898 256 902 q 282 883 275 894 q 293 852 289 871 q 298 804 298 833 q 290 706 298 761 q 268 593 282 650 q 232 472 253 533 q 186 355 210 412 q 138 247 163 298 q 94 156 114 196 q 81 -6 87 79 q 69 -186 75 -91 q 66 -242 68 -214 q 64 -294 64 -269 q 71 -358 64 -332 q 94 -383 77 -383 q 123 -365 112 -383 q 142 -315 135 -346 q 152 -247 149 -285 q 155 -170 155 -208 q 151 -83 155 -125 q 138 -7 148 -40 q 133 6 136 1 q 127 18 130 12 q 120 28 123 22 q 117 39 117 34 q 124 57 117 49 q 144 66 130 66 q 162 75 152 68 q 184 93 172 81 q 221 148 201 110 q 264 240 241 186 q 273 253 268 249 q 283 257 278 256 q 292 245 292 257 q 292 241 292 243 q 291 236 292 239 m 145 623 q 129 490 140 578 q 104 273 117 401 q 159 421 132 340 q 203 593 186 503 q 223 719 218 670 q 229 795 229 767 q 228 825 229 814 q 223 843 226 836 q 217 851 220 849 q 211 853 214 853 q 197 841 204 853 q 184 809 191 829 q 171 764 177 789 q 160 713 165 739 q 151 664 155 688 q 145 623 147 640 z "},"g":{"ha":335,"x_min":-28,"x_max":267,"o":"m 215 439 q 240 433 230 439 q 256 418 250 427 q 265 396 262 408 q 267 371 267 384 q 261 328 267 351 q 242 283 254 304 q 211 249 229 262 q 170 235 193 235 q 155 245 155 235 q 159 267 155 253 q 164 304 164 281 q 163 319 164 311 q 160 334 163 327 q 153 347 157 342 q 139 353 148 353 q 109 337 122 353 q 85 299 95 322 q 70 249 75 276 q 65 198 65 222 q 70 156 65 173 q 83 130 75 140 q 101 115 91 119 q 123 111 112 111 q 171 126 151 111 q 205 159 191 141 q 229 191 220 176 q 243 206 238 206 q 252 194 251 206 q 252 166 252 182 q 251 129 252 154 q 249 74 250 104 q 245 9 247 43 q 241 -55 243 -24 q 237 -111 239 -86 q 235 -150 235 -136 q 228 -251 231 -209 q 221 -321 224 -292 q 215 -369 218 -351 q 208 -399 212 -387 q 198 -415 205 -409 q 183 -424 191 -420 q 167 -429 175 -427 q 155 -435 159 -431 q 127 -456 138 -449 q 109 -464 117 -464 q 99 -460 104 -464 q 95 -446 95 -456 q 96 -435 95 -443 q 98 -422 97 -427 q 99 -416 98 -420 q 102 -401 100 -412 q 106 -374 103 -391 q 113 -328 109 -357 q 122 -256 117 -298 q 135 -154 127 -214 q 140 -113 137 -139 q 146 -57 142 -87 q 153 7 149 -26 q 158 71 156 41 q 156 75 158 75 q 151 69 154 75 q 142 55 148 64 q 129 37 137 47 q 110 16 121 26 q 83 -2 98 6 q 52 -9 68 -9 q 22 1 37 -9 q -4 28 7 11 q -21 69 -15 45 q -28 120 -28 93 q -9 231 -28 179 q 52 335 9 282 q 94 380 72 360 q 139 413 117 399 q 181 433 161 426 q 215 439 201 439 z "},"h":{"ha":407,"x_min":-9,"x_max":431,"o":"m 420 257 q 431 245 431 257 q 429 236 431 241 q 389 130 407 176 q 355 53 372 84 q 319 7 338 22 q 277 -9 300 -9 q 231 6 248 -9 q 205 44 214 22 q 195 92 197 66 q 193 138 193 117 q 196 207 193 174 q 198 257 198 240 q 184 283 198 283 q 168 268 173 283 q 157 238 164 260 q 141 189 151 216 q 123 132 132 161 q 105 79 113 102 q 85 31 94 50 q 68 2 76 12 q 52 -12 60 -8 q 35 -15 43 -15 q 19 -12 27 -15 q 5 -3 12 -9 q -5 15 -1 4 q -9 44 -9 26 q -6 100 -9 62 q 0 187 -4 138 q 8 294 3 237 q 19 408 14 351 q 30 520 24 466 q 39 616 35 574 q 54 749 46 691 q 75 839 62 806 q 83 855 79 849 q 94 867 88 861 q 107 878 100 872 q 123 893 114 884 q 150 917 141 910 q 166 924 159 924 q 179 919 172 924 q 186 903 186 915 q 184 892 186 900 q 177 859 182 884 q 165 798 172 833 q 151 717 158 762 q 138 625 144 673 q 126 519 132 572 q 115 415 120 465 q 106 322 111 366 q 100 244 102 278 q 96 190 97 211 q 94 164 94 168 q 96 153 94 153 q 101 166 96 153 q 114 201 106 180 q 131 248 121 222 q 151 300 140 274 q 174 350 162 327 q 197 389 185 373 q 225 416 210 407 q 254 425 240 425 q 293 401 281 425 q 306 342 306 378 q 303 302 306 326 q 299 251 301 277 q 294 198 296 224 q 292 155 292 173 q 294 124 292 136 q 299 104 296 112 q 308 94 303 97 q 317 91 312 91 q 338 103 328 91 q 358 135 348 115 q 379 183 368 155 q 403 241 390 210 q 411 254 406 250 q 420 257 415 257 z "},"i":{"ha":251,"x_min":3,"x_max":275,"o":"m 175 708 q 177 699 177 704 q 161 672 177 686 q 136 648 147 660 q 115 628 124 637 q 98 613 105 618 q 85 608 90 608 q 79 609 82 608 q 73 615 76 610 q 57 648 65 631 q 42 680 49 665 q 32 706 36 694 q 28 721 28 717 q 35 737 28 728 q 47 753 37 741 q 68 777 57 764 q 89 801 79 790 q 102 815 99 812 q 116 825 111 825 q 125 816 122 825 q 135 795 127 811 q 150 762 142 780 q 165 728 158 744 q 175 708 173 713 m 265 257 q 272 254 269 257 q 275 245 275 251 q 273 236 275 241 q 244 155 258 191 q 218 90 231 118 q 180 24 198 47 q 140 -6 162 1 q 127 -9 134 -7 q 113 -10 121 -10 q 77 -3 96 -10 q 41 22 58 3 q 14 76 24 41 q 3 165 3 110 q 6 259 3 214 q 16 350 9 304 q 41 388 26 371 q 71 418 56 406 q 98 437 85 431 q 117 444 111 444 q 119 438 119 444 q 118 419 119 433 q 114 382 116 406 q 110 322 112 359 q 106 232 107 285 q 110 176 106 201 q 120 131 113 150 q 138 101 127 112 q 160 91 148 91 q 182 102 172 91 q 202 133 192 113 q 223 181 212 153 q 246 240 234 208 q 265 257 253 257 z "},"j":{"ha":235,"x_min":-181,"x_max":258,"o":"m 249 257 q 258 246 258 257 q 256 236 258 242 q 221 146 237 183 q 186 81 204 109 q 145 27 168 52 q 94 -26 123 3 q 88 -86 92 -56 q 79 -158 84 -117 q 50 -294 67 -241 q 14 -377 33 -346 q -24 -422 -5 -408 q -58 -444 -43 -437 q -88 -457 -73 -452 q -117 -462 -103 -462 q -164 -430 -147 -462 q -181 -349 -181 -399 q -179 -315 -181 -331 q -172 -282 -177 -299 q -141 -214 -159 -245 q -102 -154 -123 -182 q -56 -102 -80 -125 q -9 -58 -33 -78 q -1 95 -3 24 q 3 218 1 166 q 4 240 3 224 q 6 274 5 255 q 9 313 7 293 q 15 350 12 334 q 40 388 25 371 q 69 418 54 406 q 96 437 83 431 q 115 444 109 444 q 118 437 118 444 q 116 418 118 431 q 112 381 115 405 q 107 320 110 357 q 104 232 105 284 q 100 112 102 161 q 97 25 99 64 q 144 74 124 47 q 179 128 164 100 q 207 184 195 156 q 230 240 218 213 q 249 257 237 257 m 173 708 q 175 699 175 704 q 159 672 175 686 q 134 648 145 660 q 113 628 122 637 q 96 613 103 618 q 83 608 88 608 q 77 609 80 608 q 71 615 74 610 q 55 648 63 631 q 40 680 47 665 q 30 706 34 694 q 26 721 26 717 q 33 737 26 728 q 45 753 35 741 q 66 777 55 764 q 87 801 77 790 q 100 815 97 812 q 114 825 109 825 q 123 816 120 825 q 133 795 125 811 q 148 762 140 780 q 163 728 156 744 q 173 708 171 713 m -21 -179 q -18 -154 -20 -166 q -16 -128 -17 -141 q -50 -173 -34 -149 q -77 -226 -65 -197 q -96 -288 -89 -254 q -102 -361 -102 -321 q -98 -399 -102 -388 q -87 -410 -93 -410 q -74 -398 -81 -410 q -60 -365 -66 -385 q -47 -319 -53 -345 q -36 -268 -41 -294 q -27 -219 -31 -242 q -21 -179 -23 -195 z "},"k":{"ha":416,"x_min":4,"x_max":439,"o":"m 429 257 q 436 254 433 257 q 439 245 439 251 q 437 236 439 241 q 401 141 420 186 q 361 64 382 97 q 320 12 341 31 q 275 -7 298 -7 q 249 -3 267 -7 q 208 17 231 1 q 157 66 184 33 q 103 157 130 99 q 105 93 104 117 q 109 55 107 69 q 111 35 110 41 q 113 24 113 28 q 106 14 113 16 q 94 11 100 12 q 86 6 90 10 q 79 -3 83 2 q 68 -11 75 -7 q 51 -15 62 -15 q 37 -12 44 -15 q 23 -3 29 -9 q 12 13 16 3 q 7 40 7 24 q 5 105 5 71 q 4 174 4 140 q 8 328 4 253 q 19 474 12 402 q 33 617 26 547 q 48 757 41 688 q 53 800 51 782 q 59 832 56 819 q 68 854 63 845 q 81 869 73 863 q 100 887 91 878 q 119 902 110 895 q 135 914 127 909 q 149 918 143 918 q 162 912 157 918 q 167 892 167 907 q 161 846 167 881 q 148 744 156 811 q 128 575 139 677 q 107 326 117 472 q 104 272 105 300 q 103 222 103 245 l 103 218 q 114 237 109 229 q 123 253 119 245 q 134 267 128 260 q 147 283 140 274 q 191 335 171 313 q 218 364 211 356 q 222 373 220 368 q 228 385 224 378 q 237 398 231 391 q 253 414 243 406 q 283 430 274 430 q 291 427 288 430 q 297 418 295 423 q 301 408 300 414 q 302 399 302 403 q 301 392 302 395 q 297 383 300 388 q 288 372 295 380 q 271 353 281 364 q 250 330 261 342 q 230 306 239 317 q 212 286 220 295 q 201 273 204 277 q 190 256 194 264 q 185 239 185 248 q 191 214 185 228 q 208 178 196 199 q 260 112 234 132 q 314 92 287 92 q 339 105 326 92 q 364 138 351 117 q 388 186 376 159 q 412 240 400 212 q 429 257 418 257 z "},"l":{"ha":237,"x_min":1,"x_max":261,"o":"m 251 257 q 258 254 255 257 q 261 245 261 251 q 259 236 261 241 q 233 164 245 197 q 208 103 220 131 q 186 58 197 77 q 166 26 176 39 q 146 5 156 13 q 126 -6 136 -3 q 102 -9 116 -9 q 70 -3 87 -9 q 37 22 52 3 q 12 73 22 40 q 1 159 1 106 q 3 207 1 173 q 8 289 5 241 q 15 397 11 336 q 25 524 20 457 q 34 615 28 566 q 44 711 39 664 q 55 797 50 758 q 64 859 60 836 q 83 896 69 882 q 113 925 96 909 q 126 938 119 931 q 140 951 133 945 q 153 962 146 958 q 165 966 159 966 q 175 957 175 966 q 172 930 175 949 q 162 867 168 910 q 148 750 156 823 q 130 561 139 676 q 125 506 127 538 q 119 438 122 474 q 114 366 117 403 q 110 296 112 329 q 106 236 108 263 q 105 193 105 209 q 115 119 105 146 q 148 92 125 92 q 171 104 161 92 q 191 135 181 115 q 210 182 200 155 q 233 240 220 209 q 241 253 236 248 q 251 257 245 257 z "},"m":{"ha":630,"x_min":4,"x_max":654,"o":"m 644 257 q 654 246 654 257 q 652 236 654 242 q 622 153 636 191 q 595 85 608 115 q 577 50 587 66 q 555 19 568 33 q 528 -2 543 6 q 492 -10 512 -10 q 465 -6 478 -10 q 441 7 452 -3 q 423 33 431 17 q 413 74 416 50 q 411 105 412 89 q 410 138 410 121 q 412 207 410 174 q 414 257 414 240 q 410 277 414 271 q 400 283 406 283 q 389 277 393 283 q 382 264 385 271 q 372 236 379 256 q 357 191 366 216 q 339 138 349 165 q 321 87 330 111 q 302 40 311 58 q 284 12 293 22 q 268 -2 276 1 q 252 -5 260 -5 q 237 -3 245 -5 q 223 6 230 0 q 213 23 217 12 q 208 49 208 33 q 207 71 207 60 q 207 94 207 82 q 208 144 207 119 q 209 191 208 169 q 211 230 210 212 q 212 257 212 248 q 207 277 212 271 q 197 283 203 283 q 187 277 191 283 q 180 264 182 272 q 170 236 176 256 q 154 189 163 215 q 136 135 146 163 q 119 83 127 106 q 99 35 108 53 q 81 6 90 16 q 64 -7 72 -3 q 48 -10 56 -10 q 34 -7 41 -10 q 20 2 26 -5 q 9 19 14 8 q 5 45 5 29 q 4 82 4 65 q 4 116 4 99 q 4 165 4 140 q 6 225 5 191 q 11 283 7 256 q 19 331 14 310 q 28 365 24 351 q 35 382 33 378 q 46 393 40 387 q 57 399 52 399 q 65 396 62 399 q 71 393 68 393 q 81 396 75 393 q 96 406 87 400 q 106 411 101 408 q 116 414 111 414 q 123 397 123 414 q 122 375 123 391 q 119 342 120 358 q 115 284 117 313 q 111 231 113 255 q 109 189 109 206 q 108 164 108 171 q 109 153 108 153 q 115 166 110 153 q 128 201 120 180 q 145 249 136 222 q 166 301 155 275 q 188 350 177 327 q 210 389 199 374 q 239 417 224 408 q 268 427 254 427 q 304 391 296 427 q 313 285 313 355 q 311 222 313 254 q 310 157 310 189 q 311 153 310 153 q 317 166 312 153 q 329 201 321 180 q 347 249 337 222 q 369 301 357 275 q 391 351 380 328 q 413 389 402 374 q 441 417 427 407 q 471 427 456 427 q 492 419 483 427 q 506 398 500 412 q 513 365 511 384 q 515 324 515 347 q 514 294 515 312 q 512 257 513 277 q 511 217 511 237 q 510 179 510 196 q 512 136 510 153 q 519 109 515 119 q 528 96 523 100 q 541 93 534 93 q 563 104 553 93 q 582 135 572 115 q 602 181 592 155 q 625 240 612 208 q 644 257 631 257 z "},"n":{"ha":486,"x_min":-5,"x_max":509,"o":"m 499 257 q 506 254 503 257 q 509 245 509 251 q 507 235 509 240 q 469 129 486 175 q 433 53 451 83 q 396 7 415 22 q 354 -9 377 -9 q 308 4 326 -9 q 280 39 290 18 q 267 86 270 60 q 263 138 263 112 q 264 174 263 156 q 266 208 264 192 q 267 237 267 224 q 268 258 268 250 q 263 277 268 271 q 254 283 259 283 q 243 277 248 283 q 237 264 239 271 q 227 235 233 256 q 211 187 220 214 q 192 132 202 161 q 174 80 182 103 q 154 32 163 50 q 135 3 144 13 q 118 -11 126 -7 q 102 -15 109 -15 q 88 -12 95 -15 q 75 -3 81 -9 q 65 13 69 3 q 61 40 61 24 q 59 115 60 75 q 59 194 59 155 q 59 229 59 212 q 60 260 60 246 q 58 289 60 280 q 52 297 56 297 q 40 282 45 297 q 22 237 35 268 q 14 223 18 227 q 5 219 9 219 q -2 222 1 219 q -5 233 -5 225 q -2 247 -5 237 q 6 270 1 258 q 17 296 12 283 q 26 319 22 309 q 40 351 32 334 q 59 381 49 368 q 82 405 70 395 q 110 414 95 414 q 145 392 130 414 q 161 326 160 370 q 162 259 162 291 q 163 204 163 228 q 164 167 164 181 q 165 153 165 153 q 172 165 167 153 q 184 198 176 178 q 201 243 191 218 q 221 295 210 269 q 243 345 231 321 q 266 387 254 369 q 292 417 278 407 q 323 427 306 427 q 359 398 348 427 q 370 321 370 370 q 369 291 370 309 q 367 254 368 273 q 366 214 366 234 q 365 178 365 195 q 367 133 365 151 q 374 106 370 116 q 382 94 378 97 q 392 90 387 90 q 417 102 406 90 q 438 136 428 115 q 458 183 448 157 q 481 240 469 210 q 499 257 487 257 z "},"o":{"ha":385,"x_min":-23,"x_max":408,"o":"m 143 48 q 172 59 159 48 q 192 87 184 70 q 206 129 201 105 q 214 177 212 152 q 176 212 195 191 q 142 265 157 234 q 130 303 134 283 q 125 340 125 322 q 132 382 125 362 q 150 416 138 401 q 179 438 161 430 q 220 447 197 447 q 268 433 249 447 q 297 398 286 419 q 312 351 308 376 q 317 304 317 326 q 313 246 317 276 q 301 186 309 216 q 346 200 326 188 q 379 240 366 212 q 396 257 387 257 q 405 254 401 257 q 408 245 408 252 q 406 236 408 241 q 361 175 393 197 q 291 153 330 153 q 263 90 279 119 q 224 38 246 60 q 173 3 201 16 q 110 -10 144 -10 q 68 -5 92 -10 q 25 18 45 1 q -9 67 5 35 q -23 151 -23 98 q -7 241 -23 193 q 46 335 9 288 q 72 360 60 353 q 92 368 84 368 q 106 349 106 368 q 101 329 106 341 q 90 298 96 317 q 78 253 83 279 q 73 191 73 227 q 92 86 73 123 q 143 48 111 48 m 218 248 q 205 347 218 317 q 177 371 193 377 q 169 359 170 368 q 168 340 168 349 q 172 309 168 326 q 183 277 176 293 q 198 246 189 260 q 218 219 208 231 q 218 233 218 227 q 218 248 218 240 z "},"p":{"ha":414,"x_min":-62,"x_max":437,"o":"m 113 496 q 125 492 118 496 q 131 478 131 488 q 127 455 131 468 q 121 432 123 441 q 113 384 117 410 q 105 328 109 357 q 169 400 136 380 q 227 421 201 421 q 274 411 254 421 q 307 383 294 401 q 326 340 319 365 q 332 284 332 315 q 313 159 332 211 q 267 74 294 108 q 332 113 299 84 q 367 156 347 126 q 409 240 387 186 q 428 257 416 257 q 437 246 437 257 q 435 236 437 242 q 395 148 416 183 q 351 91 373 113 q 308 59 329 69 q 269 45 286 49 l 234 39 q 174 1 203 12 q 134 -9 146 -9 q 116 -7 123 -9 q 104 5 109 -4 q 97 24 101 13 q 94 43 94 35 q 109 67 94 61 q 148 73 124 73 q 164 73 156 73 q 182 71 173 72 q 202 110 193 87 q 217 161 211 134 q 228 219 224 189 q 231 282 231 250 q 198 351 231 351 q 166 338 180 351 q 139 304 151 325 q 118 259 127 284 q 102 209 109 234 q 91 161 95 184 q 87 125 87 139 l 85 123 q 84 106 85 114 q 84 90 84 98 q 82 31 83 90 q 73 -150 81 -28 q 67 -251 70 -209 q 61 -322 64 -293 q 56 -369 59 -351 q 51 -399 54 -387 q 41 -415 48 -409 q 25 -424 34 -420 q 9 -429 17 -427 q -2 -435 2 -431 q -32 -457 -20 -450 q -49 -464 -43 -464 q -58 -459 -54 -464 q -62 -444 -62 -454 q -60 -429 -62 -439 q -54 -386 -58 -418 q -50 -352 -52 -372 q -44 -303 -47 -332 q -37 -238 -41 -275 q -27 -154 -33 -201 q -24 -119 -26 -146 q -19 -52 -22 -92 q -13 37 -16 -12 q -5 136 -9 85 q 3 234 -1 186 q 12 320 7 281 q 19 383 16 358 q 26 412 23 408 q 44 439 33 426 q 70 464 54 452 q 80 473 75 468 q 91 484 85 479 q 102 492 97 489 q 113 496 107 496 z "},"q":{"ha":384,"x_min":-28,"x_max":408,"o":"m 406 236 q 358 117 378 161 q 317 52 338 73 q 335 19 328 40 q 348 -26 343 -2 q 355 -76 353 -51 q 359 -121 358 -101 q 360 -155 360 -142 q 361 -168 361 -168 q 351 -278 361 -229 q 324 -363 341 -327 q 285 -423 307 -399 q 237 -456 262 -446 q 229 -458 234 -457 q 221 -458 224 -458 q 187 -448 205 -458 q 154 -417 169 -437 q 130 -366 140 -396 q 121 -297 121 -336 q 123 -229 121 -267 q 130 -151 126 -191 q 139 -72 134 -111 q 148 -2 144 -33 q 155 48 152 28 q 158 71 157 68 q 157 74 158 74 q 147 61 155 74 q 125 33 138 48 q 93 5 111 18 q 56 -8 75 -8 q 25 1 40 -8 q -1 26 10 9 q -20 65 -13 42 q -28 118 -28 89 q -19 194 -28 159 q 2 255 -11 228 q 28 302 14 282 q 52 336 42 323 q 85 370 65 351 q 127 403 104 388 q 173 429 149 418 q 216 439 196 439 q 254 421 241 439 q 267 372 267 404 q 263 336 267 355 q 250 298 258 316 q 228 265 241 280 q 198 242 215 250 q 183 236 191 239 q 167 234 175 234 q 157 246 157 234 q 160 270 157 255 q 164 303 164 286 q 163 320 164 311 q 158 335 161 328 q 150 347 155 342 q 138 352 144 352 q 110 337 123 352 q 87 299 97 323 q 72 246 77 276 q 66 185 66 216 q 81 132 66 154 q 125 110 96 110 q 159 118 142 110 q 190 139 176 127 q 216 165 205 151 q 233 191 227 179 q 243 203 239 203 q 250 199 248 203 q 252 192 252 195 q 249 130 252 170 q 243 40 247 90 q 235 -63 239 -9 q 228 -163 231 -116 q 221 -245 224 -210 q 219 -294 219 -280 q 226 -358 219 -332 q 252 -383 233 -383 q 289 -345 278 -383 q 300 -229 300 -307 q 297 -157 300 -197 q 291 -80 295 -117 q 279 -14 286 -43 q 261 22 271 14 q 256 39 256 26 q 262 56 256 49 q 278 65 268 63 q 293 76 285 70 q 309 92 301 82 q 341 148 324 111 q 379 240 357 185 q 397 257 385 257 q 408 245 408 257 q 407 240 408 243 q 406 236 406 237 z "},"r":{"ha":304,"x_min":-16,"x_max":328,"o":"m 326 236 q 294 138 311 183 q 260 61 278 94 q 219 10 241 28 q 170 -8 197 -8 q 115 26 136 -8 q 94 117 94 60 q 97 163 94 141 q 102 205 99 184 q 107 244 105 225 q 110 281 110 263 q 105 307 110 301 q 93 313 100 313 q 90 313 92 313 q 85 312 89 313 q 74 311 81 312 q 55 309 67 310 q 43 281 47 292 q 35 262 38 270 q 29 248 31 254 q 24 236 26 242 q 15 220 19 223 q 5 217 11 217 q -2 220 1 217 q -5 230 -5 224 q -3 240 -5 234 q 2 255 -1 245 q 9 278 5 264 q 17 313 13 292 q -6 342 3 319 q -16 395 -16 365 q -8 446 -16 420 q 13 493 1 472 q 40 528 26 515 q 66 542 55 542 q 92 524 81 542 q 102 483 102 506 q 100 458 102 471 q 94 435 97 446 q 88 416 91 425 q 85 403 85 408 q 90 397 85 397 q 102 400 94 397 l 136 415 q 167 422 154 422 q 196 409 189 422 q 203 369 203 395 q 200 329 203 357 q 194 265 197 300 q 189 195 191 230 q 186 139 186 161 q 192 104 186 115 q 214 93 197 93 q 238 107 226 93 q 260 143 250 121 q 281 191 271 165 q 299 240 291 216 q 317 257 305 257 q 328 245 328 257 q 327 241 328 243 q 326 236 327 239 z "},"s":{"ha":290,"x_min":-11,"x_max":317,"o":"m 199 105 l 209 113 q 245 156 223 126 q 289 240 267 186 q 308 257 296 257 q 317 246 317 257 q 315 236 317 242 q 282 161 300 192 q 245 108 264 130 q 207 73 226 86 q 172 53 189 60 q 131 7 155 26 q 77 -12 108 -12 q 42 -3 56 -12 q 19 18 28 5 q 6 46 10 31 q 2 74 2 62 q 8 115 2 97 q 22 146 14 134 q 39 166 30 159 q 54 172 48 172 q 71 159 62 172 q 88 121 79 145 q 111 68 102 84 q 131 71 121 69 q 150 76 140 73 q 155 93 155 85 q 148 122 155 105 q 131 157 141 138 q 107 195 120 176 q 82 232 94 214 q 58 263 69 249 q 41 288 47 278 q 33 261 37 272 q 26 241 30 250 q 18 223 22 228 q 8 219 14 219 q -3 232 -3 219 q -1 241 -3 237 q 8 272 4 258 q 14 296 12 286 q 19 315 17 307 q -2 348 7 330 q -11 396 -11 367 q -3 443 -11 417 q 17 490 5 468 q 44 527 29 512 q 72 542 58 542 q 86 537 80 542 q 97 524 93 532 q 104 505 102 515 q 106 484 106 494 q 98 432 106 461 q 97 424 98 429 q 96 414 96 419 q 121 359 96 394 q 186 279 147 323 q 212 235 204 258 q 220 181 220 212 q 218 160 220 172 q 214 142 216 149 l 199 105 z "},"t":{"ha":249,"x_min":-105,"x_max":273,"o":"m 271 236 q 232 127 249 174 q 197 51 214 81 q 159 4 179 20 q 110 -11 138 -11 q 75 -2 94 -11 q 41 33 57 7 q 16 105 26 59 q 5 227 5 152 q 7 278 5 246 q 11 350 9 311 q 17 434 14 390 q 24 524 20 479 q 18 523 21 523 q 12 522 16 522 q -41 515 -24 518 q -62 509 -58 512 q -65 502 -65 506 q -65 495 -65 498 q -67 490 -66 492 q -75 488 -69 488 q -83 489 -78 488 q -93 495 -88 491 q -102 504 -98 498 q -105 518 -105 510 q -102 534 -105 526 q -94 549 -99 542 q -80 569 -90 557 q -56 592 -71 581 q -18 614 -41 604 q 35 631 4 625 q 42 681 38 659 q 50 721 45 703 q 57 752 54 738 q 65 777 61 766 q 85 818 73 804 q 113 847 98 831 q 142 870 130 864 q 160 876 154 876 q 171 872 166 876 q 176 859 176 869 q 176 850 176 854 q 174 844 175 846 q 168 817 172 836 q 158 771 163 798 q 146 709 152 743 q 135 636 140 675 q 196 627 172 633 q 227 619 221 621 q 242 612 238 615 q 250 600 246 608 q 256 591 252 595 q 263 585 260 588 q 270 579 267 583 q 273 570 273 576 q 270 559 273 564 q 264 553 267 554 q 246 548 259 550 q 215 543 233 545 q 173 538 197 541 q 125 533 150 536 q 109 371 117 449 q 101 232 101 293 q 105 175 101 201 q 116 131 109 149 q 134 102 123 112 q 158 92 144 92 q 180 103 170 92 q 201 134 191 114 q 221 180 211 153 q 244 240 232 208 q 262 257 250 257 q 273 245 273 257 q 272 240 273 243 q 271 236 271 237 z "},"u":{"ha":436,"x_min":1,"x_max":460,"o":"m 458 236 q 419 130 436 176 q 384 53 401 84 q 346 7 366 22 q 297 -9 325 -9 q 257 5 273 -9 q 231 40 241 19 q 218 87 222 62 q 214 137 214 113 q 214 171 214 155 q 215 201 214 187 q 185 100 200 141 q 154 35 170 60 q 121 0 138 11 q 85 -10 104 -10 q 56 -3 71 -10 q 29 24 41 4 q 9 82 17 45 q 1 179 1 119 q 2 215 1 194 q 5 260 3 237 q 10 306 7 283 q 18 347 13 329 q 23 367 20 355 q 30 382 26 378 q 42 394 37 389 q 51 399 47 399 q 59 396 56 399 q 65 392 62 392 q 73 395 67 392 q 85 403 79 399 q 99 410 92 407 q 108 414 105 414 q 116 399 116 414 q 115 389 116 395 q 113 376 115 384 q 105 293 107 333 q 102 206 102 252 q 103 159 102 180 q 106 123 104 138 q 114 99 109 108 q 129 91 119 91 q 154 109 142 91 q 175 155 165 127 q 194 218 185 184 q 211 286 203 253 q 228 347 219 319 q 245 389 236 374 q 268 411 254 402 q 296 420 283 420 q 317 409 311 420 q 323 366 323 397 q 322 322 323 342 q 319 280 321 302 q 317 234 318 258 q 315 178 315 209 q 318 133 315 151 q 324 106 320 116 q 333 94 328 97 q 342 90 338 90 q 364 100 354 90 q 385 130 374 111 q 407 177 395 149 q 431 240 418 205 q 439 253 435 248 q 450 257 444 257 q 457 254 454 257 q 460 245 460 251 q 458 236 460 241 z "},"v":{"ha":392,"x_min":0,"x_max":416,"o":"m 414 236 q 373 175 400 197 q 311 153 346 153 q 277 157 294 153 q 238 88 260 119 q 192 34 216 57 q 144 -1 168 12 q 100 -14 120 -14 q 84 -8 90 -14 q 71 7 78 -3 q 50 41 62 19 q 27 97 38 64 q 8 177 16 131 q 0 281 0 222 q 3 328 0 309 q 10 359 6 347 q 19 378 14 371 q 28 389 24 385 q 35 396 32 393 q 41 399 39 399 q 49 396 45 399 q 56 392 52 392 q 64 395 58 392 q 75 403 69 399 q 86 410 81 407 q 96 414 92 414 q 102 410 99 414 q 105 397 105 406 q 104 379 105 387 q 101 360 102 372 q 98 333 99 349 q 96 291 96 317 q 112 149 96 215 q 155 41 127 83 q 171 64 162 51 q 188 96 179 77 q 203 139 196 114 q 216 196 210 163 q 192 226 203 209 q 170 265 180 243 q 157 303 161 283 q 153 340 153 322 q 158 380 153 361 q 174 413 164 399 q 197 435 184 427 q 227 443 211 443 q 289 409 264 443 q 313 315 313 376 q 307 249 313 281 q 290 186 300 217 q 313 183 302 183 q 357 197 337 183 q 387 240 376 212 q 404 257 393 257 q 412 254 408 257 q 416 246 416 252 q 414 236 416 242 m 189 339 q 197 291 189 317 q 221 243 205 266 q 223 272 222 257 q 224 304 224 288 q 220 361 224 338 q 205 383 216 384 q 196 379 199 383 q 191 368 193 374 q 189 353 189 361 q 189 339 189 346 z "},"w":{"ha":584,"x_min":0,"x_max":608,"o":"m 606 236 q 565 175 592 197 q 503 153 538 153 q 469 157 486 153 q 430 88 452 119 q 384 34 408 57 q 336 -1 359 12 q 292 -14 312 -14 q 276 -8 282 -14 q 262 7 270 -3 q 246 33 255 16 q 227 74 237 50 q 161 10 195 33 q 100 -14 127 -14 q 84 -8 90 -14 q 71 7 78 -3 q 50 41 62 19 q 27 97 38 64 q 8 177 16 131 q 0 281 0 222 q 3 328 0 309 q 10 359 6 347 q 19 378 14 371 q 28 389 24 385 q 35 396 32 393 q 41 399 39 399 q 49 396 45 399 q 56 392 52 392 q 64 395 58 392 q 75 403 69 399 q 86 410 81 407 q 96 414 92 414 q 102 410 99 414 q 105 397 105 406 q 104 379 105 387 q 101 360 102 372 q 98 333 99 349 q 96 291 96 317 q 112 149 96 215 q 155 41 127 83 q 180 81 166 57 q 205 146 194 106 q 196 208 199 175 q 192 281 192 241 q 195 328 192 309 q 202 359 198 347 q 211 378 206 371 q 220 389 216 385 q 227 396 224 393 q 233 399 231 399 q 241 396 237 399 q 248 392 244 392 q 256 395 250 392 q 267 403 261 399 q 278 410 273 407 q 288 414 284 414 q 294 410 291 414 q 297 397 297 406 q 296 379 297 387 q 293 360 294 372 q 290 333 291 349 q 288 291 288 317 q 304 149 288 215 q 347 41 319 83 q 362 64 354 51 q 379 96 371 77 q 395 139 388 114 q 408 196 402 163 q 384 226 395 209 q 361 265 372 243 q 349 303 353 283 q 345 340 345 322 q 350 380 345 361 q 366 413 356 399 q 389 435 376 427 q 418 443 403 443 q 480 409 456 443 q 505 315 505 376 q 499 249 505 281 q 481 186 492 217 q 505 183 494 183 q 549 197 529 183 q 579 240 568 212 q 596 257 585 257 q 604 254 600 257 q 608 246 608 252 q 606 236 608 242 m 380 339 q 389 291 380 317 q 413 243 397 266 q 415 272 414 257 q 416 304 416 288 q 412 361 416 338 q 397 383 408 384 q 388 379 391 383 q 383 368 385 374 q 381 353 381 361 q 380 339 380 346 z "},"x":{"ha":378,"x_min":-5,"x_max":402,"o":"m 326 385 q 264 299 292 336 q 214 231 237 262 q 236 179 225 204 q 258 135 248 154 q 278 104 269 116 q 296 93 288 93 q 313 106 304 93 q 331 139 321 119 q 352 186 341 160 q 373 240 362 213 q 391 257 380 257 q 402 245 402 257 q 400 236 402 242 q 362 135 380 180 q 327 58 344 90 q 292 9 310 26 q 256 -8 275 -8 q 228 4 241 -8 q 200 37 214 16 q 173 83 186 57 q 147 138 159 109 q 106 74 125 106 q 65 1 87 42 q 49 -8 60 -8 q 31 -5 39 -8 q 23 7 23 -1 q 25 14 23 10 q 55 58 41 37 q 81 99 68 79 q 105 138 94 119 q 130 178 117 157 q 109 228 119 204 q 90 271 99 252 q 74 300 81 289 q 62 311 67 311 q 49 298 56 311 q 35 268 42 285 q 20 234 27 250 q 4 218 14 218 q -5 231 -5 218 q -1 254 -5 240 q 8 281 3 268 q 19 305 14 294 q 25 319 24 316 q 67 398 49 372 q 109 424 86 424 q 123 420 118 424 q 136 410 129 417 q 161 363 146 398 q 193 286 176 329 q 225 341 208 311 q 262 408 242 372 q 276 420 267 416 q 296 425 286 425 q 321 416 312 425 q 330 397 330 407 q 329 390 330 393 q 326 385 328 387 z "},"y":{"ha":444,"x_min":1,"x_max":469,"o":"m 467 240 q 438 164 454 200 q 404 95 423 127 q 359 32 385 62 q 301 -27 334 1 q 296 -93 299 -60 q 288 -158 292 -126 q 260 -293 277 -241 q 224 -376 243 -345 q 186 -422 205 -407 q 152 -444 167 -437 q 95 -461 118 -461 q 47 -430 64 -461 q 30 -349 30 -399 q 45 -261 30 -302 q 86 -183 61 -220 q 141 -115 111 -146 q 203 -57 172 -83 q 207 -9 205 -31 q 209 29 208 14 q 212 114 211 69 q 214 196 212 158 q 182 97 198 136 q 151 35 167 58 q 118 2 135 12 q 82 -7 101 -7 q 54 0 68 -7 q 28 30 40 8 q 9 89 16 51 q 1 188 1 127 q 3 238 1 212 q 8 287 5 263 q 16 333 12 311 q 25 370 20 354 q 32 383 28 378 q 39 391 36 387 q 44 398 42 395 q 50 401 47 401 q 58 397 56 401 q 65 393 60 393 q 73 396 67 393 q 84 404 78 399 q 96 411 90 408 q 106 414 102 414 q 114 401 114 414 q 113 391 114 397 q 111 376 112 385 q 102 311 104 345 q 100 232 100 277 q 101 176 100 201 q 104 132 101 151 q 112 104 106 114 q 128 94 118 94 q 151 111 140 94 q 171 156 161 129 q 189 218 180 184 q 207 284 198 252 q 224 346 216 317 q 242 390 233 374 q 266 411 250 402 q 294 420 281 420 q 305 418 300 420 q 313 411 310 416 q 318 396 317 406 q 320 370 320 387 q 319 310 320 342 q 317 246 318 277 q 314 191 315 215 q 312 155 313 166 q 309 104 311 140 q 304 22 307 68 q 349 67 330 43 q 384 117 368 90 q 413 174 399 144 q 439 240 427 205 q 460 258 447 258 q 469 249 469 258 q 469 244 469 247 q 467 240 468 241 m 189 -176 q 193 -151 191 -164 q 197 -125 195 -138 q 162 -172 178 -147 q 135 -227 146 -197 q 117 -291 123 -256 q 111 -366 111 -325 q 114 -398 111 -389 q 122 -408 118 -408 q 136 -395 129 -408 q 150 -361 144 -382 q 163 -316 157 -341 q 174 -264 169 -290 q 183 -215 179 -239 q 189 -176 187 -192 z "},"z":{"ha":401,"x_min":-14,"x_max":426,"o":"m 424 238 q 390 149 406 185 q 359 87 374 113 q 327 41 343 61 q 292 1 311 22 q 263 -28 278 -14 q 232 -56 248 -42 q 244 -108 240 -81 q 248 -158 248 -134 q 230 -272 246 -222 q 192 -356 214 -321 q 146 -413 170 -391 q 108 -443 123 -434 q 79 -456 92 -452 q 54 -460 65 -460 q 3 -429 20 -460 q -14 -349 -14 -398 q 0 -265 -14 -304 q 36 -191 14 -225 q 87 -126 58 -156 q 147 -71 117 -96 q 114 21 140 -18 q 106 38 106 33 q 115 52 106 47 q 137 63 123 57 q 165 80 150 70 q 193 110 180 90 q 209 140 203 124 q 217 171 214 155 q 221 200 220 186 q 222 227 222 215 q 216 295 222 267 q 200 343 210 324 q 177 371 190 361 q 149 380 163 380 q 123 371 134 380 q 105 346 113 361 q 95 309 98 330 q 92 267 92 289 q 94 234 92 250 q 100 205 96 218 q 110 184 104 192 q 124 175 116 176 q 144 161 144 172 q 139 150 144 156 q 127 139 135 144 q 109 130 119 134 q 85 127 98 127 q 57 132 72 127 q 28 150 41 138 q 6 183 15 163 q -3 233 -3 203 q 12 308 -3 271 q 51 372 26 344 q 109 416 75 399 q 180 433 142 433 q 223 427 199 433 q 268 402 248 421 q 303 350 289 384 q 317 262 317 317 q 300 177 317 222 q 245 90 283 131 q 229 76 238 83 q 209 60 219 68 q 189 47 199 53 q 171 37 179 41 q 196 12 185 26 q 216 -18 208 -2 q 245 5 231 -6 q 270 26 259 16 q 315 76 296 50 q 349 128 334 101 q 375 183 363 155 q 397 240 387 211 q 417 258 403 258 q 423 256 420 258 q 426 249 426 254 q 424 238 426 244 m 82 -408 q 104 -384 92 -408 q 126 -320 116 -359 q 144 -231 137 -281 q 152 -131 152 -182 q 118 -174 134 -151 q 91 -225 102 -197 q 73 -287 79 -253 q 67 -363 67 -321 q 72 -397 67 -387 q 82 -408 76 -408 z "},"":{"ha":520,"x_min":-37,"x_max":545,"o":"m 534 257 q 542 254 538 257 q 545 245 545 251 q 543 236 545 241 q 514 155 527 191 q 487 90 500 118 q 449 24 467 47 q 409 -6 431 1 q 397 -9 404 -7 q 382 -10 390 -10 q 346 -3 366 -10 q 310 22 327 3 q 283 76 294 41 q 272 165 272 110 l 272 186 q 230 99 251 136 q 189 41 210 63 q 209 -9 201 22 q 219 -70 216 -40 q 222 -122 222 -100 q 223 -149 223 -145 q 215 -261 222 -214 q 194 -342 208 -309 q 163 -397 181 -375 q 123 -433 145 -418 q 93 -451 110 -443 q 63 -458 77 -458 q 29 -448 47 -458 q -3 -417 12 -437 q -27 -366 -18 -396 q -37 -297 -37 -336 q -33 -209 -36 -260 q -26 -95 -31 -157 q -16 35 -22 -33 q -3 172 -9 103 q 10 306 3 240 q 23 428 17 372 q 36 529 30 485 q 45 600 41 574 q 68 714 57 669 q 91 788 79 760 q 114 831 102 817 q 137 853 125 846 q 162 866 149 861 q 187 878 174 870 q 221 896 206 889 q 248 902 235 902 q 266 898 256 902 q 282 883 275 894 q 293 852 289 871 q 298 804 298 833 q 290 706 298 761 q 268 593 282 650 q 232 472 253 533 q 186 355 210 412 q 138 247 163 298 q 94 156 114 196 q 81 -6 87 79 q 69 -186 75 -91 q 66 -242 68 -214 q 64 -294 64 -269 q 71 -358 64 -332 q 94 -383 77 -383 q 123 -365 112 -383 q 142 -315 135 -346 q 152 -247 149 -285 q 155 -170 155 -208 q 151 -83 155 -125 q 138 -7 148 -40 q 133 6 136 1 q 127 18 130 12 q 120 28 123 22 q 117 39 117 34 q 124 57 117 49 q 144 66 130 66 q 162 75 152 68 q 184 93 172 81 q 221 148 201 110 q 264 240 241 186 q 275 254 269 250 q 279 302 277 278 q 286 350 282 326 q 310 388 296 371 q 340 418 325 406 q 367 437 355 431 q 386 444 380 444 q 389 438 389 444 q 387 419 389 433 q 383 382 385 406 q 379 322 381 359 q 375 232 376 285 q 379 176 375 201 q 390 131 382 150 q 407 101 397 112 q 429 91 417 91 q 451 102 441 91 q 471 133 461 113 q 492 181 481 153 q 515 240 503 208 q 534 257 522 257 m 145 623 q 129 490 140 578 q 104 273 117 401 q 159 421 132 340 q 203 593 186 503 q 223 719 218 670 q 229 795 229 767 q 228 825 229 814 q 223 843 226 836 q 217 851 220 849 q 211 853 214 853 q 197 841 204 853 q 184 809 191 829 q 171 764 177 789 q 160 713 165 739 q 151 664 155 688 q 145 623 147 640 m 471 627 q 473 618 473 623 q 457 591 473 605 q 432 567 444 578 q 411 546 420 555 q 394 532 401 537 q 382 526 387 526 q 375 528 378 526 q 370 534 372 529 q 353 566 361 549 q 339 598 345 583 q 328 624 332 613 q 324 640 324 635 q 331 656 324 647 q 343 671 334 660 q 365 696 353 683 q 386 720 376 709 q 399 734 395 730 q 412 743 407 743 q 422 734 418 743 q 431 714 424 730 q 446 681 438 699 q 462 647 454 663 q 471 627 469 631 z "},"":{"ha":520,"x_min":-37,"x_max":544,"o":"m 534 257 q 541 254 538 257 q 544 245 544 251 q 542 236 544 241 q 516 164 528 197 q 491 103 503 131 q 469 58 479 77 q 449 26 458 39 q 429 5 439 13 q 409 -6 419 -3 q 385 -9 399 -9 q 353 -3 370 -9 q 320 22 335 3 q 294 73 304 40 q 284 159 284 106 q 284 171 284 164 q 285 186 284 178 q 238 98 262 135 q 191 39 214 60 q 209 -12 203 19 q 219 -72 216 -43 q 222 -123 222 -101 q 223 -149 223 -145 q 215 -261 222 -214 q 194 -342 208 -309 q 163 -397 181 -375 q 123 -433 145 -418 q 93 -451 110 -443 q 63 -458 77 -458 q 29 -448 47 -458 q -3 -417 12 -437 q -27 -366 -18 -396 q -37 -297 -37 -336 q -33 -209 -36 -260 q -26 -95 -31 -157 q -16 35 -22 -33 q -3 172 -9 103 q 10 306 3 240 q 23 428 17 372 q 36 529 30 485 q 45 600 41 574 q 68 714 57 669 q 91 788 79 760 q 114 831 102 817 q 137 853 125 846 q 162 866 149 861 q 187 878 174 870 q 221 896 206 889 q 248 902 235 902 q 266 898 256 902 q 282 883 275 894 q 293 852 289 871 q 298 804 298 833 q 290 706 298 761 q 268 593 282 650 q 232 472 253 533 q 186 355 210 412 q 138 247 163 298 q 94 156 114 196 q 81 -6 87 79 q 69 -186 75 -91 q 66 -242 68 -214 q 64 -294 64 -269 q 71 -358 64 -332 q 94 -383 77 -383 q 123 -365 112 -383 q 142 -315 135 -346 q 152 -247 149 -285 q 155 -170 155 -208 q 151 -83 155 -125 q 138 -7 148 -40 q 133 6 136 1 q 127 18 130 12 q 120 28 123 22 q 117 39 117 34 q 124 57 117 49 q 144 66 130 66 q 162 75 152 68 q 184 93 172 81 q 228 148 201 110 q 278 240 255 186 q 290 255 283 251 q 300 353 294 298 q 313 466 306 407 q 328 583 320 524 q 342 695 335 642 q 356 790 349 747 q 368 859 362 833 q 386 896 372 882 q 416 925 399 909 q 429 938 422 931 q 443 951 436 945 q 456 962 450 958 q 469 966 463 966 q 478 958 477 966 q 473 926 477 956 q 462 849 469 897 q 448 739 456 801 q 431 610 439 677 q 415 477 423 544 q 401 354 408 411 q 392 254 395 297 q 388 193 388 212 q 398 119 388 146 q 431 92 408 92 q 454 104 444 92 q 473 135 464 115 q 493 182 483 155 q 515 240 503 209 q 524 253 519 248 q 534 257 528 257 m 145 623 q 129 490 140 578 q 104 273 117 401 q 159 421 132 340 q 203 593 186 503 q 223 719 218 670 q 229 795 229 767 q 228 825 229 814 q 223 843 226 836 q 217 851 220 849 q 211 853 214 853 q 197 841 204 853 q 184 809 191 829 q 171 764 177 789 q 160 713 165 739 q 151 664 155 688 q 145 623 147 640 z "},"":{"ha":450,"x_min":-17,"x_max":473,"o":"m 220 -12 q 185 -3 199 -12 q 162 18 171 5 q 149 46 153 31 q 145 74 145 62 q 151 115 145 97 q 165 146 157 134 q 182 166 173 159 q 197 172 191 172 q 214 159 205 172 q 231 121 222 145 q 245 89 238 103 q 260 68 252 75 q 278 69 270 68 q 294 71 286 70 q 297 84 296 77 q 298 93 298 90 q 288 152 298 126 q 262 202 277 178 q 229 249 246 225 q 195 299 211 272 q 170 359 180 326 q 159 436 159 392 q 166 491 159 461 q 184 554 174 522 q 208 620 195 587 q 231 683 220 652 q 249 741 242 713 q 256 789 256 768 q 250 819 256 807 q 236 839 244 831 q 221 850 229 847 q 211 853 214 853 q 197 841 204 853 q 184 809 191 829 q 171 764 177 789 q 160 713 165 739 q 151 664 155 688 q 145 623 147 640 q 137 563 142 595 q 126 485 132 531 q 113 375 120 439 q 98 217 106 311 q 90 118 92 155 q 87 61 87 81 q 88 33 87 41 q 88 18 89 24 q 81 9 87 11 q 68 7 75 8 q 60 4 64 7 q 52 -4 56 0 q 41 -12 47 -9 q 23 -14 34 -15 q 9 -9 16 -13 q -4 1 1 -6 q -14 18 -10 7 q -16 45 -17 29 q -11 111 -14 76 q -5 180 -8 145 q 9 325 2 261 q 22 440 16 389 q 34 529 28 490 q 45 600 40 568 q 68 714 57 669 q 91 788 79 760 q 114 831 102 817 q 137 853 125 846 q 162 866 149 861 q 187 878 174 870 q 221 896 206 889 q 248 902 235 902 q 272 897 256 902 q 302 879 287 891 q 328 847 317 867 q 338 797 338 827 q 330 733 338 764 q 310 676 322 703 q 282 623 297 648 q 255 575 268 598 q 235 529 243 551 q 227 486 227 507 q 232 460 227 472 q 250 432 238 449 q 282 390 262 416 q 329 320 301 363 q 354 268 344 296 q 363 208 363 239 q 357 151 363 182 q 339 91 351 120 q 368 113 352 99 q 403 156 382 126 q 445 240 423 186 q 464 257 452 257 q 473 246 473 257 q 471 236 473 242 q 434 153 454 186 q 393 98 414 119 q 353 64 373 76 q 315 47 333 52 q 274 5 298 22 q 220 -12 250 -11 z "},"":{"ha":792,"x_min":41,"x_max":758,"o":"m 633 100 q 637 60 633 76 q 650 34 642 44 q 667 20 658 24 q 687 16 677 16 q 707 20 697 16 q 724 30 716 24 q 738 39 732 35 q 749 43 745 43 q 758 33 758 43 q 755 25 758 30 q 749 16 752 20 q 725 -14 738 1 q 696 -40 711 -28 q 664 -58 681 -51 q 630 -64 648 -64 q 577 -50 598 -64 q 545 -12 557 -35 q 527 38 532 11 q 521 90 522 65 q 485 31 504 56 q 447 -13 466 5 q 376 -64 414 -44 q 289 -84 338 -84 q 190 -59 235 -84 q 111 15 144 -35 q 59 138 78 64 q 41 310 41 212 q 54 457 41 388 q 87 585 66 526 q 136 693 109 644 q 193 782 163 743 q 252 851 222 822 q 305 899 281 880 q 345 925 323 912 q 391 948 366 938 q 443 964 416 958 q 500 970 471 970 q 575 958 536 970 q 648 921 614 946 q 703 855 681 895 q 725 760 725 815 q 716 698 725 730 q 686 633 707 666 q 644 586 667 605 q 595 556 620 568 q 546 540 570 545 q 503 535 522 535 q 461 542 475 535 q 448 557 448 549 q 452 566 448 561 q 465 575 456 572 q 499 587 476 580 q 545 610 522 594 q 586 656 568 627 q 604 734 604 686 q 592 819 604 785 q 562 871 581 852 q 521 899 544 891 q 475 907 498 907 q 409 891 441 907 q 347 845 376 874 q 291 775 317 815 q 244 688 265 734 q 208 590 223 642 q 183 488 192 539 q 171 393 174 437 q 167 311 167 349 q 182 175 167 231 q 222 85 197 120 q 279 35 247 51 q 344 20 311 20 q 397 31 370 20 q 450 61 425 41 q 494 107 475 80 q 521 167 513 134 q 525 198 522 175 q 530 251 528 221 q 536 314 533 281 q 543 375 540 347 q 550 422 547 403 q 557 446 553 442 q 565 450 559 448 q 576 454 569 452 q 594 456 583 456 q 599 455 596 456 q 604 455 602 455 q 608 457 606 455 q 611 462 610 459 q 615 469 613 465 q 622 477 617 473 q 632 485 626 481 q 644 491 637 489 q 655 494 650 494 q 665 490 661 494 q 669 477 669 486 q 668 469 669 473 q 663 434 666 458 q 655 376 659 409 q 647 304 651 342 q 640 229 643 267 q 635 158 637 191 q 633 100 633 124 m 541 1049 q 544 1039 544 1044 q 542 1031 544 1034 q 534 1027 539 1027 q 528 1029 532 1027 q 470 1062 495 1044 q 427 1098 444 1080 q 401 1131 410 1116 q 392 1156 392 1146 q 398 1171 392 1165 q 425 1192 404 1177 q 432 1195 429 1194 q 438 1199 435 1196 q 446 1207 442 1203 q 453 1211 449 1211 q 466 1198 463 1211 q 485 1143 473 1168 q 508 1098 496 1118 q 529 1066 519 1079 q 541 1049 538 1054 z "},"":{"ha":356,"x_min":-28,"x_max":379,"o":"m 378 236 q 340 129 357 175 q 304 53 322 83 q 267 6 287 22 q 222 -9 247 -9 q 194 1 205 -9 q 176 26 183 12 q 164 52 168 39 q 159 68 161 64 q 158 73 159 70 q 156 75 157 75 q 154 73 155 75 q 151 69 153 71 q 140 52 149 64 q 118 25 132 39 q 88 1 105 12 q 52 -9 71 -9 q 21 1 36 -9 q -4 28 7 11 q -21 69 -15 45 q -28 120 -28 93 q -9 231 -28 179 q 52 335 9 283 q 95 380 72 360 q 139 413 117 399 q 181 433 161 426 q 215 439 201 439 q 234 436 224 439 q 251 425 243 433 q 263 403 258 416 q 267 371 267 390 q 261 327 267 351 q 242 282 254 303 q 211 248 229 262 q 170 235 193 235 q 155 245 155 235 q 159 270 155 253 q 163 302 163 287 q 162 317 163 309 q 159 334 161 326 q 151 347 156 342 q 138 353 146 353 q 106 336 120 353 q 84 294 93 319 q 70 243 75 270 q 65 198 65 217 q 69 155 65 172 q 80 127 73 138 q 96 112 87 117 q 114 108 104 108 q 154 123 136 108 q 184 157 172 138 q 206 191 197 176 q 220 206 214 206 q 228 192 226 206 q 237 142 232 161 q 246 111 241 122 q 256 95 251 100 q 267 91 261 91 q 287 103 277 91 q 307 135 297 115 q 328 182 317 155 q 351 240 339 210 q 369 257 359 257 q 379 245 379 257 q 378 236 379 240 m 241 536 q 244 526 244 532 q 242 518 244 522 q 235 515 239 515 q 228 517 232 515 q 170 550 195 532 q 127 585 144 568 q 101 618 110 603 q 92 643 92 633 q 98 659 92 652 q 125 679 104 665 q 132 682 129 682 q 138 686 135 683 q 146 694 142 690 q 153 699 149 699 q 166 685 163 699 q 185 630 174 655 q 208 586 197 605 q 229 554 220 566 q 241 536 238 541 z "},"":{"ha":792,"x_min":41,"x_max":758,"o":"m 633 100 q 637 60 633 76 q 650 34 642 44 q 667 20 658 24 q 687 16 677 16 q 707 20 697 16 q 724 30 716 24 q 738 39 732 35 q 749 43 745 43 q 758 33 758 43 q 755 25 758 30 q 749 16 752 20 q 725 -14 738 1 q 696 -40 711 -28 q 664 -58 681 -51 q 630 -64 648 -64 q 577 -50 598 -64 q 545 -12 557 -35 q 527 38 532 11 q 521 90 522 65 q 485 31 504 56 q 447 -13 466 5 q 376 -64 414 -44 q 289 -84 338 -84 q 190 -59 235 -84 q 111 15 144 -35 q 59 138 78 64 q 41 310 41 212 q 54 457 41 388 q 87 585 66 526 q 136 693 109 644 q 193 782 163 743 q 252 851 222 822 q 305 899 281 880 q 345 925 323 912 q 391 948 366 938 q 443 964 416 958 q 500 970 471 970 q 575 958 536 970 q 648 921 614 946 q 703 855 681 895 q 725 760 725 815 q 716 698 725 730 q 686 633 707 666 q 644 586 667 605 q 595 556 620 568 q 546 540 570 545 q 503 535 522 535 q 461 542 475 535 q 448 557 448 549 q 452 566 448 561 q 465 575 456 572 q 499 587 476 580 q 545 610 522 594 q 586 656 568 627 q 604 734 604 686 q 592 819 604 785 q 562 871 581 852 q 521 899 544 891 q 475 907 498 907 q 409 891 441 907 q 347 845 376 874 q 291 775 317 815 q 244 688 265 734 q 208 590 223 642 q 183 488 192 539 q 171 393 174 437 q 167 311 167 349 q 182 175 167 231 q 222 85 197 120 q 279 35 247 51 q 344 20 311 20 q 397 31 370 20 q 450 61 425 41 q 494 107 475 80 q 521 167 513 134 q 525 198 522 175 q 530 251 528 221 q 536 314 533 281 q 543 375 540 347 q 550 422 547 403 q 557 446 553 442 q 565 450 559 448 q 576 454 569 452 q 594 456 583 456 q 599 455 596 456 q 604 455 602 455 q 608 457 606 455 q 611 462 610 459 q 615 469 613 465 q 622 477 617 473 q 632 485 626 481 q 644 491 637 489 q 655 494 650 494 q 665 490 661 494 q 669 477 669 486 q 668 469 669 473 q 663 434 666 458 q 655 376 659 409 q 647 304 651 342 q 640 229 643 267 q 635 158 637 191 q 633 100 633 124 m 622 1171 q 628 1158 628 1166 q 626 1150 628 1154 q 623 1142 625 1145 q 607 1116 617 1130 q 581 1087 597 1102 q 544 1058 566 1073 q 491 1029 522 1044 q 484 1027 487 1027 q 474 1038 474 1027 q 477 1049 474 1044 q 489 1066 480 1054 q 510 1098 498 1079 q 532 1143 521 1118 q 551 1198 544 1168 q 557 1208 553 1204 q 565 1211 562 1211 q 573 1206 570 1211 q 586 1195 579 1197 q 595 1191 592 1194 q 606 1183 601 1185 q 622 1171 612 1180 z "},"":{"ha":356,"x_min":-28,"x_max":379,"o":"m 378 236 q 340 129 357 175 q 304 53 322 83 q 267 6 287 22 q 222 -9 247 -9 q 194 1 205 -9 q 176 26 183 12 q 164 52 168 39 q 159 68 161 64 q 158 73 159 70 q 156 75 157 75 q 154 73 155 75 q 151 69 153 71 q 140 52 149 64 q 118 25 132 39 q 88 1 105 12 q 52 -9 71 -9 q 21 1 36 -9 q -4 28 7 11 q -21 69 -15 45 q -28 120 -28 93 q -9 231 -28 179 q 52 335 9 283 q 95 380 72 360 q 139 413 117 399 q 181 433 161 426 q 215 439 201 439 q 234 436 224 439 q 251 425 243 433 q 263 403 258 416 q 267 371 267 390 q 261 327 267 351 q 242 282 254 303 q 211 248 229 262 q 170 235 193 235 q 155 245 155 235 q 159 270 155 253 q 163 302 163 287 q 162 317 163 309 q 159 334 161 326 q 151 347 156 342 q 138 353 146 353 q 106 336 120 353 q 84 294 93 319 q 70 243 75 270 q 65 198 65 217 q 69 155 65 172 q 80 127 73 138 q 96 112 87 117 q 114 108 104 108 q 154 123 136 108 q 184 157 172 138 q 206 191 197 176 q 220 206 214 206 q 228 192 226 206 q 237 142 232 161 q 246 111 241 122 q 256 95 251 100 q 267 91 261 91 q 287 103 277 91 q 307 135 297 115 q 328 182 317 155 q 351 240 339 210 q 369 257 359 257 q 379 245 379 257 q 378 236 379 240 m 321 659 q 328 646 328 653 q 326 637 328 642 q 323 629 324 633 q 307 603 317 617 q 281 575 296 589 q 243 546 265 560 q 191 517 221 531 q 183 515 186 515 q 174 526 174 515 q 177 536 174 531 q 189 554 180 541 q 209 586 198 566 q 232 630 220 605 q 251 685 243 655 q 257 695 252 692 q 264 699 261 699 q 273 693 269 699 q 285 683 279 684 q 294 678 292 681 q 306 670 300 673 q 321 659 311 667 z "},"":{"ha":792,"x_min":41,"x_max":758,"o":"m 633 100 q 637 60 633 76 q 650 34 642 44 q 667 20 658 24 q 687 16 677 16 q 707 20 697 16 q 724 30 716 24 q 738 39 732 35 q 749 43 745 43 q 758 33 758 43 q 755 25 758 30 q 749 16 752 20 q 725 -14 738 1 q 696 -40 711 -28 q 664 -58 681 -51 q 630 -64 648 -64 q 577 -50 598 -64 q 545 -12 557 -35 q 527 38 532 11 q 521 90 522 65 q 485 31 504 56 q 447 -13 466 5 q 376 -64 414 -44 q 289 -84 338 -84 q 190 -59 235 -84 q 111 15 144 -35 q 59 138 78 64 q 41 310 41 212 q 54 457 41 388 q 87 585 66 526 q 136 693 109 644 q 193 782 163 743 q 252 851 222 822 q 305 899 281 880 q 345 925 323 912 q 391 948 366 938 q 443 964 416 958 q 500 970 471 970 q 575 958 536 970 q 648 921 614 946 q 703 855 681 895 q 725 760 725 815 q 716 698 725 730 q 686 633 707 666 q 644 586 667 605 q 595 556 620 568 q 546 540 570 545 q 503 535 522 535 q 461 542 475 535 q 448 557 448 549 q 452 566 448 561 q 465 575 456 572 q 499 587 476 580 q 545 610 522 594 q 586 656 568 627 q 604 734 604 686 q 592 819 604 785 q 562 871 581 852 q 521 899 544 891 q 475 907 498 907 q 409 891 441 907 q 347 845 376 874 q 291 775 317 815 q 244 688 265 734 q 208 590 223 642 q 183 488 192 539 q 171 393 174 437 q 167 311 167 349 q 182 175 167 231 q 222 85 197 120 q 279 35 247 51 q 344 20 311 20 q 397 31 370 20 q 450 61 425 41 q 494 107 475 80 q 521 167 513 134 q 525 198 522 175 q 530 251 528 221 q 536 314 533 281 q 543 375 540 347 q 550 422 547 403 q 557 446 553 442 q 565 450 559 448 q 576 454 569 452 q 594 456 583 456 q 599 455 596 456 q 604 455 602 455 q 608 457 606 455 q 611 462 610 459 q 615 469 613 465 q 622 477 617 473 q 632 485 626 481 q 644 491 637 489 q 655 494 650 494 q 665 490 661 494 q 669 477 669 486 q 668 469 669 473 q 663 434 666 458 q 655 376 659 409 q 647 304 651 342 q 640 229 643 267 q 635 158 637 191 q 633 100 633 124 m 644 1047 q 650 1037 650 1041 q 646 1030 650 1033 q 637 1027 643 1027 q 625 1030 632 1027 q 607 1037 619 1032 q 579 1050 595 1041 q 544 1075 563 1060 q 505 1113 525 1090 q 476 1088 493 1101 q 441 1065 458 1076 q 410 1046 425 1055 q 387 1035 395 1038 q 376 1032 381 1032 q 367 1041 367 1032 q 374 1055 367 1046 q 389 1072 379 1061 q 413 1098 398 1082 q 447 1138 427 1114 q 494 1198 467 1162 q 513 1209 503 1209 q 524 1205 519 1209 q 534 1192 529 1201 q 564 1146 547 1170 q 597 1102 581 1122 q 626 1066 614 1081 q 644 1047 639 1051 z "},"":{"ha":356,"x_min":-28,"x_max":379,"o":"m 378 236 q 340 129 357 175 q 304 53 322 83 q 267 6 287 22 q 222 -9 247 -9 q 194 1 205 -9 q 176 26 183 12 q 164 52 168 39 q 159 68 161 64 q 158 73 159 70 q 156 75 157 75 q 154 73 155 75 q 151 69 153 71 q 140 52 149 64 q 118 25 132 39 q 88 1 105 12 q 52 -9 71 -9 q 21 1 36 -9 q -4 28 7 11 q -21 69 -15 45 q -28 120 -28 93 q -9 231 -28 179 q 52 335 9 283 q 95 380 72 360 q 139 413 117 399 q 181 433 161 426 q 215 439 201 439 q 234 436 224 439 q 251 425 243 433 q 263 403 258 416 q 267 371 267 390 q 261 327 267 351 q 242 282 254 303 q 211 248 229 262 q 170 235 193 235 q 155 245 155 235 q 159 270 155 253 q 163 302 163 287 q 162 317 163 309 q 159 334 161 326 q 151 347 156 342 q 138 353 146 353 q 106 336 120 353 q 84 294 93 319 q 70 243 75 270 q 65 198 65 217 q 69 155 65 172 q 80 127 73 138 q 96 112 87 117 q 114 108 104 108 q 154 123 136 108 q 184 157 172 138 q 206 191 197 176 q 220 206 214 206 q 228 192 226 206 q 237 142 232 161 q 246 111 241 122 q 256 95 251 100 q 267 91 261 91 q 287 103 277 91 q 307 135 297 115 q 328 182 317 155 q 351 240 339 210 q 369 257 359 257 q 379 245 379 257 q 378 236 379 240 m 343 534 q 349 524 349 528 q 346 517 349 520 q 337 515 342 515 q 324 517 332 515 q 307 524 319 519 q 279 538 295 528 q 243 562 262 547 q 205 600 224 577 q 175 575 193 588 q 141 552 158 563 q 109 534 124 542 q 87 522 94 526 q 76 519 81 519 q 66 528 66 519 q 73 542 66 534 q 88 559 79 549 q 112 585 98 569 q 147 626 127 602 q 193 685 167 650 q 212 696 203 696 q 224 692 219 696 q 234 679 229 688 q 264 633 247 657 q 297 589 281 610 q 326 553 313 568 q 343 534 338 538 z "},"":{"ha":792,"x_min":41,"x_max":758,"o":"m 633 100 q 637 60 633 76 q 650 34 642 44 q 667 20 658 24 q 687 16 677 16 q 707 20 697 16 q 724 30 716 24 q 738 39 732 35 q 749 43 745 43 q 758 33 758 43 q 755 25 758 30 q 749 16 752 20 q 725 -14 738 1 q 696 -40 711 -28 q 664 -58 681 -51 q 630 -64 648 -64 q 577 -50 598 -64 q 545 -12 557 -35 q 527 38 532 11 q 521 90 522 65 q 485 31 504 56 q 447 -13 466 5 q 376 -64 414 -44 q 289 -84 338 -84 q 190 -59 235 -84 q 111 15 144 -35 q 59 138 78 64 q 41 310 41 212 q 54 457 41 388 q 87 585 66 526 q 136 693 109 644 q 193 782 163 743 q 252 851 222 822 q 305 899 281 880 q 345 925 323 912 q 391 948 366 938 q 443 964 416 958 q 500 970 471 970 q 575 958 536 970 q 648 921 614 946 q 703 855 681 895 q 725 760 725 815 q 716 698 725 730 q 686 633 707 666 q 644 586 667 605 q 595 556 620 568 q 546 540 570 545 q 503 535 522 535 q 461 542 475 535 q 448 557 448 549 q 452 566 448 561 q 465 575 456 572 q 499 587 476 580 q 545 610 522 594 q 586 656 568 627 q 604 734 604 686 q 592 819 604 785 q 562 871 581 852 q 521 899 544 891 q 475 907 498 907 q 409 891 441 907 q 347 845 376 874 q 291 775 317 815 q 244 688 265 734 q 208 590 223 642 q 183 488 192 539 q 171 393 174 437 q 167 311 167 349 q 182 175 167 231 q 222 85 197 120 q 279 35 247 51 q 344 20 311 20 q 397 31 370 20 q 450 61 425 41 q 494 107 475 80 q 521 167 513 134 q 525 198 522 175 q 530 251 528 221 q 536 314 533 281 q 543 375 540 347 q 550 422 547 403 q 557 446 553 442 q 565 450 559 448 q 576 454 569 452 q 594 456 583 456 q 599 455 596 456 q 604 455 602 455 q 608 457 606 455 q 611 462 610 459 q 615 469 613 465 q 622 477 617 473 q 632 485 626 481 q 644 491 637 489 q 655 494 650 494 q 665 490 661 494 q 669 477 669 486 q 668 469 669 473 q 663 434 666 458 q 655 376 659 409 q 647 304 651 342 q 640 229 643 267 q 635 158 637 191 q 633 100 633 124 m 559 1055 q 528 1062 545 1055 q 493 1077 511 1069 q 456 1092 475 1085 q 419 1099 437 1099 q 372 1067 387 1099 q 361 1058 367 1058 q 356 1059 358 1058 q 354 1066 354 1061 q 356 1077 354 1071 q 364 1098 358 1083 q 381 1130 370 1114 q 409 1159 392 1146 q 452 1171 427 1171 q 490 1163 473 1171 q 522 1147 507 1155 q 588 1124 561 1124 q 645 1160 622 1124 q 655 1167 650 1167 q 661 1164 659 1167 q 663 1156 663 1160 q 655 1128 663 1145 q 634 1095 648 1111 q 601 1066 621 1078 q 559 1055 582 1055 z "},"":{"ha":356,"x_min":-28,"x_max":379,"o":"m 378 236 q 340 129 357 175 q 304 53 322 83 q 267 6 287 22 q 222 -9 247 -9 q 194 1 205 -9 q 176 26 183 12 q 164 52 168 39 q 159 68 161 64 q 158 73 159 70 q 156 75 157 75 q 154 73 155 75 q 151 69 153 71 q 140 52 149 64 q 118 25 132 39 q 88 1 105 12 q 52 -9 71 -9 q 21 1 36 -9 q -4 28 7 11 q -21 69 -15 45 q -28 120 -28 93 q -9 231 -28 179 q 52 335 9 283 q 95 380 72 360 q 139 413 117 399 q 181 433 161 426 q 215 439 201 439 q 234 436 224 439 q 251 425 243 433 q 263 403 258 416 q 267 371 267 390 q 261 327 267 351 q 242 282 254 303 q 211 248 229 262 q 170 235 193 235 q 155 245 155 235 q 159 270 155 253 q 163 302 163 287 q 162 317 163 309 q 159 334 161 326 q 151 347 156 342 q 138 353 146 353 q 106 336 120 353 q 84 294 93 319 q 70 243 75 270 q 65 198 65 217 q 69 155 65 172 q 80 127 73 138 q 96 112 87 117 q 114 108 104 108 q 154 123 136 108 q 184 157 172 138 q 206 191 197 176 q 220 206 214 206 q 228 192 226 206 q 237 142 232 161 q 246 111 241 122 q 256 95 251 100 q 267 91 261 91 q 287 103 277 91 q 307 135 297 115 q 328 182 317 155 q 351 240 339 210 q 369 257 359 257 q 379 245 379 257 q 378 236 379 240 m 259 542 q 228 549 245 542 q 193 564 211 556 q 156 579 175 572 q 119 587 137 587 q 71 555 87 587 q 61 545 66 545 q 56 547 58 545 q 54 553 54 548 q 56 564 54 558 q 63 586 58 570 q 80 617 69 601 q 109 646 92 633 q 151 659 126 659 q 189 650 172 659 q 221 634 206 642 q 288 612 260 612 q 345 647 321 612 q 355 654 350 654 q 361 651 359 654 q 363 643 363 648 q 355 615 363 632 q 334 582 347 598 q 301 554 320 566 q 259 542 281 542 z "},"":{"ha":792,"x_min":41,"x_max":758,"o":"m 633 100 q 637 60 633 76 q 650 34 642 44 q 667 20 658 24 q 687 16 677 16 q 707 20 697 16 q 724 30 716 24 q 738 39 732 35 q 749 43 745 43 q 758 33 758 43 q 755 25 758 30 q 749 16 752 20 q 725 -14 738 1 q 696 -40 711 -28 q 664 -58 681 -51 q 630 -64 648 -64 q 577 -50 598 -64 q 545 -12 557 -35 q 527 38 532 11 q 521 90 522 65 q 485 31 504 56 q 447 -13 466 5 q 376 -64 414 -44 q 289 -84 338 -84 q 190 -59 235 -84 q 111 15 144 -35 q 59 138 78 64 q 41 310 41 212 q 54 457 41 388 q 87 585 66 526 q 136 693 109 644 q 193 782 163 743 q 252 851 222 822 q 305 899 281 880 q 345 925 323 912 q 391 948 366 938 q 443 964 416 958 q 500 970 471 970 q 575 958 536 970 q 648 921 614 946 q 703 855 681 895 q 725 760 725 815 q 716 698 725 730 q 686 633 707 666 q 644 586 667 605 q 595 556 620 568 q 546 540 570 545 q 503 535 522 535 q 461 542 475 535 q 448 557 448 549 q 452 566 448 561 q 465 575 456 572 q 499 587 476 580 q 545 610 522 594 q 586 656 568 627 q 604 734 604 686 q 592 819 604 785 q 562 871 581 852 q 521 899 544 891 q 475 907 498 907 q 409 891 441 907 q 347 845 376 874 q 291 775 317 815 q 244 688 265 734 q 208 590 223 642 q 183 488 192 539 q 171 393 174 437 q 167 311 167 349 q 182 175 167 231 q 222 85 197 120 q 279 35 247 51 q 344 20 311 20 q 397 31 370 20 q 450 61 425 41 q 494 107 475 80 q 521 167 513 134 q 525 198 522 175 q 530 251 528 221 q 536 314 533 281 q 543 375 540 347 q 550 422 547 403 q 557 446 553 442 q 565 450 559 448 q 576 454 569 452 q 594 456 583 456 q 599 455 596 456 q 604 455 602 455 q 608 457 606 455 q 611 462 610 459 q 615 469 613 465 q 622 477 617 473 q 632 485 626 481 q 644 491 637 489 q 655 494 650 494 q 665 490 661 494 q 669 477 669 486 q 668 469 669 473 q 663 434 666 458 q 655 376 659 409 q 647 304 651 342 q 640 229 643 267 q 635 158 637 191 q 633 100 633 124 m 484 1117 q 486 1109 486 1113 q 481 1098 486 1102 q 470 1090 477 1095 q 446 1072 454 1080 q 429 1057 437 1063 q 418 1050 422 1053 q 408 1048 414 1048 q 398 1054 401 1048 q 389 1069 394 1060 q 375 1093 381 1080 q 364 1112 368 1105 q 361 1118 362 1116 q 359 1124 359 1121 q 366 1136 359 1130 q 376 1146 368 1139 q 394 1163 385 1154 q 412 1179 404 1172 q 422 1189 420 1187 q 428 1193 425 1191 q 435 1194 431 1194 q 442 1189 440 1194 q 450 1175 444 1185 q 464 1152 456 1164 q 476 1130 471 1140 q 484 1117 482 1120 m 656 1117 q 658 1109 658 1113 q 653 1098 658 1102 q 642 1090 649 1095 q 618 1072 627 1080 q 601 1057 610 1063 q 590 1050 595 1053 q 581 1048 586 1048 q 570 1054 574 1048 q 561 1069 566 1060 q 547 1093 553 1080 q 536 1112 541 1105 q 533 1118 534 1116 q 532 1124 532 1121 q 538 1136 532 1130 q 549 1146 541 1139 q 566 1163 557 1154 q 584 1179 576 1172 q 595 1189 592 1187 q 601 1193 597 1191 q 607 1194 604 1194 q 614 1189 612 1194 q 622 1175 616 1185 q 636 1152 629 1164 q 649 1130 643 1140 q 656 1117 654 1120 z "},"":{"ha":356,"x_min":-28,"x_max":379,"o":"m 378 236 q 340 129 357 175 q 304 53 322 83 q 267 6 287 22 q 222 -9 247 -9 q 194 1 205 -9 q 176 26 183 12 q 164 52 168 39 q 159 68 161 64 q 158 73 159 70 q 156 75 157 75 q 154 73 155 75 q 151 69 153 71 q 140 52 149 64 q 118 25 132 39 q 88 1 105 12 q 52 -9 71 -9 q 21 1 36 -9 q -4 28 7 11 q -21 69 -15 45 q -28 120 -28 93 q -9 231 -28 179 q 52 335 9 283 q 95 380 72 360 q 139 413 117 399 q 181 433 161 426 q 215 439 201 439 q 234 436 224 439 q 251 425 243 433 q 263 403 258 416 q 267 371 267 390 q 261 327 267 351 q 242 282 254 303 q 211 248 229 262 q 170 235 193 235 q 155 245 155 235 q 159 270 155 253 q 163 302 163 287 q 162 317 163 309 q 159 334 161 326 q 151 347 156 342 q 138 353 146 353 q 106 336 120 353 q 84 294 93 319 q 70 243 75 270 q 65 198 65 217 q 69 155 65 172 q 80 127 73 138 q 96 112 87 117 q 114 108 104 108 q 154 123 136 108 q 184 157 172 138 q 206 191 197 176 q 220 206 214 206 q 228 192 226 206 q 237 142 232 161 q 246 111 241 122 q 256 95 251 100 q 267 91 261 91 q 287 103 277 91 q 307 135 297 115 q 328 182 317 155 q 351 240 339 210 q 369 257 359 257 q 379 245 379 257 q 378 236 379 240 m 183 604 q 185 596 185 600 q 181 586 185 589 q 170 577 176 582 q 145 559 154 567 q 128 545 137 551 q 118 537 122 540 q 108 535 113 535 q 97 541 101 535 q 88 556 94 547 q 74 580 81 568 q 64 600 68 593 q 60 606 62 603 q 59 612 59 608 q 65 623 59 617 q 76 634 68 626 q 94 650 84 642 q 111 667 103 659 q 122 676 119 674 q 128 680 125 678 q 134 682 131 682 q 142 676 140 682 q 150 662 143 673 q 163 640 156 652 q 176 617 170 627 q 183 604 182 607 m 355 604 q 357 596 357 600 q 353 586 357 589 q 342 577 349 582 q 318 559 326 567 q 300 545 309 551 q 290 537 294 540 q 280 535 286 535 q 270 541 273 535 q 260 556 266 547 q 247 580 253 568 q 236 600 240 593 q 233 606 234 603 q 231 612 231 608 q 237 623 231 617 q 248 634 240 626 q 266 650 256 642 q 283 667 275 659 q 294 676 292 674 q 300 680 297 678 q 307 682 303 682 q 314 676 312 682 q 322 662 315 673 q 335 640 328 652 q 348 617 342 627 q 355 604 354 607 z "},"":{"ha":792,"x_min":41,"x_max":758,"o":"m 633 100 q 637 60 633 76 q 650 34 642 44 q 667 20 658 24 q 687 16 677 16 q 707 20 697 16 q 724 30 716 24 q 738 39 732 35 q 749 43 745 43 q 758 33 758 43 q 755 25 758 30 q 749 16 752 20 q 725 -14 738 1 q 696 -40 711 -28 q 664 -58 681 -51 q 630 -64 648 -64 q 577 -50 598 -64 q 545 -12 557 -35 q 527 38 532 11 q 521 90 522 65 q 485 31 504 56 q 447 -13 466 5 q 376 -64 414 -44 q 289 -84 338 -84 q 190 -59 235 -84 q 111 15 144 -35 q 59 138 78 64 q 41 310 41 212 q 54 457 41 388 q 87 585 66 526 q 136 693 109 644 q 193 782 163 743 q 252 851 222 822 q 305 899 281 880 q 345 925 323 912 q 391 948 366 938 q 443 964 416 958 q 500 970 471 970 q 575 958 536 970 q 648 921 614 946 q 703 855 681 895 q 725 760 725 815 q 716 698 725 730 q 686 633 707 666 q 644 586 667 605 q 595 556 620 568 q 546 540 570 545 q 503 535 522 535 q 461 542 475 535 q 448 557 448 549 q 452 566 448 561 q 465 575 456 572 q 499 587 476 580 q 545 610 522 594 q 586 656 568 627 q 604 734 604 686 q 592 819 604 785 q 562 871 581 852 q 521 899 544 891 q 475 907 498 907 q 409 891 441 907 q 347 845 376 874 q 291 775 317 815 q 244 688 265 734 q 208 590 223 642 q 183 488 192 539 q 171 393 174 437 q 167 311 167 349 q 182 175 167 231 q 222 85 197 120 q 279 35 247 51 q 344 20 311 20 q 397 31 370 20 q 450 61 425 41 q 494 107 475 80 q 521 167 513 134 q 525 198 522 175 q 530 251 528 221 q 536 314 533 281 q 543 375 540 347 q 550 422 547 403 q 557 446 553 442 q 565 450 559 448 q 576 454 569 452 q 594 456 583 456 q 599 455 596 456 q 604 455 602 455 q 608 457 606 455 q 611 462 610 459 q 615 469 613 465 q 622 477 617 473 q 632 485 626 481 q 644 491 637 489 q 655 494 650 494 q 665 490 661 494 q 669 477 669 486 q 668 469 669 473 q 663 434 666 458 q 655 376 659 409 q 647 304 651 342 q 640 229 643 267 q 635 158 637 191 q 633 100 633 124 m 613 1132 q 605 1086 613 1107 q 583 1048 597 1065 q 549 1023 568 1032 q 508 1014 530 1014 q 467 1023 486 1014 q 433 1048 448 1032 q 411 1086 419 1065 q 402 1132 402 1107 q 411 1178 402 1156 q 433 1215 419 1199 q 467 1241 448 1232 q 508 1250 486 1250 q 549 1241 530 1250 q 583 1215 568 1232 q 605 1178 597 1199 q 613 1132 613 1156 m 547 1150 q 515 1195 534 1178 q 481 1212 497 1212 q 461 1200 468 1212 q 455 1171 455 1189 q 463 1127 455 1149 q 483 1089 471 1106 q 509 1062 495 1072 q 534 1052 523 1052 q 554 1063 548 1052 q 560 1092 560 1074 q 557 1120 560 1105 q 547 1150 554 1135 z "},"":{"ha":356,"x_min":-28,"x_max":379,"o":"m 378 236 q 340 129 357 175 q 304 53 322 83 q 267 6 287 22 q 222 -9 247 -9 q 194 1 205 -9 q 176 26 183 12 q 164 52 168 39 q 159 68 161 64 q 158 73 159 70 q 156 75 157 75 q 154 73 155 75 q 151 69 153 71 q 140 52 149 64 q 118 25 132 39 q 88 1 105 12 q 52 -9 71 -9 q 21 1 36 -9 q -4 28 7 11 q -21 69 -15 45 q -28 120 -28 93 q -9 231 -28 179 q 52 335 9 283 q 95 380 72 360 q 139 413 117 399 q 181 433 161 426 q 215 439 201 439 q 234 436 224 439 q 251 425 243 433 q 263 403 258 416 q 267 371 267 390 q 261 327 267 351 q 242 282 254 303 q 211 248 229 262 q 170 235 193 235 q 155 245 155 235 q 159 270 155 253 q 163 302 163 287 q 162 317 163 309 q 159 334 161 326 q 151 347 156 342 q 138 353 146 353 q 106 336 120 353 q 84 294 93 319 q 70 243 75 270 q 65 198 65 217 q 69 155 65 172 q 80 127 73 138 q 96 112 87 117 q 114 108 104 108 q 154 123 136 108 q 184 157 172 138 q 206 191 197 176 q 220 206 214 206 q 228 192 226 206 q 237 142 232 161 q 246 111 241 122 q 256 95 251 100 q 267 91 261 91 q 287 103 277 91 q 307 135 297 115 q 328 182 317 155 q 351 240 339 210 q 369 257 359 257 q 379 245 379 257 q 378 236 379 240 m 313 619 q 304 573 313 595 q 282 536 296 552 q 249 510 268 519 q 208 501 229 501 q 166 510 186 501 q 133 536 147 519 q 110 573 119 552 q 102 619 102 595 q 110 665 102 644 q 133 703 119 686 q 166 728 147 719 q 208 737 186 737 q 249 728 229 737 q 282 703 268 719 q 304 665 296 686 q 313 619 313 644 m 246 637 q 215 682 233 665 q 180 699 197 699 q 161 688 168 699 q 155 659 155 676 q 163 615 155 636 q 183 576 171 593 q 209 549 195 559 q 234 539 222 539 q 254 550 248 539 q 260 579 260 562 q 257 607 260 592 q 246 637 254 622 z "},"":{"ha":1295,"x_min":41,"x_max":1299,"o":"m 1026 966 q 1142 950 1093 966 q 1223 911 1190 933 q 1273 867 1255 889 q 1295 832 1291 844 q 1298 822 1298 826 q 1299 814 1299 817 q 1295 802 1299 806 q 1286 790 1291 799 q 1277 781 1282 783 q 1266 776 1272 778 q 1255 771 1260 774 q 1246 761 1250 768 q 1216 741 1236 741 q 1194 748 1204 741 q 1169 766 1183 755 q 1138 789 1156 777 q 1094 813 1120 802 q 1031 831 1067 824 q 946 838 996 838 q 851 822 892 838 q 774 772 810 805 q 729 712 744 744 q 713 650 713 680 q 736 587 713 616 q 784 547 752 567 q 853 510 817 528 q 926 478 890 492 q 984 453 962 463 q 1010 435 1004 444 q 1017 417 1017 427 q 1013 396 1017 407 q 1009 373 1009 385 q 1010 363 1009 368 q 1012 353 1012 358 q 1005 335 1012 342 q 988 321 999 327 q 964 310 978 315 q 937 301 951 305 q 887 283 918 295 q 828 253 857 272 q 779 205 800 233 q 759 136 759 176 q 770 85 759 109 q 803 43 782 61 q 854 15 825 25 q 920 5 884 5 q 1069 41 1002 5 q 1178 139 1135 77 q 1201 178 1187 153 q 1229 240 1214 203 q 1238 253 1232 248 q 1249 257 1243 257 q 1256 254 1253 257 q 1259 245 1259 251 q 1253 223 1259 240 q 1236 182 1246 205 q 1210 132 1225 159 q 1177 79 1194 104 q 1120 15 1152 45 q 1050 -38 1088 -16 q 970 -73 1013 -60 q 880 -85 927 -85 q 826 -81 854 -85 q 773 -66 799 -76 q 724 -42 747 -57 q 683 -7 701 -27 q 636 -48 662 -31 q 583 -64 611 -64 q 536 -54 556 -64 q 504 -26 517 -44 q 484 14 491 -9 q 475 63 477 37 q 438 3 458 30 q 396 -44 418 -24 q 346 -74 373 -63 q 289 -84 319 -84 q 190 -59 235 -84 q 111 15 144 -35 q 59 138 78 64 q 41 310 41 212 q 54 457 41 388 q 87 585 66 526 q 136 693 109 644 q 193 782 163 743 q 252 851 222 822 q 305 899 281 880 q 345 925 323 912 q 391 948 366 938 q 443 964 416 958 q 500 970 471 970 q 564 962 530 970 q 628 934 597 953 q 682 887 658 916 q 717 819 706 859 q 779 879 745 852 q 853 925 814 906 q 937 956 893 945 q 1026 966 980 966 m 585 100 q 590 60 585 76 q 603 34 595 44 q 620 20 610 24 q 640 16 629 16 q 662 21 651 16 q 639 109 639 59 q 658 194 639 158 q 705 254 677 229 q 766 294 733 278 q 827 319 799 309 q 874 335 855 329 q 893 347 893 341 q 883 357 893 352 q 858 369 873 362 q 821 383 842 375 q 780 403 801 391 q 724 437 749 419 q 680 477 699 456 q 649 524 661 498 q 634 578 637 549 q 565 545 601 554 q 503 535 530 535 q 461 542 475 535 q 448 557 448 549 q 452 566 448 561 q 465 575 456 572 q 499 587 476 580 q 545 610 522 594 q 586 656 568 627 q 604 734 604 686 q 592 819 604 785 q 562 871 581 852 q 521 899 544 891 q 475 907 498 907 q 409 891 441 907 q 347 845 376 874 q 291 775 317 815 q 244 688 265 734 q 208 590 223 642 q 183 488 192 539 q 171 393 174 437 q 167 311 167 349 q 182 175 167 231 q 222 85 197 120 q 279 35 247 51 q 344 20 311 20 q 390 31 370 20 q 426 61 410 41 q 454 107 442 80 q 473 167 465 134 q 477 192 475 175 q 480 231 479 210 q 484 274 482 252 q 489 317 486 297 q 494 350 491 336 q 500 368 496 364 q 508 372 503 370 q 519 376 512 374 q 537 378 526 378 q 542 377 539 378 q 547 377 545 377 q 551 379 549 377 q 554 384 553 381 q 558 391 556 387 q 565 399 560 395 q 575 407 569 404 q 587 413 581 411 q 598 416 593 416 q 608 412 604 416 q 612 399 612 408 q 611 391 612 395 q 603 341 608 375 q 595 266 599 307 q 588 180 591 224 q 585 100 585 136 z "},"":{"ha":614,"x_min":-28,"x_max":637,"o":"m 222 -9 q 194 1 205 -9 q 176 26 183 12 q 164 52 168 39 q 159 68 161 64 q 158 73 159 70 q 156 75 157 75 q 154 73 155 75 q 151 69 153 71 q 140 52 149 64 q 118 25 132 39 q 88 1 105 12 q 52 -9 71 -9 q 21 1 36 -9 q -4 28 7 11 q -21 69 -15 45 q -28 120 -28 93 q -9 231 -28 179 q 52 335 9 283 q 95 380 72 360 q 139 413 117 399 q 181 433 161 426 q 215 439 201 439 q 234 436 224 439 q 251 425 243 433 q 263 403 258 416 q 267 371 267 390 q 261 327 267 351 q 242 282 254 303 q 211 248 229 262 q 170 235 193 235 q 155 245 155 235 q 159 270 155 253 q 163 302 163 287 q 162 317 163 309 q 159 334 161 326 q 151 347 156 342 q 138 353 146 353 q 106 336 120 353 q 84 294 93 319 q 70 243 75 270 q 65 198 65 217 q 69 155 65 172 q 80 127 73 138 q 96 112 87 117 q 114 108 104 108 q 154 123 136 108 q 184 157 172 138 q 206 191 197 176 q 220 206 214 206 q 228 192 226 206 q 249 98 236 130 q 268 66 262 66 q 281 72 273 66 q 271 144 271 101 q 276 191 271 168 q 288 237 280 215 q 306 277 296 258 q 326 311 315 296 q 363 356 343 335 q 402 394 382 378 q 441 418 422 410 q 477 427 460 427 q 522 408 503 427 q 541 351 541 388 q 525 288 541 321 q 485 222 509 254 q 433 160 461 189 q 382 111 406 131 q 413 67 394 81 q 451 53 431 53 q 506 73 481 53 q 549 121 530 92 q 583 180 568 149 q 609 235 597 212 q 617 248 613 243 q 627 252 621 252 q 634 250 631 252 q 637 241 637 247 q 635 231 637 236 q 613 178 625 203 q 591 133 602 153 q 568 91 579 111 q 536 48 553 68 q 498 13 519 28 q 454 -11 478 -2 q 404 -20 431 -20 q 377 -17 391 -20 q 349 -8 363 -14 q 322 8 335 -2 q 298 35 309 19 q 258 4 279 17 q 222 -9 238 -9 m 363 220 q 370 149 363 178 q 397 179 384 162 q 422 214 411 195 q 440 251 433 232 q 448 290 448 270 q 436 332 448 317 q 413 347 425 347 q 398 338 406 347 q 381 313 389 330 q 369 274 374 297 q 363 220 363 250 z "},"":{"ha":1295,"x_min":41,"x_max":1299,"o":"m 1026 966 q 1142 950 1093 966 q 1223 911 1190 933 q 1273 867 1255 889 q 1295 832 1291 844 q 1298 822 1298 826 q 1299 814 1299 817 q 1295 802 1299 806 q 1286 790 1291 799 q 1277 781 1282 783 q 1266 776 1272 778 q 1255 771 1260 774 q 1246 761 1250 768 q 1216 741 1236 741 q 1194 748 1204 741 q 1169 766 1183 755 q 1138 789 1156 777 q 1094 813 1120 802 q 1031 831 1067 824 q 946 838 996 838 q 851 822 892 838 q 774 772 810 805 q 729 712 744 744 q 713 650 713 680 q 736 587 713 616 q 784 547 752 567 q 853 510 817 528 q 926 478 890 492 q 984 453 962 463 q 1010 435 1004 444 q 1017 417 1017 427 q 1013 396 1017 407 q 1009 373 1009 385 q 1010 363 1009 368 q 1012 353 1012 358 q 1005 335 1012 342 q 988 321 999 327 q 964 310 978 315 q 937 301 951 305 q 887 283 918 295 q 828 253 857 272 q 779 205 800 233 q 759 136 759 176 q 770 85 759 109 q 803 43 782 61 q 854 15 825 25 q 920 5 884 5 q 1069 41 1002 5 q 1178 139 1135 77 q 1201 178 1187 153 q 1229 240 1214 203 q 1238 253 1232 248 q 1249 257 1243 257 q 1256 254 1253 257 q 1259 245 1259 251 q 1253 223 1259 240 q 1236 182 1246 205 q 1210 132 1225 159 q 1177 79 1194 104 q 1120 15 1152 45 q 1050 -38 1088 -16 q 970 -73 1013 -60 q 880 -85 927 -85 q 826 -81 854 -85 q 773 -66 799 -76 q 724 -42 747 -57 q 683 -7 701 -27 q 636 -48 662 -31 q 583 -64 611 -64 q 536 -54 556 -64 q 504 -26 517 -44 q 484 14 491 -9 q 475 63 477 37 q 438 3 458 30 q 396 -44 418 -24 q 346 -74 373 -63 q 289 -84 319 -84 q 190 -59 235 -84 q 111 15 144 -35 q 59 138 78 64 q 41 310 41 212 q 54 457 41 388 q 87 585 66 526 q 136 693 109 644 q 193 782 163 743 q 252 851 222 822 q 305 899 281 880 q 345 925 323 912 q 391 948 366 938 q 443 964 416 958 q 500 970 471 970 q 564 962 530 970 q 628 934 597 953 q 682 887 658 916 q 717 819 706 859 q 779 879 745 852 q 853 925 814 906 q 937 956 893 945 q 1026 966 980 966 m 585 100 q 590 60 585 76 q 603 34 595 44 q 620 20 610 24 q 640 16 629 16 q 662 21 651 16 q 639 109 639 59 q 658 194 639 158 q 705 254 677 229 q 766 294 733 278 q 827 319 799 309 q 874 335 855 329 q 893 347 893 341 q 883 357 893 352 q 858 369 873 362 q 821 383 842 375 q 780 403 801 391 q 724 437 749 419 q 680 477 699 456 q 649 524 661 498 q 634 578 637 549 q 565 545 601 554 q 503 535 530 535 q 461 542 475 535 q 448 557 448 549 q 452 566 448 561 q 465 575 456 572 q 499 587 476 580 q 545 610 522 594 q 586 656 568 627 q 604 734 604 686 q 592 819 604 785 q 562 871 581 852 q 521 899 544 891 q 475 907 498 907 q 409 891 441 907 q 347 845 376 874 q 291 775 317 815 q 244 688 265 734 q 208 590 223 642 q 183 488 192 539 q 171 393 174 437 q 167 311 167 349 q 182 175 167 231 q 222 85 197 120 q 279 35 247 51 q 344 20 311 20 q 390 31 370 20 q 426 61 410 41 q 454 107 442 80 q 473 167 465 134 q 477 192 475 175 q 480 231 479 210 q 484 274 482 252 q 489 317 486 297 q 494 350 491 336 q 500 368 496 364 q 508 372 503 370 q 519 376 512 374 q 537 378 526 378 q 542 377 539 378 q 547 377 545 377 q 551 379 549 377 q 554 384 553 381 q 558 391 556 387 q 565 399 560 395 q 575 407 569 404 q 587 413 581 411 q 598 416 593 416 q 608 412 604 416 q 612 399 612 408 q 611 391 612 395 q 603 341 608 375 q 595 266 599 307 q 588 180 591 224 q 585 100 585 136 m 876 1165 q 882 1152 882 1160 q 881 1144 882 1148 q 878 1136 879 1139 q 861 1110 871 1124 q 836 1081 851 1096 q 798 1052 820 1067 q 745 1023 776 1038 q 738 1021 741 1021 q 728 1032 728 1021 q 732 1043 728 1038 q 744 1060 734 1048 q 764 1092 753 1073 q 787 1137 775 1112 q 806 1192 798 1162 q 811 1202 807 1198 q 819 1205 816 1205 q 827 1200 824 1205 q 840 1189 833 1191 q 849 1185 846 1187 q 861 1177 855 1179 q 876 1165 866 1174 z "},"":{"ha":614,"x_min":-28,"x_max":637,"o":"m 222 -9 q 194 1 205 -9 q 176 26 183 12 q 164 52 168 39 q 159 68 161 64 q 158 73 159 70 q 156 75 157 75 q 154 73 155 75 q 151 69 153 71 q 140 52 149 64 q 118 25 132 39 q 88 1 105 12 q 52 -9 71 -9 q 21 1 36 -9 q -4 28 7 11 q -21 69 -15 45 q -28 120 -28 93 q -9 231 -28 179 q 52 335 9 283 q 95 380 72 360 q 139 413 117 399 q 181 433 161 426 q 215 439 201 439 q 234 436 224 439 q 251 425 243 433 q 263 403 258 416 q 267 371 267 390 q 261 327 267 351 q 242 282 254 303 q 211 248 229 262 q 170 235 193 235 q 155 245 155 235 q 159 270 155 253 q 163 302 163 287 q 162 317 163 309 q 159 334 161 326 q 151 347 156 342 q 138 353 146 353 q 106 336 120 353 q 84 294 93 319 q 70 243 75 270 q 65 198 65 217 q 69 155 65 172 q 80 127 73 138 q 96 112 87 117 q 114 108 104 108 q 154 123 136 108 q 184 157 172 138 q 206 191 197 176 q 220 206 214 206 q 228 192 226 206 q 249 98 236 130 q 268 66 262 66 q 281 72 273 66 q 271 144 271 101 q 276 191 271 168 q 288 237 280 215 q 306 277 296 258 q 326 311 315 296 q 363 356 343 335 q 402 394 382 378 q 441 418 422 410 q 477 427 460 427 q 522 408 503 427 q 541 351 541 388 q 525 288 541 321 q 485 222 509 254 q 433 160 461 189 q 382 111 406 131 q 413 67 394 81 q 451 53 431 53 q 506 73 481 53 q 549 121 530 92 q 583 180 568 149 q 609 235 597 212 q 617 248 613 243 q 627 252 621 252 q 634 250 631 252 q 637 241 637 247 q 635 231 637 236 q 613 178 625 203 q 591 133 602 153 q 568 91 579 111 q 536 48 553 68 q 498 13 519 28 q 454 -11 478 -2 q 404 -20 431 -20 q 377 -17 391 -20 q 349 -8 363 -14 q 322 8 335 -2 q 298 35 309 19 q 258 4 279 17 q 222 -9 238 -9 m 363 220 q 370 149 363 178 q 397 179 384 162 q 422 214 411 195 q 440 251 433 232 q 448 290 448 270 q 436 332 448 317 q 413 347 425 347 q 398 338 406 347 q 381 313 389 330 q 369 274 374 297 q 363 220 363 250 m 461 648 q 467 635 467 643 q 466 627 467 631 q 463 619 464 623 q 446 593 456 607 q 420 565 436 579 q 383 535 405 550 q 330 507 361 521 q 323 505 326 505 q 313 515 313 505 q 317 526 313 521 q 329 544 319 531 q 349 575 338 556 q 372 620 360 595 q 391 675 383 645 q 396 685 392 682 q 404 688 401 688 q 412 683 409 688 q 425 672 418 674 q 434 668 431 671 q 446 660 440 663 q 461 648 451 657 z "},"":{"ha":792,"x_min":41,"x_max":758,"o":"m 633 100 q 637 60 633 76 q 650 34 642 44 q 667 20 658 24 q 687 16 677 16 q 707 20 697 16 q 724 30 716 24 q 738 39 732 35 q 749 43 745 43 q 758 33 758 43 q 755 25 758 30 q 749 16 752 20 q 725 -14 738 1 q 696 -40 711 -28 q 664 -58 681 -51 q 630 -64 648 -64 q 577 -50 598 -64 q 545 -12 557 -35 q 527 38 532 11 q 521 90 522 65 q 485 31 504 56 q 447 -13 466 5 q 376 -64 414 -44 q 289 -84 338 -84 q 190 -59 235 -84 q 111 15 144 -35 q 59 138 78 64 q 41 310 41 212 q 54 457 41 388 q 87 585 66 526 q 136 693 109 644 q 193 782 163 743 q 252 851 222 822 q 305 899 281 880 q 345 925 323 912 q 391 948 366 938 q 443 964 416 958 q 500 970 471 970 q 575 958 536 970 q 648 921 614 946 q 703 855 681 895 q 725 760 725 815 q 716 698 725 730 q 686 633 707 666 q 644 586 667 605 q 595 556 620 568 q 546 540 570 545 q 503 535 522 535 q 461 542 475 535 q 448 557 448 549 q 452 566 448 561 q 465 575 456 572 q 499 587 476 580 q 545 610 522 594 q 586 656 568 627 q 604 734 604 686 q 592 819 604 785 q 562 871 581 852 q 521 899 544 891 q 475 907 498 907 q 409 891 441 907 q 347 845 376 874 q 291 775 317 815 q 244 688 265 734 q 208 590 223 642 q 183 488 192 539 q 171 393 174 437 q 167 311 167 349 q 182 175 167 231 q 222 85 197 120 q 279 35 247 51 q 344 20 311 20 q 397 31 370 20 q 450 61 425 41 q 494 107 475 80 q 521 167 513 134 q 525 198 522 175 q 530 251 528 221 q 536 314 533 281 q 543 375 540 347 q 550 422 547 403 q 557 446 553 442 q 565 450 559 448 q 576 454 569 452 q 594 456 583 456 q 599 455 596 456 q 604 455 602 455 q 608 457 606 455 q 611 462 610 459 q 615 469 613 465 q 622 477 617 473 q 632 485 626 481 q 644 491 637 489 q 655 494 650 494 q 665 490 661 494 q 669 477 669 486 q 668 469 669 473 q 663 434 666 458 q 655 376 659 409 q 647 304 651 342 q 640 229 643 267 q 635 158 637 191 q 633 100 633 124 m 657 1172 q 651 1158 654 1165 q 643 1148 648 1150 q 641 1142 640 1147 q 640 1135 641 1138 q 638 1130 639 1134 q 637 1124 637 1126 q 638 1119 637 1121 q 639 1115 638 1118 q 633 1103 639 1109 q 613 1093 627 1097 q 573 1085 598 1088 q 508 1082 547 1082 q 455 1085 479 1082 q 413 1092 431 1088 q 384 1099 395 1095 q 372 1103 374 1102 q 369 1116 369 1107 q 370 1126 369 1118 q 372 1141 371 1133 q 390 1154 375 1154 q 401 1153 394 1154 q 423 1152 408 1152 q 450 1153 435 1152 q 480 1155 465 1154 q 511 1157 496 1156 q 538 1159 526 1158 q 580 1166 562 1162 q 612 1174 599 1170 q 633 1181 625 1178 q 644 1183 642 1183 q 657 1175 657 1183 l 657 1172 l 657 1172 z "},"":{"ha":356,"x_min":-28,"x_max":379,"o":"m 378 236 q 340 129 357 175 q 304 53 322 83 q 267 6 287 22 q 222 -9 247 -9 q 194 1 205 -9 q 176 26 183 12 q 164 52 168 39 q 159 68 161 64 q 158 73 159 70 q 156 75 157 75 q 154 73 155 75 q 151 69 153 71 q 140 52 149 64 q 118 25 132 39 q 88 1 105 12 q 52 -9 71 -9 q 21 1 36 -9 q -4 28 7 11 q -21 69 -15 45 q -28 120 -28 93 q -9 231 -28 179 q 52 335 9 283 q 95 380 72 360 q 139 413 117 399 q 181 433 161 426 q 215 439 201 439 q 234 436 224 439 q 251 425 243 433 q 263 403 258 416 q 267 371 267 390 q 261 327 267 351 q 242 282 254 303 q 211 248 229 262 q 170 235 193 235 q 155 245 155 235 q 159 270 155 253 q 163 302 163 287 q 162 317 163 309 q 159 334 161 326 q 151 347 156 342 q 138 353 146 353 q 106 336 120 353 q 84 294 93 319 q 70 243 75 270 q 65 198 65 217 q 69 155 65 172 q 80 127 73 138 q 96 112 87 117 q 114 108 104 108 q 154 123 136 108 q 184 157 172 138 q 206 191 197 176 q 220 206 214 206 q 228 192 226 206 q 237 142 232 161 q 246 111 241 122 q 256 95 251 100 q 267 91 261 91 q 287 103 277 91 q 307 135 297 115 q 328 182 317 155 q 351 240 339 210 q 369 257 359 257 q 379 245 379 257 q 378 236 379 240 m 357 659 q 350 645 353 652 q 342 635 347 637 q 340 630 340 634 q 339 623 340 625 q 338 617 338 621 q 337 611 337 613 q 337 607 337 608 q 338 602 338 605 q 333 590 338 596 q 312 580 327 585 q 272 572 298 575 q 208 569 247 569 q 155 572 179 569 q 112 579 130 575 q 84 586 94 583 q 72 591 73 589 q 68 603 68 594 q 70 613 68 606 q 72 629 71 621 q 90 642 75 642 q 101 641 94 642 q 123 640 108 640 q 150 640 135 640 q 180 642 165 641 q 210 644 195 643 q 237 646 225 645 q 280 653 261 649 q 312 661 298 657 q 333 668 325 665 q 344 671 341 671 q 357 662 357 671 l 357 659 l 357 659 z "},"":{"ha":792,"x_min":41,"x_max":758,"o":"m 633 100 q 637 60 633 76 q 650 34 642 44 q 667 20 658 24 q 687 16 677 16 q 707 20 697 16 q 724 30 716 24 q 738 39 732 35 q 749 43 745 43 q 758 33 758 43 q 755 25 758 30 q 749 16 752 20 q 725 -14 738 1 q 696 -40 711 -28 q 664 -58 681 -51 q 630 -64 648 -64 q 577 -50 598 -64 q 545 -12 557 -35 q 527 38 532 11 q 521 90 522 65 q 485 31 504 56 q 447 -13 466 5 q 376 -64 414 -44 q 289 -84 338 -84 q 190 -59 235 -84 q 111 15 144 -35 q 59 138 78 64 q 41 310 41 212 q 54 457 41 388 q 87 585 66 526 q 136 693 109 644 q 193 782 163 743 q 252 851 222 822 q 305 899 281 880 q 345 925 323 912 q 391 948 366 938 q 443 964 416 958 q 500 970 471 970 q 575 958 536 970 q 648 921 614 946 q 703 855 681 895 q 725 760 725 815 q 716 698 725 730 q 686 633 707 666 q 644 586 667 605 q 595 556 620 568 q 546 540 570 545 q 503 535 522 535 q 461 542 475 535 q 448 557 448 549 q 452 566 448 561 q 465 575 456 572 q 499 587 476 580 q 545 610 522 594 q 586 656 568 627 q 604 734 604 686 q 592 819 604 785 q 562 871 581 852 q 521 899 544 891 q 475 907 498 907 q 409 891 441 907 q 347 845 376 874 q 291 775 317 815 q 244 688 265 734 q 208 590 223 642 q 183 488 192 539 q 171 393 174 437 q 167 311 167 349 q 182 175 167 231 q 222 85 197 120 q 279 35 247 51 q 344 20 311 20 q 397 31 370 20 q 450 61 425 41 q 494 107 475 80 q 521 167 513 134 q 525 198 522 175 q 530 251 528 221 q 536 314 533 281 q 543 375 540 347 q 550 422 547 403 q 557 446 553 442 q 565 450 559 448 q 576 454 569 452 q 594 456 583 456 q 599 455 596 456 q 604 455 602 455 q 608 457 606 455 q 611 462 610 459 q 615 469 613 465 q 622 477 617 473 q 632 485 626 481 q 644 491 637 489 q 655 494 650 494 q 665 490 661 494 q 669 477 669 486 q 668 469 669 473 q 663 434 666 458 q 655 376 659 409 q 647 304 651 342 q 640 229 643 267 q 635 158 637 191 q 633 100 633 124 m 656 1187 q 648 1143 656 1168 q 622 1096 640 1118 q 574 1057 604 1073 q 503 1041 545 1041 q 447 1053 469 1041 q 413 1082 425 1065 q 396 1121 401 1100 q 391 1161 391 1143 q 394 1190 391 1177 q 407 1203 396 1203 q 415 1200 411 1203 q 419 1191 418 1197 q 424 1171 420 1183 q 439 1146 429 1158 q 467 1125 450 1134 q 511 1116 484 1116 q 554 1122 534 1116 q 591 1138 575 1128 q 618 1160 608 1147 q 631 1187 628 1173 q 646 1200 634 1200 q 656 1187 656 1200 z "},"":{"ha":356,"x_min":-28,"x_max":379,"o":"m 378 236 q 340 129 357 175 q 304 53 322 83 q 267 6 287 22 q 222 -9 247 -9 q 194 1 205 -9 q 176 26 183 12 q 164 52 168 39 q 159 68 161 64 q 158 73 159 70 q 156 75 157 75 q 154 73 155 75 q 151 69 153 71 q 140 52 149 64 q 118 25 132 39 q 88 1 105 12 q 52 -9 71 -9 q 21 1 36 -9 q -4 28 7 11 q -21 69 -15 45 q -28 120 -28 93 q -9 231 -28 179 q 52 335 9 283 q 95 380 72 360 q 139 413 117 399 q 181 433 161 426 q 215 439 201 439 q 234 436 224 439 q 251 425 243 433 q 263 403 258 416 q 267 371 267 390 q 261 327 267 351 q 242 282 254 303 q 211 248 229 262 q 170 235 193 235 q 155 245 155 235 q 159 270 155 253 q 163 302 163 287 q 162 317 163 309 q 159 334 161 326 q 151 347 156 342 q 138 353 146 353 q 106 336 120 353 q 84 294 93 319 q 70 243 75 270 q 65 198 65 217 q 69 155 65 172 q 80 127 73 138 q 96 112 87 117 q 114 108 104 108 q 154 123 136 108 q 184 157 172 138 q 206 191 197 176 q 220 206 214 206 q 228 192 226 206 q 237 142 232 161 q 246 111 241 122 q 256 95 251 100 q 267 91 261 91 q 287 103 277 91 q 307 135 297 115 q 328 182 317 155 q 351 240 339 210 q 369 257 359 257 q 379 245 379 257 q 378 236 379 240 m 356 674 q 348 631 356 656 q 321 583 340 606 q 274 544 303 560 q 202 528 244 528 q 146 540 168 528 q 113 570 125 552 q 96 609 100 587 q 91 648 91 630 q 93 677 91 665 q 106 690 96 690 q 114 687 111 690 q 119 678 118 684 q 124 658 119 671 q 139 633 128 646 q 166 612 149 621 q 210 604 184 604 q 254 609 233 604 q 291 625 275 615 q 317 647 307 635 q 331 674 328 660 q 345 687 334 687 q 356 674 356 687 z "},"":{"ha":792,"x_min":41,"x_max":758,"o":"m 653 -296 q 614 -288 632 -296 q 583 -266 596 -280 q 561 -233 569 -252 q 553 -192 553 -214 q 571 -123 553 -155 q 618 -64 588 -91 q 568 -41 587 -58 q 539 -3 549 -25 q 525 43 529 19 q 521 90 522 68 q 485 31 504 56 q 447 -13 466 5 q 376 -64 414 -44 q 289 -84 338 -84 q 190 -59 235 -84 q 111 15 144 -35 q 59 138 78 64 q 41 310 41 212 q 54 457 41 388 q 87 585 66 526 q 136 693 109 644 q 193 782 163 743 q 252 851 222 822 q 305 899 281 880 q 345 925 323 912 q 391 948 366 938 q 443 964 416 958 q 500 970 471 970 q 575 958 536 970 q 648 921 614 946 q 703 855 681 895 q 725 760 725 815 q 716 698 725 730 q 686 633 707 666 q 644 586 667 605 q 595 556 620 568 q 546 540 570 545 q 503 535 522 535 q 461 542 475 535 q 448 557 448 549 q 452 566 448 561 q 465 575 456 572 q 499 587 476 580 q 545 610 522 594 q 586 656 568 627 q 604 734 604 686 q 592 819 604 785 q 562 871 581 852 q 521 899 544 891 q 475 907 498 907 q 409 891 441 907 q 347 845 376 874 q 291 775 317 815 q 244 688 265 734 q 208 590 223 642 q 183 488 192 539 q 171 393 174 437 q 167 311 167 349 q 182 175 167 231 q 222 85 197 120 q 279 35 247 51 q 344 20 311 20 q 397 31 370 20 q 450 61 425 41 q 494 107 475 80 q 521 167 513 134 q 525 198 522 175 q 530 251 528 221 q 536 314 533 281 q 543 375 540 347 q 550 422 547 403 q 557 446 553 442 q 565 450 559 448 q 576 454 569 452 q 594 456 583 456 q 599 455 596 456 q 604 455 602 455 q 608 457 606 455 q 611 462 610 459 q 615 469 613 465 q 622 477 617 473 q 632 485 626 481 q 644 491 637 489 q 655 494 650 494 q 665 490 661 494 q 669 477 669 486 q 668 469 669 473 q 663 434 666 458 q 655 376 659 409 q 647 304 651 342 q 640 229 643 267 q 635 158 637 191 q 633 100 633 124 q 637 60 633 76 q 650 34 642 44 q 667 20 658 24 q 687 16 677 16 q 707 20 697 16 q 724 30 716 24 q 738 39 732 35 q 749 43 745 43 q 758 33 758 43 q 755 25 758 30 q 749 16 752 20 q 704 -28 727 -12 q 662 -62 681 -45 q 630 -100 642 -79 q 618 -160 618 -122 q 624 -196 618 -181 q 638 -219 629 -210 q 659 -233 648 -229 q 680 -237 670 -237 q 702 -233 692 -237 q 719 -223 711 -229 q 732 -209 726 -216 q 743 -194 738 -201 q 751 -189 747 -189 q 758 -199 758 -189 q 754 -219 758 -203 q 738 -252 749 -235 q 705 -283 726 -269 q 653 -296 685 -296 z "},"":{"ha":356,"x_min":-28,"x_max":379,"o":"m 274 -242 q 235 -234 253 -242 q 203 -212 217 -226 q 182 -179 190 -198 q 174 -138 174 -160 q 188 -70 174 -102 q 224 -9 202 -37 l 222 -9 q 194 1 205 -9 q 176 26 183 12 q 164 52 168 39 q 159 68 161 64 q 158 73 159 70 q 156 75 157 75 q 154 73 155 75 q 151 69 153 71 q 140 52 149 64 q 118 25 132 39 q 88 1 105 12 q 52 -9 71 -9 q 21 1 36 -9 q -4 28 7 11 q -21 69 -15 45 q -28 120 -28 93 q -9 231 -28 179 q 52 335 9 283 q 95 380 72 360 q 139 413 117 399 q 181 433 161 426 q 215 439 201 439 q 234 436 224 439 q 251 425 243 433 q 263 403 258 416 q 267 371 267 390 q 261 327 267 351 q 242 282 254 303 q 211 248 229 262 q 170 235 193 235 q 155 245 155 235 q 159 270 155 253 q 163 302 163 287 q 162 317 163 309 q 159 334 161 326 q 151 347 156 342 q 138 353 146 353 q 106 336 120 353 q 84 294 93 319 q 70 243 75 270 q 65 198 65 217 q 69 155 65 172 q 80 127 73 138 q 96 112 87 117 q 114 108 104 108 q 154 123 136 108 q 184 157 172 138 q 206 191 197 176 q 220 206 214 206 q 228 192 226 206 q 237 142 232 161 q 246 111 241 122 q 256 95 251 100 q 267 91 261 91 q 287 103 277 91 q 307 135 297 115 q 328 182 317 155 q 351 240 339 210 q 369 257 359 257 q 379 245 379 257 q 378 236 379 240 q 325 98 349 152 q 277 15 300 44 q 264 -3 271 8 q 252 -29 258 -14 q 242 -63 246 -44 q 239 -106 239 -83 q 244 -141 239 -127 q 259 -165 250 -156 q 280 -179 269 -174 q 301 -183 291 -183 q 322 -179 313 -183 q 339 -169 332 -175 q 353 -155 347 -162 q 364 -140 359 -147 q 372 -135 368 -135 q 379 -144 379 -135 q 375 -164 379 -149 q 358 -198 370 -180 q 326 -229 347 -215 q 274 -242 306 -242 z "},"":{"ha":769,"x_min":44,"x_max":725,"o":"m 484 -214 q 475 -259 484 -239 q 449 -292 465 -279 q 413 -312 433 -305 q 369 -319 392 -319 q 330 -311 346 -319 q 304 -294 314 -304 q 289 -273 294 -283 q 284 -255 284 -262 q 292 -245 284 -245 q 300 -249 296 -245 q 310 -257 304 -252 q 326 -265 316 -261 q 351 -269 336 -269 q 398 -252 379 -269 q 416 -209 416 -236 q 412 -190 416 -198 q 402 -178 408 -182 q 389 -171 396 -173 q 374 -168 381 -168 q 353 -171 361 -168 q 340 -175 345 -173 q 332 -180 335 -178 q 327 -182 330 -182 q 320 -179 323 -182 q 317 -172 317 -176 q 322 -162 317 -168 q 335 -145 327 -155 q 352 -120 342 -135 q 372 -82 362 -104 q 230 -46 292 -82 q 127 49 169 -11 q 65 189 86 109 q 44 358 44 269 q 66 551 44 465 q 120 705 87 638 q 192 818 153 771 q 264 890 230 864 q 306 920 281 905 q 359 946 330 935 q 421 966 389 958 q 489 974 454 974 q 587 955 543 974 q 661 905 631 937 q 708 830 692 873 q 725 739 725 787 q 716 667 725 703 q 687 596 707 631 q 643 540 669 564 q 591 500 618 516 q 537 476 564 484 q 492 469 511 469 q 464 474 473 469 q 454 488 454 479 q 471 504 454 497 q 503 523 481 509 q 546 563 524 537 q 583 628 567 589 q 600 721 600 667 q 585 802 600 768 q 548 856 571 835 q 496 886 525 876 q 438 895 467 895 q 326 858 376 895 q 242 756 277 821 q 189 604 208 691 q 171 416 171 517 q 182 283 171 342 q 212 179 193 224 q 257 101 231 134 q 311 49 283 69 q 370 19 340 28 q 429 9 400 9 q 521 28 480 9 q 594 78 562 47 q 651 152 627 110 q 694 240 675 193 q 703 253 697 249 q 714 257 709 257 q 724 246 724 257 q 718 224 724 241 q 702 182 712 206 q 677 129 691 157 q 646 75 663 101 q 538 -36 598 3 q 398 -81 478 -75 q 392 -102 395 -90 q 385 -131 389 -115 q 394 -130 389 -130 q 402 -130 398 -130 q 465 -153 445 -130 q 484 -214 484 -177 z "},"":{"ha":319,"x_min":-23,"x_max":342,"o":"m 233 -153 q 223 -198 233 -178 q 198 -231 214 -218 q 161 -251 182 -244 q 117 -258 140 -258 q 78 -250 94 -258 q 52 -233 62 -243 q 37 -212 42 -222 q 33 -194 33 -201 q 40 -184 33 -184 q 48 -188 44 -184 q 58 -196 52 -191 q 74 -204 64 -200 q 100 -208 84 -208 q 146 -191 127 -208 q 165 -148 165 -175 q 161 -129 165 -137 q 151 -117 157 -121 q 137 -110 144 -112 q 123 -107 130 -107 q 102 -110 110 -107 q 89 -114 94 -112 q 81 -119 83 -117 q 75 -121 78 -121 q 69 -118 72 -121 q 66 -111 66 -115 q 71 -100 66 -107 q 84 -83 76 -94 q 103 -55 92 -72 q 123 -14 113 -39 q 117 -15 120 -14 q 110 -15 113 -15 q 67 -8 90 -15 q 24 17 44 -1 q -9 67 4 35 q -23 151 -23 100 q -7 240 -23 191 q 46 335 9 288 q 94 386 70 366 q 140 418 118 406 q 181 435 162 430 q 214 439 200 439 q 233 436 224 439 q 250 424 243 432 q 262 402 258 416 q 267 371 267 389 q 261 329 267 351 q 243 288 256 308 q 223 262 234 272 q 201 245 212 252 q 182 237 191 239 q 169 235 174 235 q 155 246 155 235 q 159 269 155 254 q 163 306 163 285 q 162 318 163 311 q 160 334 162 326 q 153 347 157 341 q 140 353 148 353 q 119 343 130 353 q 98 315 108 334 q 77 257 82 288 q 72 202 72 227 q 76 156 72 181 q 91 109 81 131 q 117 72 100 87 q 157 58 133 58 q 211 78 187 58 q 255 126 235 98 q 289 186 274 155 q 315 240 304 218 q 333 257 323 257 q 342 245 342 257 q 340 234 342 241 q 318 180 330 205 q 296 136 307 155 q 273 95 284 114 q 219 29 250 57 q 149 -9 188 1 l 133 -70 q 142 -68 138 -68 q 151 -68 146 -68 q 213 -92 193 -68 q 233 -153 233 -116 z "},"":{"ha":769,"x_min":44,"x_max":725,"o":"m 725 739 q 716 667 725 703 q 687 596 707 631 q 643 540 669 564 q 591 500 618 516 q 537 476 564 484 q 492 469 511 469 q 464 474 473 469 q 454 488 454 479 q 471 504 454 497 q 503 523 481 509 q 546 563 524 537 q 583 628 567 589 q 600 721 600 667 q 585 802 600 768 q 548 856 571 835 q 496 886 525 876 q 438 895 467 895 q 326 858 376 895 q 242 756 277 821 q 189 604 208 691 q 171 416 171 517 q 182 283 171 342 q 212 179 193 224 q 257 101 231 134 q 311 49 283 69 q 370 19 340 28 q 429 9 400 9 q 521 28 480 9 q 594 78 562 47 q 651 152 627 110 q 694 240 675 193 q 703 253 697 249 q 714 257 709 257 q 724 246 724 257 q 718 224 724 241 q 702 182 712 206 q 677 129 691 157 q 646 75 663 101 q 529 -42 595 -3 q 373 -82 463 -82 q 231 -47 292 -82 q 128 49 170 -12 q 65 189 86 109 q 44 358 44 269 q 66 551 44 465 q 120 705 87 638 q 192 818 153 771 q 264 890 230 864 q 306 920 281 905 q 359 946 330 935 q 421 966 389 958 q 489 974 454 974 q 587 955 543 974 q 661 905 631 937 q 708 830 692 873 q 725 739 725 787 m 600 1172 q 606 1159 606 1166 q 604 1151 606 1155 q 601 1143 602 1146 q 585 1117 595 1131 q 559 1088 574 1103 q 521 1059 543 1074 q 469 1030 499 1044 q 461 1028 465 1028 q 452 1039 452 1028 q 455 1050 452 1044 q 467 1067 458 1055 q 487 1099 476 1080 q 510 1143 498 1118 q 529 1198 522 1168 q 535 1208 530 1205 q 543 1212 539 1212 q 551 1206 547 1212 q 563 1196 557 1198 q 572 1192 570 1194 q 584 1183 578 1186 q 600 1172 589 1181 z "},"":{"ha":319,"x_min":-23,"x_max":342,"o":"m 333 257 q 342 245 342 257 q 340 234 342 241 q 318 180 330 205 q 296 136 307 155 q 273 95 284 114 q 241 51 259 71 q 203 17 224 31 q 160 -6 183 2 q 110 -15 136 -15 q 67 -8 90 -15 q 24 17 44 -1 q -9 67 4 35 q -23 151 -23 100 q -7 240 -23 191 q 46 335 9 288 q 94 386 70 366 q 140 418 118 406 q 181 435 162 430 q 214 439 200 439 q 233 436 224 439 q 250 424 243 432 q 262 402 258 416 q 267 371 267 389 q 261 329 267 351 q 243 288 256 308 q 223 262 234 272 q 201 245 212 252 q 182 237 191 239 q 169 235 174 235 q 155 246 155 235 q 159 269 155 254 q 163 306 163 285 q 162 318 163 311 q 160 334 162 326 q 153 347 157 341 q 140 353 148 353 q 119 343 130 353 q 98 315 108 334 q 77 257 82 288 q 72 202 72 227 q 76 156 72 181 q 91 109 81 131 q 117 72 100 87 q 157 58 133 58 q 211 78 187 58 q 255 126 235 98 q 289 186 274 155 q 315 240 304 218 q 333 257 323 257 m 317 659 q 323 646 323 653 q 321 637 323 642 q 318 629 319 633 q 302 603 312 617 q 276 575 292 589 q 238 546 260 560 q 186 517 216 531 q 178 515 182 515 q 169 526 169 515 q 172 536 169 531 q 184 554 175 541 q 204 586 193 566 q 227 630 216 605 q 246 685 239 655 q 252 695 248 692 q 260 699 256 699 q 268 693 264 699 q 280 683 274 684 q 290 678 287 681 q 301 670 296 673 q 317 659 307 667 z "},"":{"ha":769,"x_min":44,"x_max":725,"o":"m 725 739 q 716 667 725 703 q 687 596 707 631 q 643 540 669 564 q 591 500 618 516 q 537 476 564 484 q 492 469 511 469 q 464 474 473 469 q 454 488 454 479 q 471 504 454 497 q 503 523 481 509 q 546 563 524 537 q 583 628 567 589 q 600 721 600 667 q 585 802 600 768 q 548 856 571 835 q 496 886 525 876 q 438 895 467 895 q 326 858 376 895 q 242 756 277 821 q 189 604 208 691 q 171 416 171 517 q 182 283 171 342 q 212 179 193 224 q 257 101 231 134 q 311 49 283 69 q 370 19 340 28 q 429 9 400 9 q 521 28 480 9 q 594 78 562 47 q 651 152 627 110 q 694 240 675 193 q 703 253 697 249 q 714 257 709 257 q 724 246 724 257 q 718 224 724 241 q 702 182 712 206 q 677 129 691 157 q 646 75 663 101 q 529 -42 595 -3 q 373 -82 463 -82 q 231 -47 292 -82 q 128 49 170 -12 q 65 189 86 109 q 44 358 44 269 q 66 551 44 465 q 120 705 87 638 q 192 818 153 771 q 264 890 230 864 q 306 920 281 905 q 359 946 330 935 q 421 966 389 958 q 489 974 454 974 q 587 955 543 974 q 661 905 631 937 q 708 830 692 873 q 725 739 725 787 m 621 1048 q 627 1038 627 1042 q 624 1031 627 1034 q 615 1028 621 1028 q 602 1031 610 1028 q 585 1037 597 1033 q 557 1051 573 1042 q 522 1076 541 1061 q 483 1114 503 1090 q 453 1089 471 1101 q 419 1066 436 1076 q 387 1047 402 1055 q 365 1036 372 1039 q 354 1033 359 1033 q 345 1042 345 1033 q 351 1055 345 1047 q 366 1072 357 1062 q 390 1099 376 1082 q 425 1139 405 1115 q 471 1198 445 1163 q 490 1210 481 1210 q 502 1206 497 1210 q 512 1192 507 1202 q 542 1147 525 1171 q 575 1102 559 1123 q 604 1067 591 1082 q 621 1048 616 1052 z "},"":{"ha":319,"x_min":-23,"x_max":345,"o":"m 333 257 q 342 245 342 257 q 340 234 342 241 q 318 180 330 205 q 296 136 307 155 q 273 95 284 114 q 241 51 259 71 q 203 17 224 31 q 160 -6 183 2 q 110 -15 136 -15 q 67 -8 90 -15 q 24 17 44 -1 q -9 67 4 35 q -23 151 -23 100 q -7 240 -23 191 q 46 335 9 288 q 94 386 70 366 q 140 418 118 406 q 181 435 162 430 q 214 439 200 439 q 233 436 224 439 q 250 424 243 432 q 262 402 258 416 q 267 371 267 389 q 261 329 267 351 q 243 288 256 308 q 223 262 234 272 q 201 245 212 252 q 182 237 191 239 q 169 235 174 235 q 155 246 155 235 q 159 269 155 254 q 163 306 163 285 q 162 318 163 311 q 160 334 162 326 q 153 347 157 341 q 140 353 148 353 q 119 343 130 353 q 98 315 108 334 q 77 257 82 288 q 72 202 72 227 q 76 156 72 181 q 91 109 81 131 q 117 72 100 87 q 157 58 133 58 q 211 78 187 58 q 255 126 235 98 q 289 186 274 155 q 315 240 304 218 q 333 257 323 257 m 338 534 q 345 524 345 528 q 341 517 345 520 q 332 515 338 515 q 319 517 327 515 q 302 524 314 519 q 274 538 290 528 q 239 562 258 547 q 200 600 220 577 q 171 575 188 588 q 136 552 153 563 q 104 534 119 542 q 82 522 90 526 q 71 519 76 519 q 62 528 62 519 q 68 542 62 534 q 83 559 74 549 q 107 585 93 569 q 142 626 122 602 q 189 685 162 650 q 208 696 198 696 q 219 692 214 696 q 229 679 224 688 q 259 633 242 657 q 292 589 276 610 q 321 553 309 568 q 338 534 334 538 z "},"":{"ha":769,"x_min":44,"x_max":725,"o":"m 725 739 q 716 667 725 703 q 687 596 707 631 q 643 540 669 564 q 591 500 618 516 q 537 476 564 484 q 492 469 511 469 q 464 474 473 469 q 454 488 454 479 q 471 504 454 497 q 503 523 481 509 q 546 563 524 537 q 583 628 567 589 q 600 721 600 667 q 585 802 600 768 q 548 856 571 835 q 496 886 525 876 q 438 895 467 895 q 326 858 376 895 q 242 756 277 821 q 189 604 208 691 q 171 416 171 517 q 182 283 171 342 q 212 179 193 224 q 257 101 231 134 q 311 49 283 69 q 370 19 340 28 q 429 9 400 9 q 521 28 480 9 q 594 78 562 47 q 651 152 627 110 q 694 240 675 193 q 703 253 697 249 q 714 257 709 257 q 724 246 724 257 q 718 224 724 241 q 702 182 712 206 q 677 129 691 157 q 646 75 663 101 q 529 -42 595 -3 q 373 -82 463 -82 q 231 -47 292 -82 q 128 49 170 -12 q 65 189 86 109 q 44 358 44 269 q 66 551 44 465 q 120 705 87 638 q 192 818 153 771 q 264 890 230 864 q 306 920 281 905 q 359 946 330 935 q 421 966 389 958 q 489 974 454 974 q 587 955 543 974 q 661 905 631 937 q 708 830 692 873 q 725 739 725 787 m 561 1118 q 563 1109 563 1114 q 550 1093 563 1101 q 521 1070 533 1080 q 500 1054 509 1059 q 486 1048 492 1048 q 478 1051 480 1048 q 472 1059 475 1054 q 464 1073 468 1065 q 456 1088 460 1080 q 448 1102 452 1095 q 441 1113 444 1109 q 438 1119 439 1116 q 437 1125 437 1122 q 443 1137 437 1131 q 454 1147 446 1139 q 471 1164 462 1155 q 489 1180 481 1173 q 500 1190 497 1187 q 506 1193 503 1192 q 512 1195 509 1195 q 519 1190 517 1195 q 527 1176 521 1186 q 541 1153 534 1165 q 554 1131 548 1141 q 561 1118 559 1120 z "},"":{"ha":319,"x_min":-23,"x_max":342,"o":"m 333 257 q 342 245 342 257 q 340 234 342 241 q 318 180 330 205 q 296 136 307 155 q 273 95 284 114 q 241 51 259 71 q 203 17 224 31 q 160 -6 183 2 q 110 -15 136 -15 q 67 -8 90 -15 q 24 17 44 -1 q -9 67 4 35 q -23 151 -23 100 q -7 240 -23 191 q 46 335 9 288 q 94 386 70 366 q 140 418 118 406 q 181 435 162 430 q 214 439 200 439 q 233 436 224 439 q 250 424 243 432 q 262 402 258 416 q 267 371 267 389 q 261 329 267 351 q 243 288 256 308 q 223 262 234 272 q 201 245 212 252 q 182 237 191 239 q 169 235 174 235 q 155 246 155 235 q 159 269 155 254 q 163 306 163 285 q 162 318 163 311 q 160 334 162 326 q 153 347 157 341 q 140 353 148 353 q 119 343 130 353 q 98 315 108 334 q 77 257 82 288 q 72 202 72 227 q 76 156 72 181 q 91 109 81 131 q 117 72 100 87 q 157 58 133 58 q 211 78 187 58 q 255 126 235 98 q 289 186 274 155 q 315 240 304 218 q 333 257 323 257 m 278 604 q 280 596 280 600 q 267 579 280 588 q 238 556 250 567 q 218 541 227 546 q 203 535 210 535 q 195 538 197 535 q 189 546 193 541 q 181 559 185 552 q 173 574 177 567 q 165 589 169 582 q 159 600 161 595 q 155 606 157 603 q 154 612 154 608 q 160 623 154 617 q 171 634 163 626 q 189 650 179 642 q 206 667 198 659 q 217 676 214 674 q 223 680 220 678 q 229 682 226 682 q 237 676 235 682 q 244 662 238 673 q 258 640 251 652 q 271 617 265 627 q 278 604 277 607 z "},"":{"ha":769,"x_min":44,"x_max":725,"o":"m 725 739 q 716 667 725 703 q 687 596 707 631 q 643 540 669 564 q 591 500 618 516 q 537 476 564 484 q 492 469 511 469 q 464 474 473 469 q 454 488 454 479 q 471 504 454 497 q 503 523 481 509 q 546 563 524 537 q 583 628 567 589 q 600 721 600 667 q 585 802 600 768 q 548 856 571 835 q 496 886 525 876 q 438 895 467 895 q 326 858 376 895 q 242 756 277 821 q 189 604 208 691 q 171 416 171 517 q 182 283 171 342 q 212 179 193 224 q 257 101 231 134 q 311 49 283 69 q 370 19 340 28 q 429 9 400 9 q 521 28 480 9 q 594 78 562 47 q 651 152 627 110 q 694 240 675 193 q 703 253 697 249 q 714 257 709 257 q 724 246 724 257 q 718 224 724 241 q 702 182 712 206 q 677 129 691 157 q 646 75 663 101 q 529 -42 595 -3 q 373 -82 463 -82 q 231 -47 292 -82 q 128 49 170 -12 q 65 189 86 109 q 44 358 44 269 q 66 551 44 465 q 120 705 87 638 q 192 818 153 771 q 264 890 230 864 q 306 920 281 905 q 359 946 330 935 q 421 966 389 958 q 489 974 454 974 q 587 955 543 974 q 661 905 631 937 q 708 830 692 873 q 725 739 725 787 m 356 1190 q 350 1200 350 1196 q 353 1207 350 1204 q 362 1210 357 1210 q 375 1207 368 1210 q 392 1200 380 1205 q 420 1186 404 1196 q 455 1162 436 1177 q 494 1124 474 1147 q 524 1149 507 1137 q 558 1172 541 1162 q 590 1191 575 1183 q 612 1202 604 1199 q 623 1205 618 1205 q 633 1196 633 1205 q 626 1183 633 1191 q 611 1165 621 1175 q 587 1139 602 1156 q 552 1099 572 1123 q 506 1040 532 1075 q 497 1031 502 1034 q 487 1028 492 1028 q 475 1032 480 1028 q 465 1046 471 1036 q 435 1091 452 1067 q 402 1136 418 1115 q 373 1171 386 1156 q 356 1190 361 1186 z "},"":{"ha":319,"x_min":-23,"x_max":350,"o":"m 333 257 q 342 245 342 257 q 340 234 342 241 q 318 180 330 205 q 296 136 307 155 q 273 95 284 114 q 241 51 259 71 q 203 17 224 31 q 160 -6 183 2 q 110 -15 136 -15 q 67 -8 90 -15 q 24 17 44 -1 q -9 67 4 35 q -23 151 -23 100 q -7 240 -23 191 q 46 335 9 288 q 94 386 70 366 q 140 418 118 406 q 181 435 162 430 q 214 439 200 439 q 233 436 224 439 q 250 424 243 432 q 262 402 258 416 q 267 371 267 389 q 261 329 267 351 q 243 288 256 308 q 223 262 234 272 q 201 245 212 252 q 182 237 191 239 q 169 235 174 235 q 155 246 155 235 q 159 269 155 254 q 163 306 163 285 q 162 318 163 311 q 160 334 162 326 q 153 347 157 341 q 140 353 148 353 q 119 343 130 353 q 98 315 108 334 q 77 257 82 288 q 72 202 72 227 q 76 156 72 181 q 91 109 81 131 q 117 72 100 87 q 157 58 133 58 q 211 78 187 58 q 255 126 235 98 q 289 186 274 155 q 315 240 304 218 q 333 257 323 257 m 73 677 q 67 687 67 683 q 71 694 67 691 q 79 696 74 696 q 92 694 85 696 q 109 687 97 692 q 137 673 121 682 q 172 649 153 664 q 211 611 191 634 q 241 636 224 623 q 275 659 258 648 q 307 677 292 669 q 330 689 321 686 q 340 692 336 692 q 350 683 350 692 q 343 669 350 677 q 328 652 338 662 q 304 626 319 642 q 270 586 290 610 q 223 526 250 562 q 214 518 219 521 q 204 515 210 515 q 193 519 197 515 q 182 532 188 523 q 153 578 170 554 q 119 622 136 602 q 91 658 103 643 q 73 677 78 673 z "},"":{"ha":882,"x_min":20,"x_max":841,"o":"m 841 456 q 825 286 841 362 q 781 149 808 209 q 716 45 753 89 q 641 -28 680 1 q 560 -71 601 -57 q 483 -85 519 -85 q 430 -75 455 -85 q 385 -47 404 -65 q 355 -2 366 -28 q 344 57 344 24 q 347 76 344 71 q 355 81 350 81 q 368 68 363 81 q 408 7 381 28 q 474 -14 435 -14 q 567 20 526 -14 q 638 119 609 54 q 684 279 668 184 q 701 496 701 374 q 683 643 701 576 q 630 758 666 709 q 537 833 593 806 q 404 861 481 861 q 306 848 355 861 q 217 811 257 836 q 153 747 178 786 q 127 654 127 707 q 136 596 127 624 q 155 545 144 568 q 176 506 165 522 q 191 484 186 490 q 198 467 198 475 q 194 457 198 461 q 178 453 189 453 q 171 453 174 453 q 163 454 168 453 q 126 469 150 456 q 78 504 102 481 q 38 561 55 527 q 20 642 20 595 q 32 710 20 673 q 65 784 43 747 q 120 854 87 821 q 197 915 153 888 q 295 956 241 941 q 415 972 350 972 q 578 944 510 972 q 694 872 646 917 q 770 772 741 828 q 815 658 799 715 q 836 548 831 601 q 841 456 841 494 m 329 750 q 348 774 336 765 q 376 783 360 783 q 390 780 381 783 q 399 769 399 777 q 398 759 399 764 q 395 747 397 755 q 374 630 383 690 q 358 513 365 570 q 347 402 351 455 q 340 303 342 349 q 337 223 338 258 q 336 167 336 188 q 335 59 336 99 q 334 -1 334 20 q 334 -9 334 -4 q 333 -18 334 -14 q 329 -26 332 -22 q 320 -29 326 -29 q 304 -26 311 -29 q 290 -18 296 -22 q 276 -10 283 -14 q 264 -7 270 -7 q 252 -12 256 -7 q 240 -16 247 -16 q 227 -12 232 -16 q 220 -2 222 -8 q 218 11 218 4 q 218 23 218 18 q 219 99 218 49 q 224 216 221 149 q 230 301 227 256 q 237 391 233 346 q 245 478 241 435 q 253 555 250 520 q 260 614 257 590 q 264 648 263 639 q 274 699 269 678 q 286 728 279 720 q 297 739 290 734 q 311 746 302 743 q 329 750 319 750 m 305 1219 q 299 1229 299 1225 q 302 1236 299 1233 q 311 1238 306 1238 q 324 1236 317 1238 q 341 1229 329 1234 q 369 1215 353 1224 q 404 1191 385 1206 q 443 1153 423 1176 q 473 1178 456 1165 q 507 1201 490 1190 q 539 1219 524 1211 q 562 1231 553 1227 q 572 1234 568 1234 q 582 1225 582 1234 q 575 1211 582 1219 q 560 1194 570 1204 q 536 1168 551 1184 q 502 1127 522 1152 q 455 1068 481 1103 q 446 1060 451 1063 q 436 1057 441 1057 q 425 1061 429 1057 q 414 1074 420 1065 q 385 1120 401 1096 q 351 1164 368 1143 q 322 1200 335 1185 q 305 1219 310 1215 z "},"":{"ha":532,"x_min":-28,"x_max":538,"o":"m 432 257 q 439 254 436 257 q 442 245 442 252 q 440 236 442 243 q 406 141 422 183 q 374 68 390 99 q 335 11 357 33 q 277 -11 313 -11 q 249 -6 263 -11 q 224 13 235 -1 q 203 49 212 26 q 189 107 193 72 q 164 64 178 85 q 135 25 151 42 q 99 -2 119 8 q 56 -13 79 -13 q 23 -2 38 -13 q -4 30 7 9 q -21 77 -15 50 q -28 139 -28 105 q -21 210 -28 175 q -3 276 -15 244 q 25 334 8 307 q 61 380 41 361 q 127 430 95 414 q 183 446 159 446 q 189 446 186 446 q 195 446 191 446 q 200 516 197 479 q 208 595 203 553 q 220 684 215 648 q 231 747 226 721 q 242 792 236 773 q 256 827 248 810 q 266 844 260 837 q 278 856 272 850 q 293 868 285 861 q 310 884 300 874 q 339 908 327 901 q 357 915 351 915 q 370 911 365 915 q 375 897 375 907 q 374 889 375 893 q 372 880 374 885 q 363 845 370 871 q 350 782 357 819 q 334 699 342 745 q 319 603 326 652 q 306 489 312 546 q 297 380 300 433 q 291 281 293 328 q 289 199 289 235 q 291 156 289 176 q 296 121 292 136 q 308 98 300 106 q 325 90 315 90 q 346 99 336 90 q 366 129 356 109 q 388 176 376 148 q 414 240 399 204 q 432 257 420 257 m 189 363 q 163 392 189 392 q 126 378 144 392 q 95 340 109 365 q 73 282 81 316 q 65 208 65 248 q 79 135 65 163 q 122 106 93 106 q 150 115 138 106 q 169 140 161 125 q 179 172 176 155 q 184 205 183 189 q 185 251 184 228 q 186 294 185 273 q 187 333 186 315 q 189 363 188 351 m 536 836 q 538 827 538 831 q 536 813 538 820 q 531 798 534 806 q 514 762 524 781 q 493 726 505 743 q 471 693 482 708 q 449 669 459 678 q 444 665 446 667 q 438 664 442 664 q 433 666 435 664 q 431 672 431 669 q 433 682 431 676 q 445 712 441 698 q 450 740 450 726 q 445 774 450 759 q 435 802 441 790 q 423 820 429 813 q 417 829 418 827 q 412 841 412 836 q 417 853 412 848 l 475 907 q 480 911 478 909 q 486 913 481 913 q 494 907 490 913 q 503 893 496 903 q 516 871 509 883 q 529 849 523 859 q 536 836 534 838 z "},"":{"ha":882,"x_min":20,"x_max":841,"o":"m 841 456 q 825 286 841 362 q 781 149 808 209 q 716 45 753 89 q 641 -28 680 1 q 560 -71 601 -57 q 483 -85 519 -85 q 430 -75 455 -85 q 385 -47 404 -65 q 355 -2 366 -28 q 344 57 344 24 q 347 76 344 71 q 355 81 350 81 q 368 68 363 81 q 408 7 381 28 q 474 -14 435 -14 q 567 20 526 -14 q 638 119 609 54 q 684 279 668 184 q 701 496 701 374 q 683 643 701 576 q 630 758 666 709 q 537 833 593 806 q 404 861 481 861 q 306 848 355 861 q 217 811 257 836 q 153 747 178 786 q 127 654 127 707 q 136 596 127 624 q 155 545 144 568 q 176 506 165 522 q 191 484 186 490 q 198 467 198 475 q 194 457 198 461 q 178 453 189 453 q 171 453 174 453 q 163 454 168 453 q 126 469 150 456 q 78 504 102 481 q 38 561 55 527 q 20 642 20 595 q 32 710 20 673 q 65 784 43 747 q 120 854 87 821 q 197 915 153 888 q 295 956 241 941 q 415 972 350 972 q 578 944 510 972 q 694 872 646 917 q 770 772 741 828 q 815 658 799 715 q 836 548 831 601 q 841 456 841 494 m 497 380 q 495 370 495 375 q 494 356 495 360 q 493 341 493 351 l 493 330 q 487 318 493 324 q 463 308 480 313 q 416 299 446 303 q 339 295 386 296 q 336 219 337 252 q 336 167 336 186 q 335 59 336 99 q 334 -1 334 20 q 334 -9 334 -4 q 333 -18 334 -14 q 329 -26 332 -22 q 320 -29 326 -29 q 304 -26 311 -29 q 290 -18 296 -22 q 276 -10 283 -14 q 264 -7 270 -7 q 252 -12 256 -7 q 240 -16 247 -16 q 227 -12 232 -16 q 220 -2 222 -8 q 218 11 218 4 q 218 23 218 18 q 219 99 218 49 q 224 216 221 149 q 227 255 225 235 q 229 296 228 275 q 180 297 203 296 q 139 298 157 298 q 111 300 121 299 q 98 302 100 301 q 94 310 95 305 q 93 323 93 315 q 93 330 93 328 q 95 334 94 332 q 97 339 96 336 q 101 349 99 342 q 107 360 103 356 q 123 365 112 363 l 235 375 q 244 467 239 422 q 252 549 248 512 q 259 612 256 586 q 264 648 262 639 q 274 699 269 678 q 286 728 279 720 q 297 739 290 734 q 311 746 302 743 q 329 750 319 750 q 348 774 336 765 q 376 783 360 783 q 390 780 381 783 q 399 769 399 777 q 398 759 399 764 q 395 747 397 755 q 377 655 385 702 q 363 562 370 608 q 353 471 357 516 q 346 386 349 427 q 433 395 397 391 q 480 398 469 398 q 493 394 488 398 q 498 385 498 390 q 497 380 498 382 z "},"":{"ha":368,"x_min":-34,"x_max":317,"o":"m 306 783 q 313 771 313 779 q 310 761 313 766 q 300 746 307 755 q 269 713 292 736 q 212 659 246 690 q 290 494 264 585 q 317 306 317 403 q 311 237 317 273 q 295 165 306 201 q 268 98 284 130 q 228 42 251 66 q 175 4 205 18 q 110 -10 146 -10 q 68 -5 92 -10 q 25 18 45 1 q -9 67 5 35 q -23 151 -23 98 q -15 211 -23 181 q 8 266 -7 240 q 44 314 23 292 q 92 353 65 336 q 122 371 111 365 q 141 377 134 377 q 156 359 156 377 q 143 338 156 351 q 114 304 130 326 q 85 251 98 283 q 73 173 73 220 q 78 123 73 146 q 92 84 83 100 q 114 58 101 67 q 143 48 127 48 q 180 67 165 48 q 202 115 194 86 q 213 180 210 144 q 216 248 216 215 q 197 450 216 361 q 145 606 177 538 l 136 599 q 58 546 85 562 q 21 525 31 530 q 17 524 17 524 l 16 524 q 4 528 9 524 q -7 545 -2 533 q -9 548 -8 546 q -9 551 -9 549 q -6 561 -9 555 q 13 579 -2 566 q 53 614 26 591 q 111 667 81 638 q 47 747 81 714 q -22 802 13 781 q -34 819 -34 808 q -21 829 -34 829 q -7 827 -14 829 q 85 782 43 809 q 163 718 127 754 q 199 761 184 741 q 226 795 215 781 q 245 817 237 809 q 260 825 254 825 q 268 819 266 825 q 281 806 271 810 q 294 795 291 801 q 298 788 296 789 q 306 783 299 788 z "},"":{"ha":882,"x_min":20,"x_max":841,"o":"m 841 456 q 825 286 841 362 q 781 149 808 209 q 716 45 753 89 q 641 -28 680 1 q 560 -71 601 -57 q 483 -85 519 -85 q 430 -75 455 -85 q 385 -47 404 -65 q 355 -2 366 -28 q 344 57 344 24 q 347 76 344 71 q 355 81 350 81 q 368 68 363 81 q 408 7 381 28 q 474 -14 435 -14 q 567 20 526 -14 q 638 119 609 54 q 684 279 668 184 q 701 496 701 374 q 683 643 701 576 q 630 758 666 709 q 537 833 593 806 q 404 861 481 861 q 306 848 355 861 q 217 811 257 836 q 153 747 178 786 q 127 654 127 707 q 136 596 127 624 q 155 545 144 568 q 176 506 165 522 q 191 484 186 490 q 198 467 198 475 q 194 457 198 461 q 178 453 189 453 q 171 453 174 453 q 163 454 168 453 q 126 469 150 456 q 78 504 102 481 q 38 561 55 527 q 20 642 20 595 q 32 710 20 673 q 65 784 43 747 q 120 854 87 821 q 197 915 153 888 q 295 956 241 941 q 415 972 350 972 q 578 944 510 972 q 694 872 646 917 q 770 772 741 828 q 815 658 799 715 q 836 548 831 601 q 841 456 841 494 m 497 380 q 495 370 495 375 q 494 356 495 360 q 493 341 493 351 l 493 330 q 487 318 493 324 q 463 308 480 313 q 416 299 446 303 q 339 295 386 296 q 336 219 337 252 q 336 167 336 186 q 335 59 336 99 q 334 -1 334 20 q 334 -9 334 -4 q 333 -18 334 -14 q 329 -26 332 -22 q 320 -29 326 -29 q 304 -26 311 -29 q 290 -18 296 -22 q 276 -10 283 -14 q 264 -7 270 -7 q 252 -12 256 -7 q 240 -16 247 -16 q 227 -12 232 -16 q 220 -2 222 -8 q 218 11 218 4 q 218 23 218 18 q 219 99 218 49 q 224 216 221 149 q 227 255 225 235 q 229 296 228 275 q 180 297 203 296 q 139 298 157 298 q 111 300 121 299 q 98 302 100 301 q 94 310 95 305 q 93 323 93 315 q 93 330 93 328 q 95 334 94 332 q 97 339 96 336 q 101 349 99 342 q 107 360 103 356 q 123 365 112 363 l 235 375 q 244 467 239 422 q 252 549 248 512 q 259 612 256 586 q 264 648 262 639 q 274 699 269 678 q 286 728 279 720 q 297 739 290 734 q 311 746 302 743 q 329 750 319 750 q 348 774 336 765 q 376 783 360 783 q 390 780 381 783 q 399 769 399 777 q 398 759 399 764 q 395 747 397 755 q 377 655 385 702 q 363 562 370 608 q 353 471 357 516 q 346 386 349 427 q 433 395 397 391 q 480 398 469 398 q 493 394 488 398 q 498 385 498 390 q 497 380 498 382 z "},"":{"ha":418,"x_min":-28,"x_max":442,"o":"m 414 653 q 412 642 412 648 q 411 628 412 633 q 410 614 410 624 l 410 603 q 407 593 410 597 q 394 583 404 588 q 365 575 384 578 q 315 570 346 572 q 303 465 308 517 q 295 365 298 412 q 291 275 292 317 q 289 199 289 233 q 291 156 289 176 q 296 121 292 136 q 308 98 300 106 q 325 90 315 90 q 346 99 336 90 q 366 129 356 109 q 388 176 376 148 q 414 240 399 204 q 432 257 420 257 q 439 254 436 257 q 442 245 442 252 q 440 236 442 243 q 406 141 422 183 q 374 68 390 99 q 335 11 357 33 q 277 -11 313 -11 q 249 -6 263 -11 q 224 13 235 -1 q 203 49 212 26 q 189 107 193 72 q 164 64 178 85 q 135 25 151 42 q 99 -2 119 8 q 56 -13 79 -13 q 23 -2 38 -13 q -4 30 7 9 q -21 77 -15 50 q -28 139 -28 105 q -21 210 -28 175 q -3 276 -15 244 q 25 334 8 307 q 61 380 41 361 q 127 430 95 414 q 183 446 159 446 q 189 446 186 446 q 195 446 191 446 q 199 504 197 476 q 206 568 201 531 q 120 570 149 568 q 86 575 90 572 q 82 583 83 578 q 81 595 81 588 q 81 603 81 601 q 82 607 81 605 q 85 611 83 608 q 89 622 87 614 q 95 632 91 629 q 111 637 100 636 q 167 643 141 640 q 217 648 193 645 q 226 711 222 684 q 234 759 230 738 q 244 797 239 781 q 256 827 249 813 q 266 844 260 837 q 278 856 272 850 q 293 868 285 861 q 310 884 300 874 q 339 908 327 901 q 357 915 351 915 q 370 911 365 915 q 375 897 375 907 q 374 889 375 893 q 372 880 374 885 q 365 852 370 872 q 354 804 360 833 q 341 739 348 775 q 328 663 334 703 q 371 668 354 666 q 397 671 388 671 q 410 667 405 671 q 415 657 415 663 q 414 653 415 654 m 189 363 q 163 392 189 392 q 126 378 144 392 q 95 340 109 365 q 73 282 81 316 q 65 208 65 248 q 79 135 65 163 q 122 106 93 106 q 150 115 138 106 q 169 140 161 125 q 179 172 176 155 q 184 205 183 189 q 185 251 184 228 q 186 294 185 273 q 187 333 186 315 q 189 363 188 351 z "},"":{"ha":703,"x_min":41,"x_max":707,"o":"m 434 966 q 550 950 501 966 q 631 911 598 933 q 681 867 663 889 q 703 832 699 844 q 706 822 706 826 q 707 814 707 817 q 703 802 707 806 q 694 790 699 799 q 685 781 690 783 q 674 776 680 778 q 663 771 668 774 q 654 761 658 768 q 624 741 644 741 q 602 748 612 741 q 577 766 591 755 q 546 789 564 777 q 502 813 528 802 q 439 831 475 824 q 354 838 404 838 q 259 822 300 838 q 182 772 218 805 q 137 712 152 744 q 121 650 121 680 q 144 587 121 616 q 192 547 160 567 q 261 510 224 528 q 334 478 298 492 q 392 453 370 463 q 418 435 412 444 q 425 417 425 427 q 421 396 425 407 q 417 373 417 385 q 418 363 417 368 q 420 353 420 358 q 413 335 420 342 q 396 321 407 327 q 372 310 386 315 q 345 301 359 305 q 295 283 326 295 q 236 253 264 272 q 187 205 208 233 q 167 136 167 176 q 178 85 167 109 q 211 43 190 61 q 262 15 233 25 q 328 5 292 5 q 477 41 410 5 q 586 139 543 77 q 609 178 595 153 q 637 240 622 203 q 646 253 640 248 q 656 257 651 257 q 664 254 661 257 q 667 245 667 251 q 661 223 667 240 q 644 182 654 205 q 617 132 633 159 q 585 79 602 104 q 528 15 560 45 q 458 -38 496 -16 q 378 -73 420 -60 q 288 -85 335 -85 q 203 -74 246 -85 q 126 -38 161 -62 q 69 22 91 -14 q 47 109 47 59 q 66 194 47 158 q 113 254 85 229 q 174 294 141 278 q 235 319 207 309 q 282 335 263 329 q 301 347 301 341 q 291 357 301 352 q 266 369 281 362 q 229 383 250 375 q 188 403 209 391 q 127 441 154 421 q 80 486 100 462 q 51 539 61 510 q 41 603 41 568 q 55 695 41 650 q 96 781 70 741 q 159 855 123 821 q 239 914 195 889 q 332 952 283 939 q 434 966 382 966 m 465 1043 q 468 1033 468 1038 q 466 1025 468 1028 q 458 1021 463 1021 q 452 1023 456 1021 q 394 1056 419 1038 q 351 1092 368 1074 q 325 1125 334 1109 q 316 1149 316 1140 q 322 1165 316 1159 q 349 1185 328 1171 q 356 1189 353 1188 q 362 1193 359 1190 q 370 1201 366 1197 q 377 1205 373 1205 q 390 1192 387 1205 q 409 1137 397 1162 q 432 1092 420 1112 q 453 1060 444 1073 q 465 1043 462 1048 z "},"":{"ha":319,"x_min":-23,"x_max":343,"o":"m 333 257 q 340 254 337 257 q 343 246 343 252 q 341 236 343 241 q 319 182 331 208 q 297 138 307 157 q 273 96 285 115 q 242 53 259 73 q 204 18 224 33 q 160 -6 184 3 q 110 -15 136 -15 q 67 -8 90 -15 q 23 17 43 -1 q -10 67 3 35 q -23 149 -23 99 q -19 196 -23 172 q -6 241 -14 220 q 11 282 1 263 q 31 315 21 301 q 68 361 49 340 q 108 398 88 382 q 147 423 128 414 q 182 432 166 432 q 228 412 208 432 q 247 356 247 393 q 231 290 247 324 q 190 223 214 256 q 138 163 165 191 q 87 117 110 135 q 118 72 99 86 q 157 58 137 58 q 211 77 187 58 q 255 125 235 97 q 289 185 274 154 q 315 240 303 216 q 323 253 319 248 q 333 257 327 257 m 69 224 q 75 154 69 184 q 103 185 89 168 q 128 220 117 202 q 146 258 139 239 q 153 294 153 277 q 142 336 153 321 q 119 351 130 351 q 103 343 112 351 q 87 318 95 334 q 74 278 79 302 q 69 224 69 255 m 208 536 q 210 526 210 532 q 208 518 210 522 q 201 515 205 515 q 194 517 198 515 q 136 550 161 532 q 93 585 111 568 q 67 618 76 603 q 58 643 58 633 q 64 659 58 652 q 92 679 70 665 q 98 682 95 682 q 104 686 101 683 q 112 694 109 690 q 119 699 115 699 q 132 685 129 699 q 151 630 140 655 q 174 586 163 605 q 195 554 186 566 q 208 536 204 541 z "},"":{"ha":703,"x_min":41,"x_max":707,"o":"m 434 966 q 550 950 501 966 q 631 911 598 933 q 681 867 663 889 q 703 832 699 844 q 706 822 706 826 q 707 814 707 817 q 703 802 707 806 q 694 790 699 799 q 685 781 690 783 q 674 776 680 778 q 663 771 668 774 q 654 761 658 768 q 624 741 644 741 q 602 748 612 741 q 577 766 591 755 q 546 789 564 777 q 502 813 528 802 q 439 831 475 824 q 354 838 404 838 q 259 822 300 838 q 182 772 218 805 q 137 712 152 744 q 121 650 121 680 q 144 587 121 616 q 192 547 160 567 q 261 510 224 528 q 334 478 298 492 q 392 453 370 463 q 418 435 412 444 q 425 417 425 427 q 421 396 425 407 q 417 373 417 385 q 418 363 417 368 q 420 353 420 358 q 413 335 420 342 q 396 321 407 327 q 372 310 386 315 q 345 301 359 305 q 295 283 326 295 q 236 253 264 272 q 187 205 208 233 q 167 136 167 176 q 178 85 167 109 q 211 43 190 61 q 262 15 233 25 q 328 5 292 5 q 477 41 410 5 q 586 139 543 77 q 609 178 595 153 q 637 240 622 203 q 646 253 640 248 q 656 257 651 257 q 664 254 661 257 q 667 245 667 251 q 661 223 667 240 q 644 182 654 205 q 617 132 633 159 q 585 79 602 104 q 528 15 560 45 q 458 -38 496 -16 q 378 -73 420 -60 q 288 -85 335 -85 q 203 -74 246 -85 q 126 -38 161 -62 q 69 22 91 -14 q 47 109 47 59 q 66 194 47 158 q 113 254 85 229 q 174 294 141 278 q 235 319 207 309 q 282 335 263 329 q 301 347 301 341 q 291 357 301 352 q 266 369 281 362 q 229 383 250 375 q 188 403 209 391 q 127 441 154 421 q 80 486 100 462 q 51 539 61 510 q 41 603 41 568 q 55 695 41 650 q 96 781 70 741 q 159 855 123 821 q 239 914 195 889 q 332 952 283 939 q 434 966 382 966 m 546 1165 q 552 1152 552 1160 q 550 1144 552 1148 q 547 1136 549 1139 q 531 1110 541 1124 q 505 1081 521 1096 q 468 1052 490 1067 q 415 1023 446 1038 q 408 1021 411 1021 q 398 1032 398 1021 q 401 1043 398 1038 q 413 1060 404 1048 q 434 1092 422 1073 q 456 1137 445 1112 q 475 1192 468 1162 q 481 1202 477 1198 q 489 1205 486 1205 q 497 1200 494 1205 q 510 1189 503 1191 q 519 1185 516 1187 q 530 1177 525 1179 q 546 1165 536 1174 z "},"":{"ha":319,"x_min":-23,"x_max":343,"o":"m 333 257 q 340 254 337 257 q 343 246 343 252 q 341 236 343 241 q 319 182 331 208 q 297 138 307 157 q 273 96 285 115 q 242 53 259 73 q 204 18 224 33 q 160 -6 184 3 q 110 -15 136 -15 q 67 -8 90 -15 q 23 17 43 -1 q -10 67 3 35 q -23 149 -23 99 q -19 196 -23 172 q -6 241 -14 220 q 11 282 1 263 q 31 315 21 301 q 68 361 49 340 q 108 398 88 382 q 147 423 128 414 q 182 432 166 432 q 228 412 208 432 q 247 356 247 393 q 231 290 247 324 q 190 223 214 256 q 138 163 165 191 q 87 117 110 135 q 118 72 99 86 q 157 58 137 58 q 211 77 187 58 q 255 125 235 97 q 289 185 274 154 q 315 240 303 216 q 323 253 319 248 q 333 257 327 257 m 69 224 q 75 154 69 184 q 103 185 89 168 q 128 220 117 202 q 146 258 139 239 q 153 294 153 277 q 142 336 153 321 q 119 351 130 351 q 103 343 112 351 q 87 318 95 334 q 74 278 79 302 q 69 224 69 255 m 288 659 q 294 646 294 653 q 292 637 294 642 q 289 629 290 633 q 273 603 283 617 q 247 575 262 589 q 209 546 231 560 q 157 517 187 531 q 149 515 153 515 q 140 526 140 515 q 143 536 140 531 q 155 554 146 541 q 175 586 164 566 q 198 630 186 605 q 217 685 210 655 q 223 695 218 692 q 231 699 227 699 q 239 693 235 699 q 251 683 245 684 q 260 678 258 681 q 272 670 267 673 q 288 659 277 667 z "},"":{"ha":703,"x_min":41,"x_max":707,"o":"m 434 966 q 550 950 501 966 q 631 911 598 933 q 681 867 663 889 q 703 832 699 844 q 706 822 706 826 q 707 814 707 817 q 703 802 707 806 q 694 790 699 799 q 685 781 690 783 q 674 776 680 778 q 663 771 668 774 q 654 761 658 768 q 624 741 644 741 q 602 748 612 741 q 577 766 591 755 q 546 789 564 777 q 502 813 528 802 q 439 831 475 824 q 354 838 404 838 q 259 822 300 838 q 182 772 218 805 q 137 712 152 744 q 121 650 121 680 q 144 587 121 616 q 192 547 160 567 q 261 510 224 528 q 334 478 298 492 q 392 453 370 463 q 418 435 412 444 q 425 417 425 427 q 421 396 425 407 q 417 373 417 385 q 418 363 417 368 q 420 353 420 358 q 413 335 420 342 q 396 321 407 327 q 372 310 386 315 q 345 301 359 305 q 295 283 326 295 q 236 253 264 272 q 187 205 208 233 q 167 136 167 176 q 178 85 167 109 q 211 43 190 61 q 262 15 233 25 q 328 5 292 5 q 477 41 410 5 q 586 139 543 77 q 609 178 595 153 q 637 240 622 203 q 646 253 640 248 q 656 257 651 257 q 664 254 661 257 q 667 245 667 251 q 661 223 667 240 q 644 182 654 205 q 617 132 633 159 q 585 79 602 104 q 528 15 560 45 q 458 -38 496 -16 q 378 -73 420 -60 q 288 -85 335 -85 q 203 -74 246 -85 q 126 -38 161 -62 q 69 22 91 -14 q 47 109 47 59 q 66 194 47 158 q 113 254 85 229 q 174 294 141 278 q 235 319 207 309 q 282 335 263 329 q 301 347 301 341 q 291 357 301 352 q 266 369 281 362 q 229 383 250 375 q 188 403 209 391 q 127 441 154 421 q 80 486 100 462 q 51 539 61 510 q 41 603 41 568 q 55 695 41 650 q 96 781 70 741 q 159 855 123 821 q 239 914 195 889 q 332 952 283 939 q 434 966 382 966 m 568 1041 q 574 1031 574 1035 q 570 1024 574 1027 q 562 1021 567 1021 q 549 1024 556 1021 q 531 1030 543 1026 q 503 1044 519 1035 q 468 1069 487 1054 q 429 1107 449 1084 q 400 1082 417 1095 q 366 1059 382 1069 q 334 1040 349 1048 q 311 1029 319 1032 q 300 1026 305 1026 q 291 1035 291 1026 q 298 1048 291 1040 q 313 1065 303 1055 q 337 1092 322 1076 q 371 1132 351 1108 q 418 1192 391 1156 q 437 1203 427 1203 q 448 1199 444 1203 q 458 1185 453 1195 q 488 1140 471 1164 q 522 1096 505 1116 q 550 1060 538 1075 q 568 1041 563 1045 z "},"":{"ha":319,"x_min":-23,"x_max":343,"o":"m 333 257 q 340 254 337 257 q 343 246 343 252 q 341 236 343 241 q 319 182 331 208 q 297 138 307 157 q 273 96 285 115 q 242 53 259 73 q 204 18 224 33 q 160 -6 184 3 q 110 -15 136 -15 q 67 -8 90 -15 q 23 17 43 -1 q -10 67 3 35 q -23 149 -23 99 q -19 196 -23 172 q -6 241 -14 220 q 11 282 1 263 q 31 315 21 301 q 68 361 49 340 q 108 398 88 382 q 147 423 128 414 q 182 432 166 432 q 228 412 208 432 q 247 356 247 393 q 231 290 247 324 q 190 223 214 256 q 138 163 165 191 q 87 117 110 135 q 118 72 99 86 q 157 58 137 58 q 211 77 187 58 q 255 125 235 97 q 289 185 274 154 q 315 240 303 216 q 323 253 319 248 q 333 257 327 257 m 69 224 q 75 154 69 184 q 103 185 89 168 q 128 220 117 202 q 146 258 139 239 q 153 294 153 277 q 142 336 153 321 q 119 351 130 351 q 103 343 112 351 q 87 318 95 334 q 74 278 79 302 q 69 224 69 255 m 309 534 q 315 524 315 528 q 312 517 315 520 q 303 515 309 515 q 290 517 298 515 q 273 524 285 519 q 245 538 261 528 q 210 562 229 547 q 171 600 191 577 q 141 575 159 588 q 107 552 124 563 q 75 534 90 542 q 53 522 60 526 q 42 519 47 519 q 33 528 33 519 q 39 542 33 534 q 54 559 45 549 q 78 585 64 569 q 113 626 93 602 q 159 685 133 650 q 178 696 169 696 q 190 692 185 696 q 200 679 195 688 q 230 633 213 657 q 263 589 247 610 q 292 553 279 568 q 309 534 304 538 z "},"":{"ha":703,"x_min":41,"x_max":707,"o":"m 434 966 q 550 950 501 966 q 631 911 598 933 q 681 867 663 889 q 703 832 699 844 q 706 822 706 826 q 707 814 707 817 q 703 802 707 806 q 694 790 699 799 q 685 781 690 783 q 674 776 680 778 q 663 771 668 774 q 654 761 658 768 q 624 741 644 741 q 602 748 612 741 q 577 766 591 755 q 546 789 564 777 q 502 813 528 802 q 439 831 475 824 q 354 838 404 838 q 259 822 300 838 q 182 772 218 805 q 137 712 152 744 q 121 650 121 680 q 144 587 121 616 q 192 547 160 567 q 261 510 224 528 q 334 478 298 492 q 392 453 370 463 q 418 435 412 444 q 425 417 425 427 q 421 396 425 407 q 417 373 417 385 q 418 363 417 368 q 420 353 420 358 q 413 335 420 342 q 396 321 407 327 q 372 310 386 315 q 345 301 359 305 q 295 283 326 295 q 236 253 264 272 q 187 205 208 233 q 167 136 167 176 q 178 85 167 109 q 211 43 190 61 q 262 15 233 25 q 328 5 292 5 q 477 41 410 5 q 586 139 543 77 q 609 178 595 153 q 637 240 622 203 q 646 253 640 248 q 656 257 651 257 q 664 254 661 257 q 667 245 667 251 q 661 223 667 240 q 644 182 654 205 q 617 132 633 159 q 585 79 602 104 q 528 15 560 45 q 458 -38 496 -16 q 378 -73 420 -60 q 288 -85 335 -85 q 203 -74 246 -85 q 126 -38 161 -62 q 69 22 91 -14 q 47 109 47 59 q 66 194 47 158 q 113 254 85 229 q 174 294 141 278 q 235 319 207 309 q 282 335 263 329 q 301 347 301 341 q 291 357 301 352 q 266 369 281 362 q 229 383 250 375 q 188 403 209 391 q 127 441 154 421 q 80 486 100 462 q 51 539 61 510 q 41 603 41 568 q 55 695 41 650 q 96 781 70 741 q 159 855 123 821 q 239 914 195 889 q 332 952 283 939 q 434 966 382 966 m 408 1111 q 410 1103 410 1107 q 405 1092 410 1096 q 394 1084 401 1088 q 370 1065 378 1074 q 353 1051 361 1057 q 342 1044 347 1046 q 332 1042 338 1042 q 322 1048 326 1042 q 313 1063 318 1054 q 299 1087 305 1074 q 288 1106 292 1099 q 285 1112 286 1109 q 283 1118 283 1115 q 290 1130 283 1124 q 300 1140 292 1133 q 318 1157 309 1148 q 336 1173 328 1166 q 347 1183 344 1181 q 352 1186 349 1185 q 359 1188 355 1188 q 366 1183 364 1188 q 374 1169 368 1179 q 388 1146 380 1158 q 400 1124 395 1134 q 408 1111 406 1114 m 580 1111 q 582 1103 582 1107 q 577 1092 582 1096 q 566 1084 573 1088 q 542 1065 551 1074 q 525 1051 534 1057 q 514 1044 519 1046 q 505 1042 510 1042 q 494 1048 498 1042 q 485 1063 490 1054 q 471 1087 477 1074 q 460 1106 465 1099 q 457 1112 458 1109 q 456 1118 456 1115 q 462 1130 456 1124 q 473 1140 465 1133 q 490 1157 481 1148 q 508 1173 500 1166 q 519 1183 516 1181 q 525 1186 522 1185 q 531 1188 528 1188 q 538 1183 536 1188 q 546 1169 540 1179 q 560 1146 553 1158 q 573 1124 567 1134 q 580 1111 578 1114 z "},"":{"ha":319,"x_min":-23,"x_max":343,"o":"m 333 257 q 340 254 337 257 q 343 246 343 252 q 341 236 343 241 q 319 182 331 208 q 297 138 307 157 q 273 96 285 115 q 242 53 259 73 q 204 18 224 33 q 160 -6 184 3 q 110 -15 136 -15 q 67 -8 90 -15 q 23 17 43 -1 q -10 67 3 35 q -23 149 -23 99 q -19 196 -23 172 q -6 241 -14 220 q 11 282 1 263 q 31 315 21 301 q 68 361 49 340 q 108 398 88 382 q 147 423 128 414 q 182 432 166 432 q 228 412 208 432 q 247 356 247 393 q 231 290 247 324 q 190 223 214 256 q 138 163 165 191 q 87 117 110 135 q 118 72 99 86 q 157 58 137 58 q 211 77 187 58 q 255 125 235 97 q 289 185 274 154 q 315 240 303 216 q 323 253 319 248 q 333 257 327 257 m 69 224 q 75 154 69 184 q 103 185 89 168 q 128 220 117 202 q 146 258 139 239 q 153 294 153 277 q 142 336 153 321 q 119 351 130 351 q 103 343 112 351 q 87 318 95 334 q 74 278 79 302 q 69 224 69 255 m 149 604 q 151 596 151 600 q 147 586 151 589 q 136 577 142 582 q 112 559 120 567 q 94 545 103 551 q 84 537 88 540 q 74 535 79 535 q 63 541 67 535 q 54 556 60 547 q 40 580 47 568 q 30 600 34 593 q 26 606 28 603 q 25 612 25 608 q 31 623 25 617 q 42 634 34 626 q 60 650 50 642 q 77 667 69 659 q 88 676 85 674 q 94 680 91 678 q 100 682 97 682 q 108 676 106 682 q 116 662 109 673 q 129 640 122 652 q 142 617 136 627 q 149 604 148 607 m 321 604 q 323 596 323 600 q 319 586 323 589 q 308 577 315 582 q 284 559 292 567 q 267 545 275 551 q 256 537 260 540 q 246 535 252 535 q 236 541 239 535 q 227 556 232 547 q 213 580 219 568 q 202 600 206 593 q 199 606 200 603 q 197 612 197 608 q 203 623 197 617 q 214 634 206 626 q 232 650 222 642 q 250 667 241 659 q 260 676 258 674 q 266 680 263 678 q 273 682 269 682 q 280 676 278 682 q 288 662 281 673 q 301 640 294 652 q 314 617 309 627 q 321 604 320 607 z "},"":{"ha":703,"x_min":41,"x_max":707,"o":"m 434 966 q 550 950 501 966 q 631 911 598 933 q 681 867 663 889 q 703 832 699 844 q 706 822 706 826 q 707 814 707 817 q 703 802 707 806 q 694 790 699 799 q 685 781 690 783 q 674 776 680 778 q 663 771 668 774 q 654 761 658 768 q 624 741 644 741 q 602 748 612 741 q 577 766 591 755 q 546 789 564 777 q 502 813 528 802 q 439 831 475 824 q 354 838 404 838 q 259 822 300 838 q 182 772 218 805 q 137 712 152 744 q 121 650 121 680 q 144 587 121 616 q 192 547 160 567 q 261 510 224 528 q 334 478 298 492 q 392 453 370 463 q 418 435 412 444 q 425 417 425 427 q 421 396 425 407 q 417 373 417 385 q 418 363 417 368 q 420 353 420 358 q 413 335 420 342 q 396 321 407 327 q 372 310 386 315 q 345 301 359 305 q 295 283 326 295 q 236 253 264 272 q 187 205 208 233 q 167 136 167 176 q 178 85 167 109 q 211 43 190 61 q 262 15 233 25 q 328 5 292 5 q 477 41 410 5 q 586 139 543 77 q 609 178 595 153 q 637 240 622 203 q 646 253 640 248 q 656 257 651 257 q 664 254 661 257 q 667 245 667 251 q 661 223 667 240 q 644 182 654 205 q 617 132 633 159 q 585 79 602 104 q 528 15 560 45 q 458 -38 496 -16 q 378 -73 420 -60 q 288 -85 335 -85 q 203 -74 246 -85 q 126 -38 161 -62 q 69 22 91 -14 q 47 109 47 59 q 66 194 47 158 q 113 254 85 229 q 174 294 141 278 q 235 319 207 309 q 282 335 263 329 q 301 347 301 341 q 291 357 301 352 q 266 369 281 362 q 229 383 250 375 q 188 403 209 391 q 127 441 154 421 q 80 486 100 462 q 51 539 61 510 q 41 603 41 568 q 55 695 41 650 q 96 781 70 741 q 159 855 123 821 q 239 914 195 889 q 332 952 283 939 q 434 966 382 966 m 581 1166 q 575 1152 578 1159 q 567 1142 572 1144 q 565 1136 564 1141 q 564 1129 565 1132 q 562 1124 563 1128 q 562 1118 562 1120 q 562 1113 562 1115 q 563 1109 562 1112 q 557 1097 563 1103 q 537 1086 551 1091 q 497 1079 522 1082 q 432 1076 471 1076 q 379 1079 404 1076 q 337 1085 355 1082 q 308 1093 319 1089 q 296 1097 298 1096 q 293 1109 293 1101 q 294 1120 293 1112 q 296 1135 295 1127 q 314 1148 299 1148 q 325 1147 318 1148 q 347 1146 332 1146 q 374 1147 359 1146 q 405 1148 389 1147 q 435 1151 420 1149 q 462 1153 450 1152 q 504 1160 486 1156 q 536 1168 523 1164 q 557 1175 549 1172 q 568 1177 566 1177 q 581 1168 581 1177 l 581 1166 l 581 1166 z "},"":{"ha":319,"x_min":-23,"x_max":343,"o":"m 333 257 q 340 254 337 257 q 343 246 343 252 q 341 236 343 241 q 319 182 331 208 q 297 138 307 157 q 273 96 285 115 q 242 53 259 73 q 204 18 224 33 q 160 -6 184 3 q 110 -15 136 -15 q 67 -8 90 -15 q 23 17 43 -1 q -10 67 3 35 q -23 149 -23 99 q -19 196 -23 172 q -6 241 -14 220 q 11 282 1 263 q 31 315 21 301 q 68 361 49 340 q 108 398 88 382 q 147 423 128 414 q 182 432 166 432 q 228 412 208 432 q 247 356 247 393 q 231 290 247 324 q 190 223 214 256 q 138 163 165 191 q 87 117 110 135 q 118 72 99 86 q 157 58 137 58 q 211 77 187 58 q 255 125 235 97 q 289 185 274 154 q 315 240 303 216 q 323 253 319 248 q 333 257 327 257 m 69 224 q 75 154 69 184 q 103 185 89 168 q 128 220 117 202 q 146 258 139 239 q 153 294 153 277 q 142 336 153 321 q 119 351 130 351 q 103 343 112 351 q 87 318 95 334 q 74 278 79 302 q 69 224 69 255 m 323 659 q 316 645 319 652 q 309 635 313 637 q 306 630 306 634 q 305 623 307 625 q 304 617 304 621 q 303 611 303 613 q 303 607 303 608 q 304 602 304 605 q 299 590 304 596 q 278 580 293 585 q 238 572 264 575 q 174 569 213 569 q 121 572 145 569 q 78 579 96 575 q 50 586 60 583 q 38 591 39 589 q 35 603 35 594 q 36 613 35 606 q 38 629 37 621 q 56 642 41 642 q 67 641 60 642 q 89 640 74 640 q 116 640 101 640 q 146 642 131 641 q 176 644 161 643 q 203 646 191 645 q 246 653 227 649 q 278 661 264 657 q 299 668 291 665 q 310 671 307 671 q 323 662 323 671 l 323 659 l 323 659 z "},"":{"ha":703,"x_min":41,"x_max":707,"o":"m 434 966 q 550 950 501 966 q 631 911 598 933 q 681 867 663 889 q 703 832 699 844 q 706 822 706 826 q 707 814 707 817 q 703 802 707 806 q 694 790 699 799 q 685 781 690 783 q 674 776 680 778 q 663 771 668 774 q 654 761 658 768 q 624 741 644 741 q 602 748 612 741 q 577 766 591 755 q 546 789 564 777 q 502 813 528 802 q 439 831 475 824 q 354 838 404 838 q 259 822 300 838 q 182 772 218 805 q 137 712 152 744 q 121 650 121 680 q 144 587 121 616 q 192 547 160 567 q 261 510 224 528 q 334 478 298 492 q 392 453 370 463 q 418 435 412 444 q 425 417 425 427 q 421 396 425 407 q 417 373 417 385 q 418 363 417 368 q 420 353 420 358 q 413 335 420 342 q 396 321 407 327 q 372 310 386 315 q 345 301 359 305 q 295 283 326 295 q 236 253 264 272 q 187 205 208 233 q 167 136 167 176 q 178 85 167 109 q 211 43 190 61 q 262 15 233 25 q 328 5 292 5 q 477 41 410 5 q 586 139 543 77 q 609 178 595 153 q 637 240 622 203 q 646 253 640 248 q 656 257 651 257 q 664 254 661 257 q 667 245 667 251 q 661 223 667 240 q 644 182 654 205 q 617 132 633 159 q 585 79 602 104 q 528 15 560 45 q 458 -38 496 -16 q 378 -73 420 -60 q 288 -85 335 -85 q 203 -74 246 -85 q 126 -38 161 -62 q 69 22 91 -14 q 47 109 47 59 q 66 194 47 158 q 113 254 85 229 q 174 294 141 278 q 235 319 207 309 q 282 335 263 329 q 301 347 301 341 q 291 357 301 352 q 266 369 281 362 q 229 383 250 375 q 188 403 209 391 q 127 441 154 421 q 80 486 100 462 q 51 539 61 510 q 41 603 41 568 q 55 695 41 650 q 96 781 70 741 q 159 855 123 821 q 239 914 195 889 q 332 952 283 939 q 434 966 382 966 m 581 1181 q 572 1137 581 1162 q 546 1089 564 1112 q 498 1051 528 1067 q 427 1035 469 1035 q 371 1047 393 1035 q 337 1076 349 1059 q 320 1115 325 1094 q 315 1155 315 1137 q 318 1184 315 1171 q 331 1197 320 1197 q 339 1194 335 1197 q 343 1185 342 1191 q 348 1165 344 1177 q 363 1140 353 1152 q 391 1119 374 1128 q 435 1110 408 1110 q 478 1116 458 1110 q 515 1132 499 1122 q 542 1154 532 1141 q 555 1181 552 1166 q 570 1194 558 1194 q 581 1181 581 1194 z "},"":{"ha":319,"x_min":-23,"x_max":343,"o":"m 333 257 q 340 254 337 257 q 343 246 343 252 q 341 236 343 241 q 319 182 331 208 q 297 138 307 157 q 273 96 285 115 q 242 53 259 73 q 204 18 224 33 q 160 -6 184 3 q 110 -15 136 -15 q 67 -8 90 -15 q 23 17 43 -1 q -10 67 3 35 q -23 149 -23 99 q -19 196 -23 172 q -6 241 -14 220 q 11 282 1 263 q 31 315 21 301 q 68 361 49 340 q 108 398 88 382 q 147 423 128 414 q 182 432 166 432 q 228 412 208 432 q 247 356 247 393 q 231 290 247 324 q 190 223 214 256 q 138 163 165 191 q 87 117 110 135 q 118 72 99 86 q 157 58 137 58 q 211 77 187 58 q 255 125 235 97 q 289 185 274 154 q 315 240 303 216 q 323 253 319 248 q 333 257 327 257 m 69 224 q 75 154 69 184 q 103 185 89 168 q 128 220 117 202 q 146 258 139 239 q 153 294 153 277 q 142 336 153 321 q 119 351 130 351 q 103 343 112 351 q 87 318 95 334 q 74 278 79 302 q 69 224 69 255 m 322 674 q 314 631 322 656 q 288 583 306 606 q 240 544 269 560 q 168 528 210 528 q 113 540 134 528 q 79 570 91 552 q 62 609 66 587 q 57 648 57 630 q 59 677 57 665 q 73 690 62 690 q 80 687 77 690 q 85 678 84 684 q 90 658 85 671 q 105 633 94 646 q 133 612 115 621 q 176 604 150 604 q 220 609 199 604 q 257 625 241 615 q 283 647 273 635 q 297 674 294 660 q 311 687 300 687 q 322 674 322 687 z "},"":{"ha":703,"x_min":41,"x_max":707,"o":"m 434 966 q 550 950 501 966 q 631 911 598 933 q 681 867 663 889 q 703 832 699 844 q 706 822 706 826 q 707 814 707 817 q 703 802 707 806 q 694 790 699 799 q 685 781 690 783 q 674 776 680 778 q 663 771 668 774 q 654 761 658 768 q 624 741 644 741 q 602 748 612 741 q 577 766 591 755 q 546 789 564 777 q 502 813 528 802 q 439 831 475 824 q 354 838 404 838 q 259 822 300 838 q 182 772 218 805 q 137 712 152 744 q 121 650 121 680 q 144 587 121 616 q 192 547 160 567 q 261 510 224 528 q 334 478 298 492 q 392 453 370 463 q 418 435 412 444 q 425 417 425 427 q 421 396 425 407 q 417 373 417 385 q 418 363 417 368 q 420 353 420 358 q 413 335 420 342 q 396 321 407 327 q 372 310 386 315 q 345 301 359 305 q 295 283 326 295 q 236 253 264 272 q 187 205 208 233 q 167 136 167 176 q 178 85 167 109 q 211 43 190 61 q 262 15 233 25 q 328 5 292 5 q 477 41 410 5 q 586 139 543 77 q 609 178 595 153 q 637 240 622 203 q 646 253 640 248 q 656 257 651 257 q 664 254 661 257 q 667 245 667 251 q 661 223 667 240 q 644 182 654 205 q 617 132 633 159 q 585 79 602 104 q 528 15 560 45 q 458 -38 496 -16 q 378 -73 420 -60 q 288 -85 335 -85 q 203 -74 246 -85 q 126 -38 161 -62 q 69 22 91 -14 q 47 109 47 59 q 66 194 47 158 q 113 254 85 229 q 174 294 141 278 q 235 319 207 309 q 282 335 263 329 q 301 347 301 341 q 291 357 301 352 q 266 369 281 362 q 229 383 250 375 q 188 403 209 391 q 127 441 154 421 q 80 486 100 462 q 51 539 61 510 q 41 603 41 568 q 55 695 41 650 q 96 781 70 741 q 159 855 123 821 q 239 914 195 889 q 332 952 283 939 q 434 966 382 966 m 507 1111 q 509 1103 509 1107 q 496 1086 509 1095 q 468 1063 479 1074 q 447 1047 456 1053 q 432 1042 439 1042 q 424 1044 427 1042 q 418 1053 422 1047 q 410 1066 414 1059 q 402 1081 406 1074 q 394 1095 398 1088 q 388 1106 391 1102 q 385 1112 386 1109 q 383 1118 383 1115 q 389 1130 383 1124 q 400 1140 392 1133 q 418 1157 408 1148 q 435 1173 427 1166 q 446 1183 444 1181 q 452 1186 449 1185 q 458 1188 455 1188 q 466 1183 464 1188 q 474 1169 467 1179 q 487 1146 480 1158 q 500 1124 494 1134 q 507 1111 506 1114 z "},"":{"ha":319,"x_min":-23,"x_max":343,"o":"m 333 257 q 340 254 337 257 q 343 246 343 252 q 341 236 343 241 q 319 182 331 208 q 297 138 307 157 q 273 96 285 115 q 242 53 259 73 q 204 18 224 33 q 160 -6 184 3 q 110 -15 136 -15 q 67 -8 90 -15 q 23 17 43 -1 q -10 67 3 35 q -23 149 -23 99 q -19 196 -23 172 q -6 241 -14 220 q 11 282 1 263 q 31 315 21 301 q 68 361 49 340 q 108 398 88 382 q 147 423 128 414 q 182 432 166 432 q 228 412 208 432 q 247 356 247 393 q 231 290 247 324 q 190 223 214 256 q 138 163 165 191 q 87 117 110 135 q 118 72 99 86 q 157 58 137 58 q 211 77 187 58 q 255 125 235 97 q 289 185 274 154 q 315 240 303 216 q 323 253 319 248 q 333 257 327 257 m 69 224 q 75 154 69 184 q 103 185 89 168 q 128 220 117 202 q 146 258 139 239 q 153 294 153 277 q 142 336 153 321 q 119 351 130 351 q 103 343 112 351 q 87 318 95 334 q 74 278 79 302 q 69 224 69 255 m 249 604 q 251 596 251 600 q 238 579 251 588 q 209 556 221 567 q 189 541 197 546 q 174 535 180 535 q 166 538 168 535 q 160 546 163 541 q 152 559 156 552 q 144 574 148 567 q 136 589 140 582 q 130 600 132 595 q 126 606 127 603 q 125 612 125 608 q 131 623 125 617 q 142 634 134 626 q 159 650 150 642 q 177 667 169 659 q 188 676 185 674 q 194 680 191 678 q 200 682 197 682 q 208 676 205 682 q 215 662 209 673 q 229 640 222 652 q 242 617 236 627 q 249 604 248 607 z "},"":{"ha":703,"x_min":41,"x_max":707,"o":"m 547 -222 q 508 -215 526 -222 q 477 -197 490 -209 q 455 -167 463 -184 q 448 -127 448 -150 q 456 -76 448 -104 q 481 -24 465 -47 q 388 -70 438 -54 q 288 -85 338 -85 q 203 -74 246 -85 q 126 -38 161 -62 q 69 22 91 -14 q 47 109 47 59 q 66 194 47 158 q 113 254 85 229 q 174 294 141 278 q 235 319 207 309 q 282 335 263 329 q 301 347 301 341 q 291 357 301 352 q 266 369 281 362 q 229 383 250 375 q 188 403 209 391 q 127 441 154 421 q 80 486 100 462 q 51 539 61 510 q 41 603 41 568 q 55 695 41 650 q 96 781 70 741 q 159 855 123 821 q 239 914 195 889 q 332 952 283 939 q 434 966 382 966 q 550 950 501 966 q 631 911 598 933 q 681 867 663 889 q 703 832 699 844 q 706 822 706 826 q 707 814 707 817 q 703 802 707 806 q 694 790 699 799 q 685 781 690 783 q 674 776 680 778 q 663 771 668 774 q 654 761 658 768 q 624 741 644 741 q 602 748 612 741 q 577 766 591 755 q 546 789 564 777 q 502 813 528 802 q 439 831 475 824 q 354 838 404 838 q 259 822 300 838 q 182 772 218 805 q 137 712 152 744 q 121 650 121 680 q 144 587 121 616 q 192 547 160 567 q 261 510 224 528 q 334 478 298 492 q 392 453 370 463 q 418 435 412 444 q 425 417 425 427 q 421 396 425 407 q 417 373 417 385 q 418 363 417 368 q 420 353 420 358 q 413 335 420 342 q 396 321 407 327 q 372 310 386 315 q 345 301 359 305 q 295 283 326 295 q 236 253 264 272 q 187 205 208 233 q 167 136 167 176 q 178 85 167 109 q 211 43 190 61 q 262 15 233 25 q 328 5 292 5 q 477 41 410 5 q 586 139 543 77 q 609 178 595 153 q 637 240 622 203 q 646 253 640 248 q 656 257 651 257 q 664 254 661 257 q 667 245 667 251 q 661 223 667 240 q 644 182 654 205 q 617 132 633 159 q 585 79 602 104 q 555 39 568 56 q 532 3 542 21 q 517 -35 522 -14 q 512 -85 512 -56 q 518 -121 512 -106 q 533 -145 524 -136 q 553 -158 542 -154 q 574 -163 564 -163 q 596 -159 587 -163 q 613 -148 605 -155 q 626 -134 621 -142 q 637 -119 632 -127 q 646 -115 642 -115 q 652 -124 652 -115 q 648 -144 652 -128 q 632 -177 644 -160 q 600 -208 620 -195 q 547 -222 579 -222 z "},"":{"ha":319,"x_min":-23,"x_max":343,"o":"m 238 -208 q 199 -200 217 -208 q 168 -178 181 -192 q 146 -145 154 -164 q 138 -104 138 -126 q 149 -49 138 -77 q 180 5 159 -21 q 146 -10 167 -5 q 110 -15 125 -15 q 67 -8 90 -15 q 23 17 43 -1 q -10 67 3 35 q -23 149 -23 99 q -19 196 -23 172 q -6 241 -14 220 q 11 282 1 263 q 31 315 21 301 q 68 361 49 340 q 108 398 88 382 q 147 423 128 414 q 182 432 166 432 q 228 412 208 432 q 247 356 247 393 q 231 290 247 324 q 190 223 214 256 q 138 163 165 191 q 87 117 110 135 q 118 72 99 86 q 157 58 137 58 q 211 77 187 58 q 255 125 235 97 q 289 185 274 154 q 315 240 303 216 q 323 253 319 248 q 333 257 327 257 q 340 254 337 257 q 343 246 343 252 q 341 236 343 241 q 319 182 331 208 q 297 138 307 157 q 273 96 285 115 q 247 55 259 74 q 224 17 234 36 q 209 -24 214 -3 q 203 -72 203 -45 q 209 -107 203 -93 q 223 -131 214 -122 q 244 -145 233 -140 q 265 -149 255 -149 q 287 -145 277 -149 q 303 -135 296 -141 q 317 -121 311 -128 q 328 -106 323 -113 q 336 -101 332 -101 q 343 -111 343 -101 q 339 -131 343 -115 q 322 -164 334 -146 q 290 -195 311 -181 q 238 -208 270 -208 m 153 294 q 142 336 153 321 q 119 351 130 351 q 103 343 112 351 q 87 318 95 334 q 74 278 79 302 q 69 224 69 255 q 75 154 69 184 q 103 185 89 168 q 128 220 117 202 q 146 258 139 239 q 153 294 153 277 z "},"":{"ha":703,"x_min":41,"x_max":707,"o":"m 434 966 q 550 950 501 966 q 631 911 598 933 q 681 867 663 889 q 703 832 699 844 q 706 822 706 826 q 707 814 707 817 q 703 802 707 806 q 694 790 699 799 q 685 781 690 783 q 674 776 680 778 q 663 771 668 774 q 654 761 658 768 q 624 741 644 741 q 602 748 612 741 q 577 766 591 755 q 546 789 564 777 q 502 813 528 802 q 439 831 475 824 q 354 838 404 838 q 259 822 300 838 q 182 772 218 805 q 137 712 152 744 q 121 650 121 680 q 144 587 121 616 q 192 547 160 567 q 261 510 224 528 q 334 478 298 492 q 392 453 370 463 q 418 435 412 444 q 425 417 425 427 q 421 396 425 407 q 417 373 417 385 q 418 363 417 368 q 420 353 420 358 q 413 335 420 342 q 396 321 407 327 q 372 310 386 315 q 345 301 359 305 q 295 283 326 295 q 236 253 264 272 q 187 205 208 233 q 167 136 167 176 q 178 85 167 109 q 211 43 190 61 q 262 15 233 25 q 328 5 292 5 q 477 41 410 5 q 586 139 543 77 q 609 178 595 153 q 637 240 622 203 q 646 253 640 248 q 656 257 651 257 q 664 254 661 257 q 667 245 667 251 q 661 223 667 240 q 644 182 654 205 q 617 132 633 159 q 585 79 602 104 q 528 15 560 45 q 458 -38 496 -16 q 378 -73 420 -60 q 288 -85 335 -85 q 203 -74 246 -85 q 126 -38 161 -62 q 69 22 91 -14 q 47 109 47 59 q 66 194 47 158 q 113 254 85 229 q 174 294 141 278 q 235 319 207 309 q 282 335 263 329 q 301 347 301 341 q 291 357 301 352 q 266 369 281 362 q 229 383 250 375 q 188 403 209 391 q 127 441 154 421 q 80 486 100 462 q 51 539 61 510 q 41 603 41 568 q 55 695 41 650 q 96 781 70 741 q 159 855 123 821 q 239 914 195 889 q 332 952 283 939 q 434 966 382 966 m 302 1183 q 296 1194 296 1190 q 300 1200 296 1198 q 309 1203 303 1203 q 321 1200 314 1203 q 338 1194 326 1198 q 366 1180 350 1189 q 401 1156 382 1171 q 440 1118 420 1141 q 470 1142 453 1130 q 504 1165 487 1155 q 536 1184 522 1176 q 559 1196 551 1192 q 570 1198 565 1198 q 579 1190 579 1198 q 572 1176 579 1184 q 557 1159 567 1168 q 533 1133 548 1149 q 499 1092 519 1116 q 452 1033 479 1068 q 444 1024 448 1027 q 433 1021 439 1021 q 422 1025 427 1021 q 412 1039 417 1029 q 382 1084 399 1061 q 349 1129 365 1108 q 320 1164 332 1149 q 302 1183 307 1179 z "},"":{"ha":319,"x_min":-23,"x_max":343,"o":"m 333 257 q 340 254 337 257 q 343 246 343 252 q 341 236 343 241 q 319 182 331 208 q 297 138 307 157 q 273 96 285 115 q 242 53 259 73 q 204 18 224 33 q 160 -6 184 3 q 110 -15 136 -15 q 67 -8 90 -15 q 23 17 43 -1 q -10 67 3 35 q -23 149 -23 99 q -19 196 -23 172 q -6 241 -14 220 q 11 282 1 263 q 31 315 21 301 q 68 361 49 340 q 108 398 88 382 q 147 423 128 414 q 182 432 166 432 q 228 412 208 432 q 247 356 247 393 q 231 290 247 324 q 190 223 214 256 q 138 163 165 191 q 87 117 110 135 q 118 72 99 86 q 157 58 137 58 q 211 77 187 58 q 255 125 235 97 q 289 185 274 154 q 315 240 303 216 q 323 253 319 248 q 333 257 327 257 m 69 224 q 75 154 69 184 q 103 185 89 168 q 128 220 117 202 q 146 258 139 239 q 153 294 153 277 q 142 336 153 321 q 119 351 130 351 q 103 343 112 351 q 87 318 95 334 q 74 278 79 302 q 69 224 69 255 m 44 677 q 38 687 38 683 q 41 694 38 691 q 50 696 45 696 q 63 694 56 696 q 80 687 68 692 q 108 673 92 682 q 143 649 124 664 q 182 611 162 634 q 212 636 195 623 q 246 659 229 648 q 278 677 263 669 q 300 689 292 686 q 311 692 307 692 q 321 683 321 692 q 314 669 321 677 q 299 652 309 662 q 275 626 290 642 q 240 586 260 610 q 194 526 220 562 q 185 518 190 521 q 175 515 180 515 q 163 519 168 515 q 153 532 159 523 q 123 578 140 554 q 90 622 106 602 q 61 658 74 643 q 44 677 49 673 z "},"":{"ha":792,"x_min":44,"x_max":779,"o":"m 779 724 q 769 652 779 688 q 741 582 760 616 q 696 526 722 550 q 643 486 670 502 q 590 462 616 470 q 547 454 565 454 q 519 458 532 454 q 507 473 507 462 q 510 481 507 477 q 524 490 514 485 q 556 509 535 495 q 599 549 578 524 q 637 613 621 575 q 653 704 653 651 q 638 786 653 752 q 598 842 623 821 q 543 873 574 863 q 482 883 513 883 q 402 864 441 883 q 328 809 363 844 q 265 724 294 773 q 216 613 237 674 q 184 481 196 552 q 173 334 173 411 q 192 188 173 248 q 241 90 211 127 q 309 36 271 53 q 383 20 347 20 q 444 32 415 20 q 497 64 473 44 q 537 111 520 85 q 562 167 554 138 q 566 189 564 175 q 570 220 568 203 q 575 254 572 237 q 581 287 578 272 q 587 313 584 302 q 592 328 589 324 q 600 333 595 330 q 612 337 605 335 q 631 339 620 339 q 636 339 634 339 q 642 338 639 338 q 645 340 643 338 q 648 345 646 342 q 652 353 650 348 q 658 361 654 357 q 668 368 663 365 q 680 374 674 372 q 692 376 686 376 q 702 373 698 376 q 706 363 706 370 q 706 358 706 361 q 705 353 705 356 q 697 302 702 336 q 688 225 692 267 q 680 140 683 184 q 675 60 676 96 q 667 -4 675 33 q 639 -81 659 -41 q 585 -159 619 -121 q 499 -228 551 -198 q 485 -232 491 -232 q 475 -223 475 -232 q 477 -217 475 -220 q 482 -210 479 -214 q 519 -159 505 -183 q 544 -105 534 -135 q 556 -35 553 -75 q 560 62 560 5 l 560 72 q 517 7 542 36 q 463 -42 492 -22 q 399 -73 433 -62 q 328 -84 365 -84 q 220 -60 271 -84 q 130 12 169 -37 q 67 135 90 61 q 44 311 44 210 q 61 469 44 390 q 109 620 77 548 q 184 754 140 692 q 283 862 228 817 q 402 933 338 907 q 540 960 467 960 q 639 941 595 960 q 714 891 683 923 q 762 816 745 859 q 779 724 779 773 m 673 1034 q 680 1023 680 1027 q 676 1017 680 1019 q 667 1014 673 1014 q 654 1017 662 1014 q 637 1023 649 1019 q 609 1037 625 1027 q 574 1061 593 1046 q 535 1099 555 1076 q 506 1075 523 1087 q 471 1052 488 1062 q 439 1033 454 1041 q 417 1021 425 1025 q 406 1019 411 1019 q 397 1027 397 1019 q 404 1041 397 1033 q 418 1058 409 1048 q 443 1084 428 1068 q 477 1125 457 1101 q 524 1184 497 1149 q 543 1196 533 1196 q 554 1192 549 1196 q 564 1178 559 1187 q 594 1133 577 1156 q 627 1088 611 1109 q 656 1053 644 1067 q 673 1034 669 1038 z "}}}
